<?xml version="1.0" standalone="no"?>
 <!DOCTYPE svg PUBLIC "-//W3C//DTD SVG 1.1//EN" 
 "http://www.w3.org/Graphics/SVG/1.1/DTD/svg11.dtd"> 
<svg
  xmlns:svg="http://www.w3.org/2000/svg"
  xmlns="http://www.w3.org/2000/svg"
  xmlns:xlink="http://www.w3.org/1999/xlink"
  version="1.1"
  width="5.646420cm" height="9.227820cm" viewBox="0 0 56464200 92278200">
<title>SVG Picture created as enisadev-F_Courtyard.svg date 2022/07/30 14:39:12 </title>
  <desc>Picture generated by PCBNEW </desc>
<g style="fill:#000000; fill-opacity:1.000000;stroke:#000000; stroke-opacity:1.000000;
stroke-linecap:round; stroke-linejoin:round;"
 transform="translate(0 0) scale(1 1)">
</g>
<g style="fill:#000000; fill-opacity:0.0; 
stroke:#000000; stroke-width:0.000000; stroke-opacity:1; 
stroke-linecap:round; stroke-linejoin:round;">
</g>
<g style="fill:#FF26E2; fill-opacity:0.0; 
stroke:#FF26E2; stroke-width:0.000000; stroke-opacity:1; 
stroke-linecap:round; stroke-linejoin:round;">
</g>
<g style="fill:#FF26E2; fill-opacity:0.0; 
stroke:#FF26E2; stroke-width:50000.000000; stroke-opacity:1; 
stroke-linecap:round; stroke-linejoin:round;">
<circle cx="39912143.000000" cy="83757500.000000" r="3450000.000000" /> 
<path d="M13147143 11577500
L13147143 8617500
" />
<path d="M14607143 11577500
L13147143 11577500
" />
<path d="M14607143 8617500
L14607143 11577500
" />
<path d="M13147143 8617500
L14607143 8617500
" />
<path d="M23062143 17882500
L23062143 18822500
" />
<path d="M21202143 17882500
L23062143 17882500
" />
<path d="M23062143 18822500
L21202143 18822500
" />
<path d="M21202143 18822500
L21202143 17882500
" />
<path d="M31317143 38202500
L31317143 39142500
" />
<path d="M29457143 38202500
L31317143 38202500
" />
<path d="M29457143 39142500
L29457143 38202500
" />
<path d="M31317143 39142500
L29457143 39142500
" />
<path d="M28307143 28787500
L27387143 28787500
" />
<path d="M27387143 28787500
L27387143 26967500
" />
<path d="M28307143 26967500
L28307143 28787500
" />
<path d="M27387143 26967500
L28307143 26967500
" />
<path d="M29477143 37862500
L29477143 36942500
" />
<path d="M31297143 37862500
L29477143 37862500
" />
<path d="M31297143 36942500
L31297143 37862500
" />
<path d="M29477143 36942500
L31297143 36942500
" />
<path d="M18497143 45932500
L18497143 44112500
" />
<path d="M18497143 44112500
L19417143 44112500
" />
<path d="M19417143 44112500
L19417143 45932500
" />
<path d="M19417143 45932500
L18497143 45932500
" />
<path d="M24847143 42122500
L24847143 40302500
" />
<path d="M25767143 42122500
L24847143 42122500
" />
<path d="M24847143 40302500
L25767143 40302500
" />
<path d="M25767143 40302500
L25767143 42122500
" />
<path d="M23227143 71417500
L23227143 73237500
" />
<path d="M22307143 71417500
L23227143 71417500
" />
<path d="M22307143 73237500
L22307143 71417500
" />
<path d="M23227143 73237500
L22307143 73237500
" />
<circle cx="9432143.000000" cy="11367500.000000" r="3450000.000000" /> 
<path d="M11677143 58827500
L11677143 57887500
" />
<path d="M11677143 57887500
L13537143 57887500
" />
<path d="M13537143 57887500
L13537143 58827500
" />
<path d="M13537143 58827500
L11677143 58827500
" />
<path d="M38982143 57557500
L38982143 56617500
" />
<path d="M40842143 56617500
L40842143 57557500
" />
<path d="M40842143 57557500
L38982143 57557500
" />
<path d="M38982143 56617500
L40842143 56617500
" />
<path d="M38982143 55652500
L38982143 54712500
" />
<path d="M40842143 55652500
L38982143 55652500
" />
<path d="M40842143 54712500
L40842143 55652500
" />
<path d="M38982143 54712500
L40842143 54712500
" />
<path d="M38852143 58262500
L38852143 59722500
" />
<path d="M35892143 59722500
L35892143 58262500
" />
<path d="M38852143 59722500
L35892143 59722500
" />
<path d="M35892143 58262500
L38852143 58262500
" />
<path d="M24497143 26967500
L24497143 28787500
" />
<path d="M24497143 28787500
L23577143 28787500
" />
<path d="M23577143 28787500
L23577143 26967500
" />
<path d="M23577143 26967500
L24497143 26967500
" />
<path d="M40842143 28677500
L40842143 29617500
" />
<path d="M40842143 29617500
L38982143 29617500
" />
<path d="M38982143 29617500
L38982143 28677500
" />
<path d="M38982143 28677500
L40842143 28677500
" />
<path d="M25777143 26947500
L25777143 28807500
" />
<path d="M25777143 28807500
L24837143 28807500
" />
<path d="M24837143 28807500
L24837143 26947500
" />
<path d="M24837143 26947500
L25777143 26947500
" />
<path d="M40842143 58522500
L40842143 59462500
" />
<path d="M38982143 58522500
L40842143 58522500
" />
<path d="M40842143 59462500
L38982143 59462500
" />
<path d="M38982143 59462500
L38982143 58522500
" />
<path d="M8837143 40147500
L8837143 30847500
" />
<path d="M13837143 30847500
L13837143 40147500
" />
<path d="M13837143 40147500
L8837143 40147500
" />
<path d="M8837143 30847500
L13837143 30847500
" />
<path d="M38852143 27972500
L35892143 27972500
" />
<path d="M38852143 26512500
L38852143 27972500
" />
<path d="M35892143 27972500
L35892143 26512500
" />
<path d="M35892143 26512500
L38852143 26512500
" />
<path d="M18497143 76412500
L18497143 74592500
" />
<path d="M19417143 74592500
L19417143 76412500
" />
<path d="M18497143 74592500
L19417143 74592500
" />
<path d="M19417143 76412500
L18497143 76412500
" />
<path d="M19912143 20687500
L14192143 20687500
" />
<path d="M19912143 29987500
L19912143 20687500
" />
<path d="M14192143 29987500
L19912143 29987500
" />
<path d="M14192143 20687500
L14192143 29987500
" />
<path d="M31297143 69327500
L31297143 70247500
" />
<path d="M31297143 70247500
L29477143 70247500
" />
<path d="M29477143 70247500
L29477143 69327500
" />
<path d="M29477143 69327500
L31297143 69327500
" />
<circle cx="39912143.000000" cy="11367500.000000" r="3450000.000000" /> 
<path d="M12782143 53552500
L12782143 51732500
" />
<path d="M13702143 53552500
L12782143 53552500
" />
<path d="M12782143 51732500
L13702143 51732500
" />
<path d="M13702143 51732500
L13702143 53552500
" />
<path d="M35892143 54007500
L35892143 52547500
" />
<path d="M38852143 52547500
L38852143 54007500
" />
<path d="M35892143 52547500
L38852143 52547500
" />
<path d="M38852143 54007500
L35892143 54007500
" />
<path d="M38982143 21997500
L38982143 21057500
" />
<path d="M38982143 21057500
L40842143 21057500
" />
<path d="M40842143 21057500
L40842143 21997500
" />
<path d="M40842143 21997500
L38982143 21997500
" />
<path d="M39872143 60692500
L39872143 69992500
" />
<path d="M34872143 69992500
L34872143 60692500
" />
<path d="M39872143 69992500
L34872143 69992500
" />
<path d="M34872143 60692500
L39872143 60692500
" />
<path d="M30927143 8617500
L32387143 8617500
" />
<path d="M30927143 11577500
L30927143 8617500
" />
<path d="M32387143 8617500
L32387143 11577500
" />
<path d="M32387143 11577500
L30927143 11577500
" />
<path d="M24847143 71417500
L25767143 71417500
" />
<path d="M25767143 73237500
L24847143 73237500
" />
<path d="M24847143 73237500
L24847143 71417500
" />
<path d="M25767143 71417500
L25767143 73237500
" />
<path d="M29927143 59267500
L29927143 57447500
" />
<path d="M30847143 59267500
L29927143 59267500
" />
<path d="M29927143 57447500
L30847143 57447500
" />
<path d="M30847143 57447500
L30847143 59267500
" />
<path d="M40842143 27712500
L38982143 27712500
" />
<path d="M38982143 27712500
L38982143 26772500
" />
<path d="M40842143 26772500
L40842143 27712500
" />
<path d="M38982143 26772500
L40842143 26772500
" />
<path d="M29096143 61453500
L30916143 61453500
" />
<path d="M29096143 62373500
L29096143 61453500
" />
<path d="M30916143 62373500
L29096143 62373500
" />
<path d="M30916143 61453500
L30916143 62373500
" />
<path d="M28597143 71162500
L28597143 74762500
" />
<path d="M39797143 74762500
L39797143 71162500
" />
<path d="M28597143 74762500
L39797143 74762500
" />
<path d="M39797143 71162500
L28597143 71162500
" />
<path d="M16522143 80682500
L16522143 86832500
" />
<path d="M16522143 86832500
L32822143 86832500
" />
<path d="M32822143 86832500
L32822143 80682500
" />
<path d="M32822143 80682500
L16522143 80682500
" />
<path d="M40842143 51842500
L38982143 51842500
" />
<path d="M38982143 51842500
L38982143 50902500
" />
<path d="M38982143 50902500
L40842143 50902500
" />
<path d="M40842143 50902500
L40842143 51842500
" />
<path d="M28657143 26967500
L29577143 26967500
" />
<path d="M28657143 28787500
L28657143 26967500
" />
<path d="M29577143 28787500
L28657143 28787500
" />
<path d="M29577143 26967500
L29577143 28787500
" />
<path d="M29096143 30973500
L30916143 30973500
" />
<path d="M29096143 31893500
L29096143 30973500
" />
<path d="M30916143 30973500
L30916143 31893500
" />
<path d="M30916143 31893500
L29096143 31893500
" />
<path d="M33092143 13567500
L33092143 11707500
" />
<path d="M33092143 11707500
L34032143 11707500
" />
<path d="M34032143 13567500
L33092143 13567500
" />
<path d="M34032143 11707500
L34032143 13567500
" />
<path d="M35892143 28417500
L38852143 28417500
" />
<path d="M38852143 29877500
L35892143 29877500
" />
<path d="M38852143 28417500
L38852143 29877500
" />
<path d="M35892143 29877500
L35892143 28417500
" />
<path d="M29992143 7852500
L19352143 7852500
" />
<path d="M29992143 17272500
L19352143 17272500
" />
<path d="M29992143 17272500
L29992143 7852500
" />
<path d="M19352143 17272500
L19352143 7852500
" />
<path d="M36197143 11577500
L34737143 11577500
" />
<path d="M36197143 8617500
L36197143 11577500
" />
<path d="M34737143 8617500
L36197143 8617500
" />
<path d="M34737143 11577500
L34737143 8617500
" />
<path d="M13837143 60692500
L13837143 69992500
" />
<path d="M8837143 60692500
L13837143 60692500
" />
<path d="M13837143 69992500
L8837143 69992500
" />
<path d="M8837143 69992500
L8837143 60692500
" />
<path d="M15052143 11577500
L15052143 8617500
" />
<path d="M15052143 8617500
L16512143 8617500
" />
<path d="M16512143 11577500
L15052143 11577500
" />
<path d="M16512143 8617500
L16512143 11577500
" />
<path d="M28792143 30742500
L20552143 30742500
" />
<path d="M20552143 38982500
L28792143 38982500
" />
<path d="M20552143 30742500
L20552143 38982500
" />
<path d="M28792143 38982500
L28792143 30742500
" />
<path d="M11677143 28677500
L13537143 28677500
" />
<path d="M11677143 29617500
L11677143 28677500
" />
<path d="M13537143 28677500
L13537143 29617500
" />
<path d="M13537143 29617500
L11677143 29617500
" />
<path d="M24497143 57447500
L24497143 59267500
" />
<path d="M23577143 59267500
L23577143 57447500
" />
<path d="M23577143 57447500
L24497143 57447500
" />
<path d="M24497143 59267500
L23577143 59267500
" />
<path d="M13537143 59157500
L13537143 60097500
" />
<path d="M11677143 60097500
L11677143 59157500
" />
<path d="M13537143 60097500
L11677143 60097500
" />
<path d="M11677143 59157500
L13537143 59157500
" />
<path d="M29477143 67707500
L29477143 66787500
" />
<path d="M31297143 67707500
L29477143 67707500
" />
<path d="M29477143 66787500
L31297143 66787500
" />
<path d="M31297143 66787500
L31297143 67707500
" />
<path d="M32832143 11577500
L32832143 8617500
" />
<path d="M32832143 8617500
L34292143 8617500
" />
<path d="M34292143 8617500
L34292143 11577500
" />
<path d="M34292143 11577500
L32832143 11577500
" />
<path d="M29477143 35672500
L31297143 35672500
" />
<path d="M29477143 36592500
L29477143 35672500
" />
<path d="M31297143 36592500
L29477143 36592500
" />
<path d="M31297143 35672500
L31297143 36592500
" />
<path d="M19797143 74037500
L19797143 78237500
" />
<path d="M23197143 78237500
L23197143 74037500
" />
<path d="M23197143 74037500
L19797143 74037500
" />
<path d="M19797143 78237500
L23197143 78237500
" />
<path d="M16252143 11707500
L16252143 13567500
" />
<path d="M15312143 11707500
L16252143 11707500
" />
<path d="M16252143 13567500
L15312143 13567500
" />
<path d="M15312143 13567500
L15312143 11707500
" />
<path d="M40842143 52807500
L40842143 53747500
" />
<path d="M40842143 53747500
L38982143 53747500
" />
<path d="M38982143 53747500
L38982143 52807500
" />
<path d="M38982143 52807500
L40842143 52807500
" />
<path d="M26107143 59287500
L26107143 57427500
" />
<path d="M26107143 57427500
L27047143 57427500
" />
<path d="M27047143 57427500
L27047143 59287500
" />
<path d="M27047143 59287500
L26107143 59287500
" />
<path d="M19932143 72492500
L21792143 72492500
" />
<path d="M21792143 73432500
L19932143 73432500
" />
<path d="M19932143 73432500
L19932143 72492500
" />
<path d="M21792143 72492500
L21792143 73432500
" />
<path d="M23577143 71417500
L24497143 71417500
" />
<path d="M23577143 73237500
L23577143 71417500
" />
<path d="M24497143 71417500
L24497143 73237500
" />
<path d="M24497143 73237500
L23577143 73237500
" />
<path d="M40842143 25807500
L38982143 25807500
" />
<path d="M38982143 24867500
L40842143 24867500
" />
<path d="M38982143 25807500
L38982143 24867500
" />
<path d="M40842143 24867500
L40842143 25807500
" />
<path d="M21792143 41377500
L21792143 42317500
" />
<path d="M19932143 41377500
L21792143 41377500
" />
<path d="M21792143 42317500
L19932143 42317500
" />
<path d="M19932143 42317500
L19932143 41377500
" />
<path d="M12782143 21252500
L13702143 21252500
" />
<path d="M13702143 21252500
L13702143 23072500
" />
<path d="M13702143 23072500
L12782143 23072500
" />
<path d="M12782143 23072500
L12782143 21252500
" />
<path d="M19797143 47122500
L23197143 47122500
" />
<path d="M19797143 42922500
L19797143 47122500
" />
<path d="M23197143 42922500
L19797143 42922500
" />
<path d="M23197143 47122500
L23197143 42922500
" />
<path d="M35892143 55912500
L35892143 54452500
" />
<path d="M35892143 54452500
L38852143 54452500
" />
<path d="M38852143 55912500
L35892143 55912500
" />
<path d="M38852143 54452500
L38852143 55912500
" />
<path d="M35892143 56357500
L38852143 56357500
" />
<path d="M35892143 57817500
L35892143 56357500
" />
<path d="M38852143 56357500
L38852143 57817500
" />
<path d="M38852143 57817500
L35892143 57817500
" />
<path d="M35892143 24162500
L35892143 22702500
" />
<path d="M35892143 22702500
L38852143 22702500
" />
<path d="M38852143 24162500
L35892143 24162500
" />
<path d="M38852143 22702500
L38852143 24162500
" />
<path d="M28792143 61222500
L20552143 61222500
" />
<path d="M28792143 69462500
L28792143 61222500
" />
<path d="M20552143 69462500
L28792143 69462500
" />
<path d="M20552143 61222500
L20552143 69462500
" />
<path d="M30308143 20659500
L30308143 18839500
" />
<path d="M31228143 20659500
L30308143 20659500
" />
<path d="M30308143 18839500
L31228143 18839500
" />
<path d="M31228143 18839500
L31228143 20659500
" />
<path d="M34872143 40147500
L34872143 30847500
" />
<path d="M34872143 30847500
L39872143 30847500
" />
<path d="M39872143 40147500
L34872143 40147500
" />
<path d="M39872143 30847500
L39872143 40147500
" />
<path d="M28142143 17882500
L28142143 18822500
" />
<path d="M26282143 18822500
L26282143 17882500
" />
<path d="M26282143 17882500
L28142143 17882500
" />
<path d="M28142143 18822500
L26282143 18822500
" />
<path d="M29927143 28787500
L29927143 26967500
" />
<path d="M30847143 28787500
L29927143 28787500
" />
<path d="M29927143 26967500
L30847143 26967500
" />
<path d="M30847143 26967500
L30847143 28787500
" />
<path d="M17217143 11707500
L18157143 11707500
" />
<path d="M18157143 13567500
L17217143 13567500
" />
<path d="M18157143 11707500
L18157143 13567500
" />
<path d="M17217143 13567500
L17217143 11707500
" />
<path d="M11677143 27407500
L13537143 27407500
" />
<path d="M13537143 27407500
L13537143 28347500
" />
<path d="M13537143 28347500
L11677143 28347500
" />
<path d="M11677143 28347500
L11677143 27407500
" />
<path d="M28307143 57447500
L28307143 59267500
" />
<path d="M27387143 57447500
L28307143 57447500
" />
<path d="M28307143 59267500
L27387143 59267500
" />
<path d="M27387143 59267500
L27387143 57447500
" />
<path d="M35612143 21957500
L35612143 18557500
" />
<path d="M31512143 21957500
L35612143 21957500
" />
<path d="M31512143 18557500
L31512143 21957500
" />
<path d="M35612143 18557500
L31512143 18557500
" />
<path d="M31187143 13567500
L31187143 11707500
" />
<path d="M32127143 11707500
L32127143 13567500
" />
<path d="M31187143 11707500
L32127143 11707500
" />
<path d="M32127143 13567500
L31187143 13567500
" />
<path d="M18417143 8617500
L18417143 11577500
" />
<path d="M18417143 11577500
L16957143 11577500
" />
<path d="M16957143 8617500
L18417143 8617500
" />
<path d="M16957143 11577500
L16957143 8617500
" />
<path d="M25777143 57427500
L25777143 59287500
" />
<path d="M25777143 59287500
L24837143 59287500
" />
<path d="M24837143 59287500
L24837143 57427500
" />
<path d="M24837143 57427500
L25777143 57427500
" />
<path d="M28597143 44917500
L39797143 44917500
" />
<path d="M28597143 41317500
L28597143 44917500
" />
<path d="M39797143 44917500
L39797143 41317500
" />
<path d="M39797143 41317500
L28597143 41317500
" />
<path d="M29457143 68987500
L29457143 68047500
" />
<path d="M29457143 68047500
L31317143 68047500
" />
<path d="M31317143 68047500
L31317143 68987500
" />
<path d="M31317143 68987500
L29457143 68987500
" />
<path d="M19867143 35037500
L19867143 35957500
" />
<path d="M18047143 35037500
L19867143 35037500
" />
<path d="M19867143 35957500
L18047143 35957500
" />
<path d="M18047143 35957500
L18047143 35037500
" />
<path d="M29577143 57447500
L29577143 59267500
" />
<path d="M29577143 59267500
L28657143 59267500
" />
<path d="M28657143 57447500
L29577143 57447500
" />
<path d="M28657143 59267500
L28657143 57447500
" />
<path d="M34472143 18177500
L32652143 18177500
" />
<path d="M34472143 17257500
L34472143 18177500
" />
<path d="M32652143 18177500
L32652143 17257500
" />
<path d="M32652143 17257500
L34472143 17257500
" />
<path d="M40842143 22962500
L40842143 23902500
" />
<path d="M38982143 22962500
L40842143 22962500
" />
<path d="M38982143 23902500
L38982143 22962500
" />
<path d="M40842143 23902500
L38982143 23902500
" />
<path d="M18047143 65517500
L19867143 65517500
" />
<path d="M19867143 66437500
L18047143 66437500
" />
<path d="M19867143 65517500
L19867143 66437500
" />
<path d="M18047143 66437500
L18047143 65517500
" />
<path d="M18047143 62627500
L18047143 61707500
" />
<path d="M18047143 61707500
L19867143 61707500
" />
<path d="M19867143 61707500
L19867143 62627500
" />
<path d="M19867143 62627500
L18047143 62627500
" />
<path d="M35892143 52102500
L35892143 50642500
" />
<path d="M38852143 52102500
L35892143 52102500
" />
<path d="M35892143 50642500
L38852143 50642500
" />
<path d="M38852143 50642500
L38852143 52102500
" />
<path d="M26107143 28807500
L26107143 26947500
" />
<path d="M27047143 28807500
L26107143 28807500
" />
<path d="M26107143 26947500
L27047143 26947500
" />
<path d="M27047143 26947500
L27047143 28807500
" />
<path d="M24497143 42122500
L23577143 42122500
" />
<path d="M23577143 40302500
L24497143 40302500
" />
<path d="M23577143 42122500
L23577143 40302500
" />
<path d="M24497143 40302500
L24497143 42122500
" />
<path d="M38852143 24607500
L38852143 26067500
" />
<path d="M35892143 24607500
L38852143 24607500
" />
<path d="M38852143 26067500
L35892143 26067500
" />
<path d="M35892143 26067500
L35892143 24607500
" />
<path d="M35892143 20797500
L38852143 20797500
" />
<path d="M38852143 20797500
L38852143 22257500
" />
<path d="M35892143 22257500
L35892143 20797500
" />
<path d="M38852143 22257500
L35892143 22257500
" />
<path d="M19867143 32147500
L18047143 32147500
" />
<path d="M18047143 31227500
L19867143 31227500
" />
<path d="M18047143 32147500
L18047143 31227500
" />
<path d="M19867143 31227500
L19867143 32147500
" />
<path d="M14347143 11707500
L14347143 13567500
" />
<path d="M13407143 13567500
L13407143 11707500
" />
<path d="M14347143 13567500
L13407143 13567500
" />
<path d="M13407143 11707500
L14347143 11707500
" />
<path d="M14192143 51167500
L14192143 60467500
" />
<path d="M14192143 60467500
L19912143 60467500
" />
<path d="M19912143 51167500
L14192143 51167500
" />
<path d="M19912143 60467500
L19912143 51167500
" />
<circle cx="9432143.000000" cy="83757500.000000" r="3450000.000000" /> 
<path d="M22307143 40302500
L23227143 40302500
" />
<path d="M23227143 42122500
L22307143 42122500
" />
<path d="M22307143 42122500
L22307143 40302500
" />
<path d="M23227143 40302500
L23227143 42122500
" />
<path d="M35937143 11707500
L35937143 13567500
" />
<path d="M35937143 13567500
L34997143 13567500
" />
<path d="M34997143 13567500
L34997143 11707500
" />
<path d="M34997143 11707500
L35937143 11707500
" />
<g >
</g>
<g >
</g>
<g >
</g>
<g >
</g>
<g >
</g>
<g >
</g>
<g >
</g>
<g >
</g>
<g >
</g>
<g >
</g>
<g >
</g>
<g >
</g>
<g >
</g>
<g >
</g>
<g >
</g>
<g >
</g>
<g >
</g>
<g >
</g>
<g >
</g>
<g >
</g>
<g >
</g>
<g >
</g>
<g >
</g>
<g >
</g>
<g >
</g>
<g >
</g>
<g >
</g>
<g >
</g>
<g >
</g>
<g >
</g>
<g >
</g>
<g >
</g>
<g >
</g>
<g >
</g>
<g >
</g>
<g >
</g>
<g >
</g>
<g >
</g>
<g >
</g>
<g >
</g>
<g >
</g>
<g >
</g>
<g >
</g>
<g >
</g>
<g >
</g>
<g >
</g>
<g >
</g>
<g >
</g>
<g >
</g>
<g >
</g>
<g >
</g>
<g >
</g>
<g >
</g>
<g >
</g>
<g >
</g>
<g >
</g>
<g >
</g>
<g >
</g>
<g >
</g>
<g >
</g>
<g >
</g>
<g >
</g>
<g >
</g>
<g >
</g>
<g >
</g>
<g >
</g>
<g >
</g>
<g >
</g>
<g >
</g>
<g >
</g>
<g >
</g>
<g >
</g>
<g >
</g>
<g >
</g>
<g >
</g>
<g >
</g>
<g >
</g>
<g >
</g>
<g >
</g>
<g >
</g>
<g >
</g>
<g >
</g>
<g >
</g>
<g >
</g>
<g >
</g>
<g >
</g>
<g >
</g>
<g >
</g>
<g >
</g>
<g >
</g>
<g >
</g>
<g >
</g>
<g >
</g>
<g >
</g>
<g >
</g>
<g >
</g>
<g >
</g>
<g >
</g>
<g >
</g>
</g>
<g style="fill:#000000; fill-opacity:0.0; 
stroke:#000000; stroke-width:50000.000000; stroke-opacity:1; 
stroke-linecap:round; stroke-linejoin:round;">
</g>
<g style="fill:#D0D2CD; fill-opacity:0.0; 
stroke:#D0D2CD; stroke-width:50000.000000; stroke-opacity:1; 
stroke-linecap:round; stroke-linejoin:round;">
</g>
<g style="fill:#D0D2CD; fill-opacity:0.0; 
stroke:#D0D2CD; stroke-width:100000.000000; stroke-opacity:1; 
stroke-linecap:round; stroke-linejoin:round;">
<path d="M6892143 22797500
L6892143 72327500
" />
<path d="M42452143 22797500
L42452143 72327500
" />
<path d="M39912143 87567500
L9432143 87567500
" />
<path d="M39912143.000000 87567500.000000 A3810000.000000 3810000.000000 0.0 0 0 43722143.000000 83757500.000000" />
<path d="M43722143.000000 11367500.000000 A3810000.000000 3810000.000000 0.0 0 0 39912143.000000 7557500.000000" />
<path d="M5622143 83757500
L5622143 73597500
" />
<path d="M43722143 11367500
L43722143 21527500
" />
<path d="M43722143 21527500
L42452143 22797500
" />
<path d="M5622143 11367500
L5622143 21527500
" />
<path d="M5622143.000000 83757500.000000 A3810000.000000 3810000.000000 0.0 0 0 9432143.000000 87567500.000000" />
<path d="M5622143 73597500
L6892143 72327500
" />
<path d="M9432143.000000 7557500.000000 A3810000.000000 3810000.000000 0.0 0 0 5622143.000000 11367500.000000" />
<path d="M43722143 83757500
L43722143 73597500
" />
<path d="M43722143 73597500
L42452143 72327500
" />
<path d="M5622143 21527500
L6892143 22797500
" />
<path d="M9432143 7557500
L39912143 7557500
" />
<g >
</g>
<g >
</g>
<g >
</g>
<g >
</g>
<g >
</g>
<g >
</g>
<g >
</g>
<g >
</g>
<g >
</g>
<g >
</g>
<g >
</g>
<g >
</g>
<g >
</g>
<g >
</g>
<g >
</g>
<g >
</g>
<g >
</g>
<g >
</g>
<g >
</g>
<g >
</g>
<g >
</g>
<g >
</g>
<g >
</g>
<g >
</g>
<g >
</g>
<g >
</g>
<g >
</g>
<g >
</g>
<g >
</g>
<g >
</g>
<g >
</g>
<g >
</g>
<g >
</g>
<g >
</g>
<g >
</g>
<g >
</g>
<g >
</g>
<g >
</g>
<g >
</g>
<g >
</g>
<g >
</g>
<g >
</g>
<g >
</g>
<g >
</g>
<g >
</g>
<g >
</g>
<g >
</g>
<g >
</g>
<g >
</g>
<g >
</g>
<g >
</g>
<g >
</g>
<g >
</g>
<g >
</g>
<g >
</g>
<g >
</g>
<g >
</g>
<g >
</g>
<g >
</g>
<g >
</g>
<g >
</g>
<g >
</g>
<g >
</g>
<g >
</g>
<g >
</g>
<g >
</g>
<g >
</g>
<g >
</g>
<g >
</g>
<g >
</g>
<g >
</g>
<g >
</g>
<g >
</g>
<g >
</g>
<g >
</g>
<g >
</g>
<g >
</g>
<g >
</g>
<g >
</g>
<g >
</g>
<g >
</g>
<g >
</g>
<g >
</g>
<g >
</g>
<g >
</g>
<g >
</g>
<g >
</g>
<g >
</g>
<g >
</g>
<g >
</g>
<g >
</g>
<g >
</g>
<g >
</g>
<g >
</g>
<g >
</g>
<g >
</g>
<g >
</g>
<g >
</g>
<g >
</g>
</g> 
</svg>
