<?xml version="1.0" standalone="no"?>
 <!DOCTYPE svg PUBLIC "-//W3C//DTD SVG 1.1//EN" 
 "http://www.w3.org/Graphics/SVG/1.1/DTD/svg11.dtd"> 
<svg
  xmlns:svg="http://www.w3.org/2000/svg"
  xmlns="http://www.w3.org/2000/svg"
  xmlns:xlink="http://www.w3.org/1999/xlink"
  version="1.1"
  width="5.646420cm" height="9.227820cm" viewBox="0 0 56464200 92278200">
<title>SVG Picture created as enisadev-F_Silkscreen.svg date 2022/07/30 14:39:12 </title>
  <desc>Picture generated by PCBNEW </desc>
<g style="fill:#000000; fill-opacity:1.000000;stroke:#000000; stroke-opacity:1.000000;
stroke-linecap:round; stroke-linejoin:round;"
 transform="translate(0 0) scale(1 1)">
</g>
<g style="fill:#000000; fill-opacity:0.0; 
stroke:#000000; stroke-width:0.000000; stroke-opacity:1; 
stroke-linecap:round; stroke-linejoin:round;">
</g>
<g style="fill:#F2EDA1; fill-opacity:0.0; 
stroke:#F2EDA1; stroke-width:0.000000; stroke-opacity:1; 
stroke-linecap:round; stroke-linejoin:round;">
</g>
<g style="fill:#F2EDA1; fill-opacity:0.0; 
stroke:#F2EDA1; stroke-width:150000.000000; stroke-opacity:1; 
stroke-linecap:round; stroke-linejoin:round;">
<g transform="rotate(-90.000000 18322143.000000 79312500.000000)">
<text x="18322143.000000" y="79812500.000000"
textLength="2857144.000000" font-size="1333333.000000" lengthAdjust="spacingAndGlyphs"
text-anchor="middle" opacity="0">VCC</text>
</g>
<g class="stroked-text"><desc>VCC</desc>
<path d="M17774523 80645833
L18774523 80312500
L17774523 79979166
" />
<path d="M18679285 79074404
L18726904 79122023
L18774523 79264880
L18774523 79360119
L18726904 79502976
L18631666 79598214
L18536428 79645833
L18345952 79693452
L18203095 79693452
L18012619 79645833
L17917381 79598214
L17822143 79502976
L17774523 79360119
L17774523 79264880
L17822143 79122023
L17869762 79074404
" />
<path d="M18679285 78074404
L18726904 78122023
L18774523 78264880
L18774523 78360119
L18726904 78502976
L18631666 78598214
L18536428 78645833
L18345952 78693452
L18203095 78693452
L18012619 78645833
L17917381 78598214
L17822143 78502976
L17774523 78360119
L17774523 78264880
L17822143 78122023
L17869762 78074404
" />
</g><g transform="rotate(-90.000000 35467143.000000 46927500.000000)">
<text x="35467143.000000" y="47427500.000000"
textLength="3290238.000000" font-size="1333333.000000" lengthAdjust="spacingAndGlyphs"
text-anchor="middle" opacity="0">SWD</text>
</g>
<g class="stroked-text"><desc>SWD</desc>
<path d="M35871904 48284642
L35919523 48141785
L35919523 47903690
L35871904 47808452
L35824285 47760833
L35729047 47713214
L35633809 47713214
L35538571 47760833
L35490952 47808452
L35443333 47903690
L35395714 48094166
L35348095 48189404
L35300476 48237023
L35205238 48284642
L35110000 48284642
L35014762 48237023
L34967143 48189404
L34919523 48094166
L34919523 47856071
L34967143 47713214
" />
<path d="M34919523 47379880
L35919523 47141785
L35205238 46951309
L35919523 46760833
L34919523 46522738
" />
<path d="M35919523 46141785
L34919523 46141785
L34919523 45903690
L34967143 45760833
L35062381 45665595
L35157619 45617976
L35348095 45570357
L35490952 45570357
L35681428 45617976
L35776666 45665595
L35871904 45760833
L35919523 45903690
L35919523 46141785
" />
</g><g transform="rotate(-90.000000 30387143.000000 46927500.000000)">
<text x="30387143.000000" y="47427500.000000"
textLength="3242619.000000" font-size="1333333.000000" lengthAdjust="spacingAndGlyphs"
text-anchor="middle" opacity="0">GND</text>
</g>
<g class="stroked-text"><desc>GND</desc>
<path d="M29887143 47689404
L29839523 47784642
L29839523 47927500
L29887143 48070357
L29982381 48165595
L30077619 48213214
L30268095 48260833
L30410952 48260833
L30601428 48213214
L30696666 48165595
L30791904 48070357
L30839523 47927500
L30839523 47832261
L30791904 47689404
L30744285 47641785
L30410952 47641785
L30410952 47832261
" />
<path d="M30839523 47213214
L29839523 47213214
L30839523 46641785
L29839523 46641785
" />
<path d="M30839523 46165595
L29839523 46165595
L29839523 45927500
L29887143 45784642
L29982381 45689404
L30077619 45641785
L30268095 45594166
L30410952 45594166
L30601428 45641785
L30696666 45689404
L30791904 45784642
L30839523 45927500
L30839523 46165595
" />
</g><g transform="rotate(-90.000000 38007143.000000 46927500.000000)">
<text x="38007143.000000" y="47427500.000000"
textLength="3052143.000000" font-size="1333333.000000" lengthAdjust="spacingAndGlyphs"
text-anchor="middle" opacity="0">VCC</text>
</g>
<g class="stroked-text"><desc>VCC</desc>
<path d="M37459523 48260833
L38459523 47927500
L37459523 47594166
" />
<path d="M38364285 46689404
L38411904 46737023
L38459523 46879880
L38459523 46975119
L38411904 47117976
L38316666 47213214
L38221428 47260833
L38030952 47308452
L37888095 47308452
L37697619 47260833
L37602381 47213214
L37507143 47117976
L37459523 46975119
L37459523 46879880
L37507143 46737023
L37554762 46689404
" />
<path d="M38364285 45689404
L38411904 45737023
L38459523 45879880
L38459523 45975119
L38411904 46117976
L38316666 46213214
L38221428 46260833
L38030952 46308452
L37888095 46308452
L37697619 46260833
L37602381 46213214
L37507143 46117976
L37459523 45975119
L37459523 45879880
L37507143 45737023
L37554762 45689404
" />
</g><g transform="rotate(-180.000000 37322143.000000 70817500.000000)">
<text x="37322143.000000" y="71317500.000000"
textLength="4718810.000000" font-size="1333333.000000" lengthAdjust="spacingAndGlyphs"
text-anchor="middle" opacity="0">RESET</text>
</g>
<g class="stroked-text"><desc>RESET</desc>
<path d="M38774523 70365119
L39107857 70841309
" />
<path d="M39345952 70365119
L39345952 71365119
L38965000 71365119
L38869762 71317500
L38822143 71269880
L38774523 71174642
L38774523 71031785
L38822143 70936547
L38869762 70888928
L38965000 70841309
L39345952 70841309
" />
<path d="M38345952 70888928
L38012619 70888928
" />
<path d="M37869762 70365119
L38345952 70365119
L38345952 71365119
L37869762 71365119
" />
<path d="M37488809 70412738
L37345952 70365119
L37107857 70365119
L37012619 70412738
L36965000 70460357
L36917381 70555595
L36917381 70650833
L36965000 70746071
L37012619 70793690
L37107857 70841309
L37298333 70888928
L37393571 70936547
L37441190 70984166
L37488809 71079404
L37488809 71174642
L37441190 71269880
L37393571 71317500
L37298333 71365119
L37060238 71365119
L36917381 71317500
" />
<path d="M36488809 70888928
L36155476 70888928
" />
<path d="M36012619 70365119
L36488809 70365119
L36488809 71365119
L36012619 71365119
" />
<path d="M35726904 71365119
L35155476 71365119
" />
<path d="M35441190 70365119
L35441190 71365119
" />
</g><text x="23402143.000000" y="80447500.000000"
textLength="3147381.000000" font-size="1333333.000000" lengthAdjust="spacingAndGlyphs"
text-anchor="middle" opacity="0">4/8</text>
<g class="stroked-text"><desc>4/8</desc>
<path d="M22592619 79733214
L22592619 80399880
" />
<path d="M22354523 79352261
L22116428 80066547
L22735476 80066547
" />
<path d="M23830714 79352261
L22973571 80637976
" />
<path d="M24306904 79828452
L24211666 79780833
L24164047 79733214
L24116428 79637976
L24116428 79590357
L24164047 79495119
L24211666 79447500
L24306904 79399880
L24497381 79399880
L24592619 79447500
L24640238 79495119
L24687857 79590357
L24687857 79637976
L24640238 79733214
L24592619 79780833
L24497381 79828452
L24306904 79828452
L24211666 79876071
L24164047 79923690
L24116428 80018928
L24116428 80209404
L24164047 80304642
L24211666 80352261
L24306904 80399880
L24497381 80399880
L24592619 80352261
L24640238 80304642
L24687857 80209404
L24687857 80018928
L24640238 79923690
L24592619 79876071
L24497381 79828452
" />
</g><g transform="rotate(-180.000000 11322143.000000 71067500.000000)">
<text x="11322143.000000" y="71567500.000000"
textLength="6718810.000000" font-size="1333333.000000" lengthAdjust="spacingAndGlyphs"
text-anchor="middle" opacity="0">BOOTSEL</text>
</g>
<g class="stroked-text"><desc>BOOTSEL</desc>
<path d="M14012619 71138928
L13869762 71091309
L13822143 71043690
L13774523 70948452
L13774523 70805595
L13822143 70710357
L13869762 70662738
L13965000 70615119
L14345952 70615119
L14345952 71615119
L14012619 71615119
L13917381 71567500
L13869762 71519880
L13822143 71424642
L13822143 71329404
L13869762 71234166
L13917381 71186547
L14012619 71138928
L14345952 71138928
" />
<path d="M13155476 71615119
L12965000 71615119
L12869762 71567500
L12774523 71472261
L12726904 71281785
L12726904 70948452
L12774523 70757976
L12869762 70662738
L12965000 70615119
L13155476 70615119
L13250714 70662738
L13345952 70757976
L13393571 70948452
L13393571 71281785
L13345952 71472261
L13250714 71567500
L13155476 71615119
" />
<path d="M12107857 71615119
L11917381 71615119
L11822143 71567500
L11726904 71472261
L11679285 71281785
L11679285 70948452
L11726904 70757976
L11822143 70662738
L11917381 70615119
L12107857 70615119
L12203095 70662738
L12298333 70757976
L12345952 70948452
L12345952 71281785
L12298333 71472261
L12203095 71567500
L12107857 71615119
" />
<path d="M11393571 71615119
L10822143 71615119
" />
<path d="M11107857 70615119
L11107857 71615119
" />
<path d="M10536428 70662738
L10393571 70615119
L10155476 70615119
L10060238 70662738
L10012619 70710357
L9965000 70805595
L9965000 70900833
L10012619 70996071
L10060238 71043690
L10155476 71091309
L10345952 71138928
L10441190 71186547
L10488809 71234166
L10536428 71329404
L10536428 71424642
L10488809 71519880
L10441190 71567500
L10345952 71615119
L10107857 71615119
L9965000 71567500
" />
<path d="M9536428 71138928
L9203095 71138928
" />
<path d="M9060238 70615119
L9536428 70615119
L9536428 71615119
L9060238 71615119
" />
<path d="M8155476 70615119
L8631666 70615119
L8631666 71615119
" />
</g><g transform="rotate(-90.000000 30387143.000000 76772500.000000)">
<text x="30387143.000000" y="77272500.000000"
textLength="3242619.000000" font-size="1333333.000000" lengthAdjust="spacingAndGlyphs"
text-anchor="middle" opacity="0">GND</text>
</g>
<g class="stroked-text"><desc>GND</desc>
<path d="M29887143 77534404
L29839523 77629642
L29839523 77772500
L29887143 77915357
L29982381 78010595
L30077619 78058214
L30268095 78105833
L30410952 78105833
L30601428 78058214
L30696666 78010595
L30791904 77915357
L30839523 77772500
L30839523 77677261
L30791904 77534404
L30744285 77486785
L30410952 77486785
L30410952 77677261
" />
<path d="M30839523 77058214
L29839523 77058214
L30839523 76486785
L29839523 76486785
" />
<path d="M30839523 76010595
L29839523 76010595
L29839523 75772500
L29887143 75629642
L29982381 75534404
L30077619 75486785
L30268095 75439166
L30410952 75439166
L30601428 75486785
L30696666 75534404
L30791904 75629642
L30839523 75772500
L30839523 76010595
" />
</g><g transform="rotate(-90.000000 32927143.000000 46927500.000000)">
<text x="32927143.000000" y="47427500.000000"
textLength="3004524.000000" font-size="1333333.000000" lengthAdjust="spacingAndGlyphs"
text-anchor="middle" opacity="0">CLK</text>
</g>
<g class="stroked-text"><desc>CLK</desc>
<path d="M33284285 47522738
L33331904 47570357
L33379523 47713214
L33379523 47808452
L33331904 47951309
L33236666 48046547
L33141428 48094166
L32950952 48141785
L32808095 48141785
L32617619 48094166
L32522381 48046547
L32427143 47951309
L32379523 47808452
L32379523 47713214
L32427143 47570357
L32474762 47522738
" />
<path d="M33379523 46617976
L33379523 47094166
L32379523 47094166
" />
<path d="M33379523 46284642
L32379523 46284642
" />
<path d="M33379523 45713214
L32808095 46141785
" />
<path d="M32379523 45713214
L32950952 46284642
" />
</g><text x="33562143.000000" y="85527500.000000"
textLength="1147381.000000" font-size="1333333.000000" lengthAdjust="spacingAndGlyphs"
text-anchor="middle" opacity="0">5</text>
<g class="stroked-text"><desc>5</desc>
<path d="M33800238 84479880
L33324047 84479880
L33276428 84956071
L33324047 84908452
L33419285 84860833
L33657381 84860833
L33752619 84908452
L33800238 84956071
L33847857 85051309
L33847857 85289404
L33800238 85384642
L33752619 85432261
L33657381 85479880
L33419285 85479880
L33324047 85432261
L33276428 85384642
" />
</g><g transform="rotate(-90.000000 20862143.000000 79947500.000000)">
<text x="20862143.000000" y="80447500.000000"
textLength="1195000.000000" font-size="1333333.000000" lengthAdjust="spacingAndGlyphs"
text-anchor="middle" opacity="0">G</text>
</g>
<g class="stroked-text"><desc>G</desc>
<path d="M20362143 79685595
L20314523 79780833
L20314523 79923690
L20362143 80066547
L20457381 80161785
L20552619 80209404
L20743095 80257023
L20885952 80257023
L21076428 80209404
L21171666 80161785
L21266904 80066547
L21314523 79923690
L21314523 79828452
L21266904 79685595
L21219285 79637976
L20885952 79637976
L20885952 79828452
" />
</g><g transform="rotate(-180.000000 11572143.000000 41067500.000000)">
<text x="11572143.000000" y="41567500.000000"
textLength="6718810.000000" font-size="1333333.000000" lengthAdjust="spacingAndGlyphs"
text-anchor="middle" opacity="0">BOOTSEL</text>
</g>
<g class="stroked-text"><desc>BOOTSEL</desc>
<path d="M14262619 41138928
L14119762 41091309
L14072143 41043690
L14024523 40948452
L14024523 40805595
L14072143 40710357
L14119762 40662738
L14215000 40615119
L14595952 40615119
L14595952 41615119
L14262619 41615119
L14167381 41567500
L14119762 41519880
L14072143 41424642
L14072143 41329404
L14119762 41234166
L14167381 41186547
L14262619 41138928
L14595952 41138928
" />
<path d="M13405476 41615119
L13215000 41615119
L13119762 41567500
L13024523 41472261
L12976904 41281785
L12976904 40948452
L13024523 40757976
L13119762 40662738
L13215000 40615119
L13405476 40615119
L13500714 40662738
L13595952 40757976
L13643571 40948452
L13643571 41281785
L13595952 41472261
L13500714 41567500
L13405476 41615119
" />
<path d="M12357857 41615119
L12167381 41615119
L12072143 41567500
L11976904 41472261
L11929285 41281785
L11929285 40948452
L11976904 40757976
L12072143 40662738
L12167381 40615119
L12357857 40615119
L12453095 40662738
L12548333 40757976
L12595952 40948452
L12595952 41281785
L12548333 41472261
L12453095 41567500
L12357857 41615119
" />
<path d="M11643571 41615119
L11072143 41615119
" />
<path d="M11357857 40615119
L11357857 41615119
" />
<path d="M10786428 40662738
L10643571 40615119
L10405476 40615119
L10310238 40662738
L10262619 40710357
L10215000 40805595
L10215000 40900833
L10262619 40996071
L10310238 41043690
L10405476 41091309
L10595952 41138928
L10691190 41186547
L10738809 41234166
L10786428 41329404
L10786428 41424642
L10738809 41519880
L10691190 41567500
L10595952 41615119
L10357857 41615119
L10215000 41567500
" />
<path d="M9786428 41138928
L9453095 41138928
" />
<path d="M9310238 40615119
L9786428 40615119
L9786428 41615119
L9310238 41615119
" />
<path d="M8405476 40615119
L8881666 40615119
L8881666 41615119
" />
</g><g transform="rotate(-90.000000 38007143.000000 76772500.000000)">
<text x="38007143.000000" y="77272500.000000"
textLength="3052143.000000" font-size="1333333.000000" lengthAdjust="spacingAndGlyphs"
text-anchor="middle" opacity="0">VCC</text>
</g>
<g class="stroked-text"><desc>VCC</desc>
<path d="M37459523 78105833
L38459523 77772500
L37459523 77439166
" />
<path d="M38364285 76534404
L38411904 76582023
L38459523 76724880
L38459523 76820119
L38411904 76962976
L38316666 77058214
L38221428 77105833
L38030952 77153452
L37888095 77153452
L37697619 77105833
L37602381 77058214
L37507143 76962976
L37459523 76820119
L37459523 76724880
L37507143 76582023
L37554762 76534404
" />
<path d="M38364285 75534404
L38411904 75582023
L38459523 75724880
L38459523 75820119
L38411904 75962976
L38316666 76058214
L38221428 76105833
L38030952 76153452
L37888095 76153452
L37697619 76105833
L37602381 76058214
L37507143 75962976
L37459523 75820119
L37459523 75724880
L37507143 75582023
L37554762 75534404
" />
</g><g transform="rotate(-180.000000 37572143.000000 40817500.000000)">
<text x="37572143.000000" y="41317500.000000"
textLength="4718810.000000" font-size="1333333.000000" lengthAdjust="spacingAndGlyphs"
text-anchor="middle" opacity="0">RESET</text>
</g>
<g class="stroked-text"><desc>RESET</desc>
<path d="M39024523 40365119
L39357857 40841309
" />
<path d="M39595952 40365119
L39595952 41365119
L39215000 41365119
L39119762 41317500
L39072143 41269880
L39024523 41174642
L39024523 41031785
L39072143 40936547
L39119762 40888928
L39215000 40841309
L39595952 40841309
" />
<path d="M38595952 40888928
L38262619 40888928
" />
<path d="M38119762 40365119
L38595952 40365119
L38595952 41365119
L38119762 41365119
" />
<path d="M37738809 40412738
L37595952 40365119
L37357857 40365119
L37262619 40412738
L37215000 40460357
L37167381 40555595
L37167381 40650833
L37215000 40746071
L37262619 40793690
L37357857 40841309
L37548333 40888928
L37643571 40936547
L37691190 40984166
L37738809 41079404
L37738809 41174642
L37691190 41269880
L37643571 41317500
L37548333 41365119
L37310238 41365119
L37167381 41317500
" />
<path d="M36738809 40888928
L36405476 40888928
" />
<path d="M36262619 40365119
L36738809 40365119
L36738809 41365119
L36262619 41365119
" />
<path d="M35976904 41365119
L35405476 41365119
" />
<path d="M35691190 40365119
L35691190 41365119
" />
</g><g transform="rotate(-90.000000 35467143.000000 76772500.000000)">
<text x="35467143.000000" y="77272500.000000"
textLength="3290238.000000" font-size="1333333.000000" lengthAdjust="spacingAndGlyphs"
text-anchor="middle" opacity="0">SWD</text>
</g>
<g class="stroked-text"><desc>SWD</desc>
<path d="M35871904 78129642
L35919523 77986785
L35919523 77748690
L35871904 77653452
L35824285 77605833
L35729047 77558214
L35633809 77558214
L35538571 77605833
L35490952 77653452
L35443333 77748690
L35395714 77939166
L35348095 78034404
L35300476 78082023
L35205238 78129642
L35110000 78129642
L35014762 78082023
L34967143 78034404
L34919523 77939166
L34919523 77701071
L34967143 77558214
" />
<path d="M34919523 77224880
L35919523 76986785
L35205238 76796309
L35919523 76605833
L34919523 76367738
" />
<path d="M35919523 75986785
L34919523 75986785
L34919523 75748690
L34967143 75605833
L35062381 75510595
L35157619 75462976
L35348095 75415357
L35490952 75415357
L35681428 75462976
L35776666 75510595
L35871904 75605833
L35919523 75748690
L35919523 75986785
" />
</g><g transform="rotate(-90.000000 32927143.000000 76772500.000000)">
<text x="32927143.000000" y="77272500.000000"
textLength="3004524.000000" font-size="1333333.000000" lengthAdjust="spacingAndGlyphs"
text-anchor="middle" opacity="0">CLK</text>
</g>
<g class="stroked-text"><desc>CLK</desc>
<path d="M33284285 77367738
L33331904 77415357
L33379523 77558214
L33379523 77653452
L33331904 77796309
L33236666 77891547
L33141428 77939166
L32950952 77986785
L32808095 77986785
L32617619 77939166
L32522381 77891547
L32427143 77796309
L32379523 77653452
L32379523 77558214
L32427143 77415357
L32474762 77367738
" />
<path d="M33379523 76462976
L33379523 76939166
L32379523 76939166
" />
<path d="M33379523 76129642
L32379523 76129642
" />
<path d="M33379523 75558214
L32808095 75986785
" />
<path d="M32379523 75558214
L32950952 76129642
" />
</g><text x="31022143.000000" y="80447500.000000"
textLength="1147381.000000" font-size="1333333.000000" lengthAdjust="spacingAndGlyphs"
text-anchor="middle" opacity="0">1</text>
<g class="stroked-text"><desc>1</desc>
<path d="M31307857 80399880
L30736428 80399880
" />
<path d="M31022143 80399880
L31022143 79399880
L30926904 79542738
L30831666 79637976
L30736428 79685595
" />
</g><text x="22132143.000000" y="20022500.000000"
textLength="2147381.000000" font-size="1333333.000000" lengthAdjust="spacingAndGlyphs"
text-anchor="middle" opacity="0">R2</text>
<g class="stroked-text"><desc>R2</desc>
<path d="M21965476 19974880
L21632143 19498690
" />
<path d="M21394047 19974880
L21394047 18974880
L21775000 18974880
L21870238 19022500
L21917857 19070119
L21965476 19165357
L21965476 19308214
L21917857 19403452
L21870238 19451071
L21775000 19498690
L21394047 19498690
" />
<path d="M22346428 19070119
L22394047 19022500
L22489285 18974880
L22727381 18974880
L22822619 19022500
L22870238 19070119
L22917857 19165357
L22917857 19260595
L22870238 19403452
L22298809 19974880
L22917857 19974880
" />
</g><text x="32419143.000000" y="39172500.000000"
textLength="2147381.000000" font-size="1333333.000000" lengthAdjust="spacingAndGlyphs"
text-anchor="middle" opacity="0">R8</text>
<g class="stroked-text"><desc>R8</desc>
<path d="M32252476 39124880
L31919143 38648690
" />
<path d="M31681047 39124880
L31681047 38124880
L32062000 38124880
L32157238 38172500
L32204857 38220119
L32252476 38315357
L32252476 38458214
L32204857 38553452
L32157238 38601071
L32062000 38648690
L31681047 38648690
" />
<path d="M32823904 38553452
L32728666 38505833
L32681047 38458214
L32633428 38362976
L32633428 38315357
L32681047 38220119
L32728666 38172500
L32823904 38124880
L33014381 38124880
L33109619 38172500
L33157238 38220119
L33204857 38315357
L33204857 38362976
L33157238 38458214
L33109619 38505833
L33014381 38553452
L32823904 38553452
L32728666 38601071
L32681047 38648690
L32633428 38743928
L32633428 38934404
L32681047 39029642
L32728666 39077261
L32823904 39124880
L33014381 39124880
L33109619 39077261
L33157238 39029642
L33204857 38934404
L33204857 38743928
L33157238 38648690
L33109619 38601071
L33014381 38553452
" />
</g><g transform="rotate(-90.000000 27847143.000000 25337500.000000)">
<text x="27847143.000000" y="25837500.000000"
textLength="3099762.000000" font-size="1333333.000000" lengthAdjust="spacingAndGlyphs"
text-anchor="middle" opacity="0">C14</text>
</g>
<g class="stroked-text"><desc>C14</desc>
<path d="M28204285 25980357
L28251904 26027976
L28299523 26170833
L28299523 26266071
L28251904 26408928
L28156666 26504166
L28061428 26551785
L27870952 26599404
L27728095 26599404
L27537619 26551785
L27442381 26504166
L27347143 26408928
L27299523 26266071
L27299523 26170833
L27347143 26027976
L27394762 25980357
" />
<path d="M28299523 25027976
L28299523 25599404
" />
<path d="M28299523 25313690
L27299523 25313690
L27442381 25408928
L27537619 25504166
L27585238 25599404
" />
<path d="M27632857 24170833
L28299523 24170833
" />
<path d="M27251904 24408928
L27966190 24647023
L27966190 24027976
" />
</g><text x="32419143.000000" y="37902500.000000"
textLength="2147381.000000" font-size="1333333.000000" lengthAdjust="spacingAndGlyphs"
text-anchor="middle" opacity="0">C4</text>
<g class="stroked-text"><desc>C4</desc>
<path d="M32252476 37759642
L32204857 37807261
L32062000 37854880
L31966762 37854880
L31823904 37807261
L31728666 37712023
L31681047 37616785
L31633428 37426309
L31633428 37283452
L31681047 37092976
L31728666 36997738
L31823904 36902500
L31966762 36854880
L32062000 36854880
L32204857 36902500
L32252476 36950119
" />
<path d="M33109619 37188214
L33109619 37854880
" />
<path d="M32871523 36807261
L32633428 37521547
L33252476 37521547
" />
</g><g transform="rotate(-90.000000 17687143.000000 45022500.000000)">
<text x="17687143.000000" y="45522500.000000"
textLength="2147381.000000" font-size="1333333.000000" lengthAdjust="spacingAndGlyphs"
text-anchor="middle" opacity="0">C8</text>
</g>
<g class="stroked-text"><desc>C8</desc>
<path d="M18044285 45189166
L18091904 45236785
L18139523 45379642
L18139523 45474880
L18091904 45617738
L17996666 45712976
L17901428 45760595
L17710952 45808214
L17568095 45808214
L17377619 45760595
L17282381 45712976
L17187143 45617738
L17139523 45474880
L17139523 45379642
L17187143 45236785
L17234762 45189166
" />
<path d="M17568095 44617738
L17520476 44712976
L17472857 44760595
L17377619 44808214
L17330000 44808214
L17234762 44760595
L17187143 44712976
L17139523 44617738
L17139523 44427261
L17187143 44332023
L17234762 44284404
L17330000 44236785
L17377619 44236785
L17472857 44284404
L17520476 44332023
L17568095 44427261
L17568095 44617738
L17615714 44712976
L17663333 44760595
L17758571 44808214
L17949047 44808214
L18044285 44760595
L18091904 44712976
L18139523 44617738
L18139523 44427261
L18091904 44332023
L18044285 44284404
L17949047 44236785
L17758571 44236785
L17663333 44284404
L17615714 44332023
L17568095 44427261
" />
</g><g transform="rotate(-90.000000 25307143.000000 43752500.000000)">
<text x="25307143.000000" y="44252500.000000"
textLength="3099762.000000" font-size="1333333.000000" lengthAdjust="spacingAndGlyphs"
text-anchor="middle" opacity="0">C12</text>
</g>
<g class="stroked-text"><desc>C12</desc>
<path d="M25664285 44395357
L25711904 44442976
L25759523 44585833
L25759523 44681071
L25711904 44823928
L25616666 44919166
L25521428 44966785
L25330952 45014404
L25188095 45014404
L24997619 44966785
L24902381 44919166
L24807143 44823928
L24759523 44681071
L24759523 44585833
L24807143 44442976
L24854762 44395357
" />
<path d="M25759523 43442976
L25759523 44014404
" />
<path d="M25759523 43728690
L24759523 43728690
L24902381 43823928
L24997619 43919166
L25045238 44014404
" />
<path d="M24854762 43062023
L24807143 43014404
L24759523 42919166
L24759523 42681071
L24807143 42585833
L24854762 42538214
L24950000 42490595
L25045238 42490595
L25188095 42538214
L25759523 43109642
L25759523 42490595
" />
</g><g transform="rotate(-90.000000 22767143.000000 70422500.000000)">
<text x="22767143.000000" y="70922500.000000"
textLength="2147381.000000" font-size="1333333.000000" lengthAdjust="spacingAndGlyphs"
text-anchor="middle" opacity="0">C9</text>
</g>
<g class="stroked-text"><desc>C9</desc>
<path d="M23124285 70589166
L23171904 70636785
L23219523 70779642
L23219523 70874880
L23171904 71017738
L23076666 71112976
L22981428 71160595
L22790952 71208214
L22648095 71208214
L22457619 71160595
L22362381 71112976
L22267143 71017738
L22219523 70874880
L22219523 70779642
L22267143 70636785
L22314762 70589166
" />
<path d="M23219523 70112976
L23219523 69922500
L23171904 69827261
L23124285 69779642
L22981428 69684404
L22790952 69636785
L22410000 69636785
L22314762 69684404
L22267143 69732023
L22219523 69827261
L22219523 70017738
L22267143 70112976
L22314762 70160595
L22410000 70208214
L22648095 70208214
L22743333 70160595
L22790952 70112976
L22838571 70017738
L22838571 69827261
L22790952 69732023
L22743333 69684404
L22648095 69636785
" />
</g><text x="10067143.000000" y="58857500.000000"
textLength="3099762.000000" font-size="1333333.000000" lengthAdjust="spacingAndGlyphs"
text-anchor="middle" opacity="0">R11</text>
<g class="stroked-text"><desc>R11</desc>
<path d="M9424285 58809880
L9090952 58333690
" />
<path d="M8852857 58809880
L8852857 57809880
L9233809 57809880
L9329047 57857500
L9376666 57905119
L9424285 58000357
L9424285 58143214
L9376666 58238452
L9329047 58286071
L9233809 58333690
L8852857 58333690
" />
<path d="M10376666 58809880
L9805238 58809880
" />
<path d="M10090952 58809880
L10090952 57809880
L9995714 57952738
L9900476 58047976
L9805238 58095595
" />
<path d="M11329047 58809880
L10757619 58809880
" />
<path d="M11043333 58809880
L11043333 57809880
L10948095 57952738
L10852857 58047976
L10757619 58095595
" />
</g><g transform="rotate(-90.000000 24037143.000000 25337500.000000)">
<text x="24037143.000000" y="25837500.000000"
textLength="3099762.000000" font-size="1333333.000000" lengthAdjust="spacingAndGlyphs"
text-anchor="middle" opacity="0">C20</text>
</g>
<g class="stroked-text"><desc>C20</desc>
<path d="M24394285 25980357
L24441904 26027976
L24489523 26170833
L24489523 26266071
L24441904 26408928
L24346666 26504166
L24251428 26551785
L24060952 26599404
L23918095 26599404
L23727619 26551785
L23632381 26504166
L23537143 26408928
L23489523 26266071
L23489523 26170833
L23537143 26027976
L23584762 25980357
" />
<path d="M23584762 25599404
L23537143 25551785
L23489523 25456547
L23489523 25218452
L23537143 25123214
L23584762 25075595
L23680000 25027976
L23775238 25027976
L23918095 25075595
L24489523 25647023
L24489523 25027976
" />
<path d="M23489523 24408928
L23489523 24313690
L23537143 24218452
L23584762 24170833
L23680000 24123214
L23870476 24075595
L24108571 24075595
L24299047 24123214
L24394285 24170833
L24441904 24218452
L24489523 24313690
L24489523 24408928
L24441904 24504166
L24394285 24551785
L24299047 24599404
L24108571 24647023
L23870476 24647023
L23680000 24599404
L23584762 24551785
L23537143 24504166
L23489523 24408928
" />
</g><g transform="rotate(-90.000000 25307143.000000 25337500.000000)">
<text x="25307143.000000" y="25837500.000000"
textLength="2147381.000000" font-size="1333333.000000" lengthAdjust="spacingAndGlyphs"
text-anchor="middle" opacity="0">R4</text>
</g>
<g class="stroked-text"><desc>R4</desc>
<path d="M25759523 25504166
L25283333 25837500
" />
<path d="M25759523 26075595
L24759523 26075595
L24759523 25694642
L24807143 25599404
L24854762 25551785
L24950000 25504166
L25092857 25504166
L25188095 25551785
L25235714 25599404
L25283333 25694642
L25283333 26075595
" />
<path d="M25092857 24647023
L25759523 24647023
" />
<path d="M24711904 24885119
L25426190 25123214
L25426190 24504166
" />
</g><g transform="rotate(-90.000000 8137143.000000 35497500.000000)">
<text x="8137143.000000" y="35997500.000000"
textLength="3242619.000000" font-size="1333333.000000" lengthAdjust="spacingAndGlyphs"
text-anchor="middle" opacity="0">SW4</text>
</g>
<g class="stroked-text"><desc>SW4</desc>
<path d="M8541904 36830833
L8589523 36687976
L8589523 36449880
L8541904 36354642
L8494285 36307023
L8399047 36259404
L8303809 36259404
L8208571 36307023
L8160952 36354642
L8113333 36449880
L8065714 36640357
L8018095 36735595
L7970476 36783214
L7875238 36830833
L7780000 36830833
L7684762 36783214
L7637143 36735595
L7589523 36640357
L7589523 36402261
L7637143 36259404
" />
<path d="M7589523 35926071
L8589523 35687976
L7875238 35497500
L8589523 35307023
L7589523 35068928
" />
<path d="M7922857 34259404
L8589523 34259404
" />
<path d="M7541904 34497500
L8256190 34735595
L8256190 34116547
" />
</g><g transform="rotate(-90.000000 17687143.000000 75610336.000000)">
<text x="17687143.000000" y="76110336.000000"
textLength="2147381.000000" font-size="1333333.000000" lengthAdjust="spacingAndGlyphs"
text-anchor="middle" opacity="0">C7</text>
</g>
<g class="stroked-text"><desc>C7</desc>
<path d="M18044285 75777002
L18091904 75824621
L18139523 75967478
L18139523 76062716
L18091904 76205574
L17996666 76300812
L17901428 76348431
L17710952 76396050
L17568095 76396050
L17377619 76348431
L17282381 76300812
L17187143 76205574
L17139523 76062716
L17139523 75967478
L17187143 75824621
L17234762 75777002
" />
<path d="M17139523 75443669
L17139523 74777002
L18139523 75205574
" />
</g><g transform="rotate(-90.000000 13492143.000000 25337500.000000)">
<text x="13492143.000000" y="25837500.000000"
textLength="2195000.000000" font-size="1333333.000000" lengthAdjust="spacingAndGlyphs"
text-anchor="middle" opacity="0">U3</text>
</g>
<g class="stroked-text"><desc>U3</desc>
<path d="M12944523 26099404
L13754047 26099404
L13849285 26051785
L13896904 26004166
L13944523 25908928
L13944523 25718452
L13896904 25623214
L13849285 25575595
L13754047 25527976
L12944523 25527976
" />
<path d="M12944523 25147023
L12944523 24527976
L13325476 24861309
L13325476 24718452
L13373095 24623214
L13420714 24575595
L13515952 24527976
L13754047 24527976
L13849285 24575595
L13896904 24623214
L13944523 24718452
L13944523 25004166
L13896904 25099404
L13849285 25147023
" />
</g><text x="32927143.000000" y="70287500.000000"
textLength="2147381.000000" font-size="1333333.000000" lengthAdjust="spacingAndGlyphs"
text-anchor="middle" opacity="0">C3</text>
<g class="stroked-text"><desc>C3</desc>
<path d="M32760476 70144642
L32712857 70192261
L32570000 70239880
L32474762 70239880
L32331904 70192261
L32236666 70097023
L32189047 70001785
L32141428 69811309
L32141428 69668452
L32189047 69477976
L32236666 69382738
L32331904 69287500
L32474762 69239880
L32570000 69239880
L32712857 69287500
L32760476 69335119
" />
<path d="M33093809 69239880
L33712857 69239880
L33379523 69620833
L33522381 69620833
L33617619 69668452
L33665238 69716071
L33712857 69811309
L33712857 70049404
L33665238 70144642
L33617619 70192261
L33522381 70239880
L33236666 70239880
L33141428 70192261
L33093809 70144642
" />
</g><g transform="rotate(-90.000000 11972143.000000 52534664.000000)">
<text x="11972143.000000" y="53034664.000000"
textLength="2147381.000000" font-size="1333333.000000" lengthAdjust="spacingAndGlyphs"
text-anchor="middle" opacity="0">C5</text>
</g>
<g class="stroked-text"><desc>C5</desc>
<path d="M12329285 52701330
L12376904 52748949
L12424523 52891806
L12424523 52987044
L12376904 53129902
L12281666 53225140
L12186428 53272759
L11995952 53320378
L11853095 53320378
L11662619 53272759
L11567381 53225140
L11472143 53129902
L11424523 52987044
L11424523 52891806
L11472143 52748949
L11519762 52701330
" />
<path d="M11424523 51796568
L11424523 52272759
L11900714 52320378
L11853095 52272759
L11805476 52177521
L11805476 51939425
L11853095 51844187
L11900714 51796568
L11995952 51748949
L12234047 51748949
L12329285 51796568
L12376904 51844187
L12424523 51939425
L12424523 52177521
L12376904 52272759
L12329285 52320378
" />
</g><g transform="rotate(-90.000000 25307143.000000 74867500.000000)">
<text x="25307143.000000" y="75367500.000000"
textLength="3099762.000000" font-size="1333333.000000" lengthAdjust="spacingAndGlyphs"
text-anchor="middle" opacity="0">C11</text>
</g>
<g class="stroked-text"><desc>C11</desc>
<path d="M25664285 75510357
L25711904 75557976
L25759523 75700833
L25759523 75796071
L25711904 75938928
L25616666 76034166
L25521428 76081785
L25330952 76129404
L25188095 76129404
L24997619 76081785
L24902381 76034166
L24807143 75938928
L24759523 75796071
L24759523 75700833
L24807143 75557976
L24854762 75510357
" />
<path d="M25759523 74557976
L25759523 75129404
" />
<path d="M25759523 74843690
L24759523 74843690
L24902381 74938928
L24997619 75034166
L25045238 75129404
" />
<path d="M25759523 73605595
L25759523 74177023
" />
<path d="M25759523 73891309
L24759523 73891309
L24902381 73986547
L24997619 74081785
L25045238 74177023
" />
</g><g transform="rotate(-90.000000 30387143.000000 55817500.000000)">
<text x="30387143.000000" y="56317500.000000"
textLength="3099762.000000" font-size="1333333.000000" lengthAdjust="spacingAndGlyphs"
text-anchor="middle" opacity="0">C19</text>
</g>
<g class="stroked-text"><desc>C19</desc>
<path d="M30744285 56460357
L30791904 56507976
L30839523 56650833
L30839523 56746071
L30791904 56888928
L30696666 56984166
L30601428 57031785
L30410952 57079404
L30268095 57079404
L30077619 57031785
L29982381 56984166
L29887143 56888928
L29839523 56746071
L29839523 56650833
L29887143 56507976
L29934762 56460357
" />
<path d="M30839523 55507976
L30839523 56079404
" />
<path d="M30839523 55793690
L29839523 55793690
L29982381 55888928
L30077619 55984166
L30125238 56079404
" />
<path d="M30839523 55031785
L30839523 54841309
L30791904 54746071
L30744285 54698452
L30601428 54603214
L30410952 54555595
L30030000 54555595
L29934762 54603214
L29887143 54650833
L29839523 54746071
L29839523 54936547
L29887143 55031785
L29934762 55079404
L30030000 55127023
L30268095 55127023
L30363333 55079404
L30410952 55031785
L30458571 54936547
L30458571 54746071
L30410952 54650833
L30363333 54603214
L30268095 54555595
" />
</g><text x="32546143.000000" y="62413500.000000"
textLength="3099762.000000" font-size="1333333.000000" lengthAdjust="spacingAndGlyphs"
text-anchor="middle" opacity="0">C28</text>
<g class="stroked-text"><desc>C28</desc>
<path d="M31903285 62270642
L31855666 62318261
L31712809 62365880
L31617571 62365880
L31474714 62318261
L31379476 62223023
L31331857 62127785
L31284238 61937309
L31284238 61794452
L31331857 61603976
L31379476 61508738
L31474714 61413500
L31617571 61365880
L31712809 61365880
L31855666 61413500
L31903285 61461119
" />
<path d="M32284238 61461119
L32331857 61413500
L32427095 61365880
L32665190 61365880
L32760428 61413500
L32808047 61461119
L32855666 61556357
L32855666 61651595
L32808047 61794452
L32236619 62365880
L32855666 62365880
" />
<path d="M33427095 61794452
L33331857 61746833
L33284238 61699214
L33236619 61603976
L33236619 61556357
L33284238 61461119
L33331857 61413500
L33427095 61365880
L33617571 61365880
L33712809 61413500
L33760428 61461119
L33808047 61556357
L33808047 61603976
L33760428 61699214
L33712809 61746833
L33617571 61794452
L33427095 61794452
L33331857 61842071
L33284238 61889690
L33236619 61984928
L33236619 62175404
L33284238 62270642
L33331857 62318261
L33427095 62365880
L33617571 62365880
L33712809 62318261
L33760428 62270642
L33808047 62175404
L33808047 61984928
L33760428 61889690
L33712809 61842071
L33617571 61794452
" />
</g><g transform="rotate(-90.000000 28067143.000000 72962500.000000)">
<text x="28067143.000000" y="73462500.000000"
textLength="1909286.000000" font-size="1333333.000000" lengthAdjust="spacingAndGlyphs"
text-anchor="middle" opacity="0">J2</text>
</g>
<g class="stroked-text"><desc>J2</desc>
<path d="M27519523 73295833
L28233809 73295833
L28376666 73343452
L28471904 73438690
L28519523 73581547
L28519523 73676785
" />
<path d="M27614762 72867261
L27567143 72819642
L27519523 72724404
L27519523 72486309
L27567143 72391071
L27614762 72343452
L27710000 72295833
L27805238 72295833
L27948095 72343452
L28519523 72914880
L28519523 72295833
" />
</g><g transform="rotate(-90.000000 33562143.000000 82487500.000000)">
<text x="33562143.000000" y="82987500.000000"
textLength="1909286.000000" font-size="1333333.000000" lengthAdjust="spacingAndGlyphs"
text-anchor="middle" opacity="0">J4</text>
</g>
<g class="stroked-text"><desc>J4</desc>
<path d="M33014523 82820833
L33728809 82820833
L33871666 82868452
L33966904 82963690
L34014523 83106547
L34014523 83201785
" />
<path d="M33347857 81916071
L34014523 81916071
" />
<path d="M32966904 82154166
L33681190 82392261
L33681190 81773214
" />
</g><g transform="rotate(-90.000000 29117143.000000 25337500.000000)">
<text x="29117143.000000" y="25837500.000000"
textLength="3099762.000000" font-size="1333333.000000" lengthAdjust="spacingAndGlyphs"
text-anchor="middle" opacity="0">C16</text>
</g>
<g class="stroked-text"><desc>C16</desc>
<path d="M29474285 25980357
L29521904 26027976
L29569523 26170833
L29569523 26266071
L29521904 26408928
L29426666 26504166
L29331428 26551785
L29140952 26599404
L28998095 26599404
L28807619 26551785
L28712381 26504166
L28617143 26408928
L28569523 26266071
L28569523 26170833
L28617143 26027976
L28664762 25980357
" />
<path d="M29569523 25027976
L29569523 25599404
" />
<path d="M29569523 25313690
L28569523 25313690
L28712381 25408928
L28807619 25504166
L28855238 25599404
" />
<path d="M28569523 24170833
L28569523 24361309
L28617143 24456547
L28664762 24504166
L28807619 24599404
L28998095 24647023
L29379047 24647023
L29474285 24599404
L29521904 24551785
L29569523 24456547
L29569523 24266071
L29521904 24170833
L29474285 24123214
L29379047 24075595
L29140952 24075595
L29045714 24123214
L28998095 24170833
L28950476 24266071
L28950476 24456547
L28998095 24551785
L29045714 24599404
L29140952 24647023
" />
</g><text x="32292143.000000" y="32441500.000000"
textLength="3099762.000000" font-size="1333333.000000" lengthAdjust="spacingAndGlyphs"
text-anchor="middle" opacity="0">C18</text>
<g class="stroked-text"><desc>C18</desc>
<path d="M31649285 32298642
L31601666 32346261
L31458809 32393880
L31363571 32393880
L31220714 32346261
L31125476 32251023
L31077857 32155785
L31030238 31965309
L31030238 31822452
L31077857 31631976
L31125476 31536738
L31220714 31441500
L31363571 31393880
L31458809 31393880
L31601666 31441500
L31649285 31489119
" />
<path d="M32601666 32393880
L32030238 32393880
" />
<path d="M32315952 32393880
L32315952 31393880
L32220714 31536738
L32125476 31631976
L32030238 31679595
" />
<path d="M33173095 31822452
L33077857 31774833
L33030238 31727214
L32982619 31631976
L32982619 31584357
L33030238 31489119
L33077857 31441500
L33173095 31393880
L33363571 31393880
L33458809 31441500
L33506428 31489119
L33554047 31584357
L33554047 31631976
L33506428 31727214
L33458809 31774833
L33363571 31822452
L33173095 31822452
L33077857 31870071
L33030238 31917690
L32982619 32012928
L32982619 32203404
L33030238 32298642
L33077857 32346261
L33173095 32393880
L33363571 32393880
L33458809 32346261
L33506428 32298642
L33554047 32203404
L33554047 32012928
L33506428 31917690
L33458809 31870071
L33363571 31822452
" />
</g><text x="24672143.000000" y="18147500.000000"
textLength="1909286.000000" font-size="1333333.000000" lengthAdjust="spacingAndGlyphs"
text-anchor="middle" opacity="0">J1</text>
<g class="stroked-text"><desc>J1</desc>
<path d="M24338809 17099880
L24338809 17814166
L24291190 17957023
L24195952 18052261
L24053095 18099880
L23957857 18099880
" />
<path d="M25338809 18099880
L24767381 18099880
" />
<path d="M25053095 18099880
L25053095 17099880
L24957857 17242738
L24862619 17337976
L24767381 17385595
" />
</g><g transform="rotate(-90.000000 8137143.000000 65342500.000000)">
<text x="8137143.000000" y="65842500.000000"
textLength="3242619.000000" font-size="1333333.000000" lengthAdjust="spacingAndGlyphs"
text-anchor="middle" opacity="0">SW3</text>
</g>
<g class="stroked-text"><desc>SW3</desc>
<path d="M8541904 66675833
L8589523 66532976
L8589523 66294880
L8541904 66199642
L8494285 66152023
L8399047 66104404
L8303809 66104404
L8208571 66152023
L8160952 66199642
L8113333 66294880
L8065714 66485357
L8018095 66580595
L7970476 66628214
L7875238 66675833
L7780000 66675833
L7684762 66628214
L7637143 66580595
L7589523 66485357
L7589523 66247261
L7637143 66104404
" />
<path d="M7589523 65771071
L8589523 65532976
L7875238 65342500
L8589523 65152023
L7589523 64913928
" />
<path d="M7589523 64628214
L7589523 64009166
L7970476 64342500
L7970476 64199642
L8018095 64104404
L8065714 64056785
L8160952 64009166
L8399047 64009166
L8494285 64056785
L8541904 64104404
L8589523 64199642
L8589523 64485357
L8541904 64580595
L8494285 64628214
" />
</g><text x="24672143.000000" y="30542500.000000"
textLength="2195000.000000" font-size="1333333.000000" lengthAdjust="spacingAndGlyphs"
text-anchor="middle" opacity="0">U5</text>
<g class="stroked-text"><desc>U5</desc>
<path d="M23910238 29494880
L23910238 30304404
L23957857 30399642
L24005476 30447261
L24100714 30494880
L24291190 30494880
L24386428 30447261
L24434047 30399642
L24481666 30304404
L24481666 29494880
" />
<path d="M25434047 29494880
L24957857 29494880
L24910238 29971071
L24957857 29923452
L25053095 29875833
L25291190 29875833
L25386428 29923452
L25434047 29971071
L25481666 30066309
L25481666 30304404
L25434047 30399642
L25386428 30447261
L25291190 30494880
L25053095 30494880
L24957857 30447261
L24910238 30399642
" />
</g><text x="10067143.000000" y="29647500.000000"
textLength="3099762.000000" font-size="1333333.000000" lengthAdjust="spacingAndGlyphs"
text-anchor="middle" opacity="0">R10</text>
<g class="stroked-text"><desc>R10</desc>
<path d="M9424285 29599880
L9090952 29123690
" />
<path d="M8852857 29599880
L8852857 28599880
L9233809 28599880
L9329047 28647500
L9376666 28695119
L9424285 28790357
L9424285 28933214
L9376666 29028452
L9329047 29076071
L9233809 29123690
L8852857 29123690
" />
<path d="M10376666 29599880
L9805238 29599880
" />
<path d="M10090952 29599880
L10090952 28599880
L9995714 28742738
L9900476 28837976
L9805238 28885595
" />
<path d="M10995714 28599880
L11090952 28599880
L11186190 28647500
L11233809 28695119
L11281428 28790357
L11329047 28980833
L11329047 29218928
L11281428 29409404
L11233809 29504642
L11186190 29552261
L11090952 29599880
L10995714 29599880
L10900476 29552261
L10852857 29504642
L10805238 29409404
L10757619 29218928
L10757619 28980833
L10805238 28790357
L10852857 28695119
L10900476 28647500
L10995714 28599880
" />
</g><g transform="rotate(-90.000000 24037143.000000 55817500.000000)">
<text x="24037143.000000" y="56317500.000000"
textLength="3099762.000000" font-size="1333333.000000" lengthAdjust="spacingAndGlyphs"
text-anchor="middle" opacity="0">C22</text>
</g>
<g class="stroked-text"><desc>C22</desc>
<path d="M24394285 56460357
L24441904 56507976
L24489523 56650833
L24489523 56746071
L24441904 56888928
L24346666 56984166
L24251428 57031785
L24060952 57079404
L23918095 57079404
L23727619 57031785
L23632381 56984166
L23537143 56888928
L23489523 56746071
L23489523 56650833
L23537143 56507976
L23584762 56460357
" />
<path d="M23584762 56079404
L23537143 56031785
L23489523 55936547
L23489523 55698452
L23537143 55603214
L23584762 55555595
L23680000 55507976
L23775238 55507976
L23918095 55555595
L24489523 56127023
L24489523 55507976
" />
<path d="M23584762 55127023
L23537143 55079404
L23489523 54984166
L23489523 54746071
L23537143 54650833
L23584762 54603214
L23680000 54555595
L23775238 54555595
L23918095 54603214
L24489523 55174642
L24489523 54555595
" />
</g><text x="10067143.000000" y="60127500.000000"
textLength="2147381.000000" font-size="1333333.000000" lengthAdjust="spacingAndGlyphs"
text-anchor="middle" opacity="0">R9</text>
<g class="stroked-text"><desc>R9</desc>
<path d="M9900476 60079880
L9567143 59603690
" />
<path d="M9329047 60079880
L9329047 59079880
L9710000 59079880
L9805238 59127500
L9852857 59175119
L9900476 59270357
L9900476 59413214
L9852857 59508452
L9805238 59556071
L9710000 59603690
L9329047 59603690
" />
<path d="M10376666 60079880
L10567143 60079880
L10662381 60032261
L10710000 59984642
L10805238 59841785
L10852857 59651309
L10852857 59270357
L10805238 59175119
L10757619 59127500
L10662381 59079880
L10471904 59079880
L10376666 59127500
L10329047 59175119
L10281428 59270357
L10281428 59508452
L10329047 59603690
L10376666 59651309
L10471904 59698928
L10662381 59698928
L10757619 59651309
L10805238 59603690
L10852857 59508452
" />
</g><text x="32927143.000000" y="67747500.000000"
textLength="3099762.000000" font-size="1333333.000000" lengthAdjust="spacingAndGlyphs"
text-anchor="middle" opacity="0">C26</text>
<g class="stroked-text"><desc>C26</desc>
<path d="M32284285 67604642
L32236666 67652261
L32093809 67699880
L31998571 67699880
L31855714 67652261
L31760476 67557023
L31712857 67461785
L31665238 67271309
L31665238 67128452
L31712857 66937976
L31760476 66842738
L31855714 66747500
L31998571 66699880
L32093809 66699880
L32236666 66747500
L32284285 66795119
" />
<path d="M32665238 66795119
L32712857 66747500
L32808095 66699880
L33046190 66699880
L33141428 66747500
L33189047 66795119
L33236666 66890357
L33236666 66985595
L33189047 67128452
L32617619 67699880
L33236666 67699880
" />
<path d="M34093809 66699880
L33903333 66699880
L33808095 66747500
L33760476 66795119
L33665238 66937976
L33617619 67128452
L33617619 67509404
L33665238 67604642
L33712857 67652261
L33808095 67699880
L33998571 67699880
L34093809 67652261
L34141428 67604642
L34189047 67509404
L34189047 67271309
L34141428 67176071
L34093809 67128452
L33998571 67080833
L33808095 67080833
L33712857 67128452
L33665238 67176071
L33617619 67271309
" />
</g><text x="32927143.000000" y="36632500.000000"
textLength="3099762.000000" font-size="1333333.000000" lengthAdjust="spacingAndGlyphs"
text-anchor="middle" opacity="0">C21</text>
<g class="stroked-text"><desc>C21</desc>
<path d="M32284285 36489642
L32236666 36537261
L32093809 36584880
L31998571 36584880
L31855714 36537261
L31760476 36442023
L31712857 36346785
L31665238 36156309
L31665238 36013452
L31712857 35822976
L31760476 35727738
L31855714 35632500
L31998571 35584880
L32093809 35584880
L32236666 35632500
L32284285 35680119
" />
<path d="M32665238 35680119
L32712857 35632500
L32808095 35584880
L33046190 35584880
L33141428 35632500
L33189047 35680119
L33236666 35775357
L33236666 35870595
L33189047 36013452
L32617619 36584880
L33236666 36584880
" />
<path d="M34189047 36584880
L33617619 36584880
" />
<path d="M33903333 36584880
L33903333 35584880
L33808095 35727738
L33712857 35822976
L33617619 35870595
" />
</g><text x="24672143.000000" y="77907500.000000"
textLength="2004524.000000" font-size="1333333.000000" lengthAdjust="spacingAndGlyphs"
text-anchor="middle" opacity="0">Y1</text>
<g class="stroked-text"><desc>Y1</desc>
<path d="M24195952 77383690
L24195952 77859880
" />
<path d="M23862619 76859880
L24195952 77383690
L24529285 76859880
" />
<path d="M25386428 77859880
L24815000 77859880
" />
<path d="M25100714 77859880
L25100714 76859880
L25005476 77002738
L24910238 77097976
L24815000 77145595
" />
</g><g transform="rotate(-90.000000 26577143.000000 55817500.000000)">
<text x="26577143.000000" y="56317500.000000"
textLength="2147381.000000" font-size="1333333.000000" lengthAdjust="spacingAndGlyphs"
text-anchor="middle" opacity="0">R5</text>
</g>
<g class="stroked-text"><desc>R5</desc>
<path d="M27029523 55984166
L26553333 56317500
" />
<path d="M27029523 56555595
L26029523 56555595
L26029523 56174642
L26077143 56079404
L26124762 56031785
L26220000 55984166
L26362857 55984166
L26458095 56031785
L26505714 56079404
L26553333 56174642
L26553333 56555595
" />
<path d="M26029523 55079404
L26029523 55555595
L26505714 55603214
L26458095 55555595
L26410476 55460357
L26410476 55222261
L26458095 55127023
L26505714 55079404
L26600952 55031785
L26839047 55031785
L26934285 55079404
L26981904 55127023
L27029523 55222261
L27029523 55460357
L26981904 55555595
L26934285 55603214
" />
</g><text x="20862143.000000" y="72292500.000000"
textLength="3099762.000000" font-size="1333333.000000" lengthAdjust="spacingAndGlyphs"
text-anchor="middle" opacity="0">R13</text>
<g class="stroked-text"><desc>R13</desc>
<path d="M20219285 72244880
L19885952 71768690
" />
<path d="M19647857 72244880
L19647857 71244880
L20028809 71244880
L20124047 71292500
L20171666 71340119
L20219285 71435357
L20219285 71578214
L20171666 71673452
L20124047 71721071
L20028809 71768690
L19647857 71768690
" />
<path d="M21171666 72244880
L20600238 72244880
" />
<path d="M20885952 72244880
L20885952 71244880
L20790714 71387738
L20695476 71482976
L20600238 71530595
" />
<path d="M21505000 71244880
L22124047 71244880
L21790714 71625833
L21933571 71625833
L22028809 71673452
L22076428 71721071
L22124047 71816309
L22124047 72054404
L22076428 72149642
L22028809 72197261
L21933571 72244880
L21647857 72244880
L21552619 72197261
L21505000 72149642
" />
</g><g transform="rotate(-90.000000 24037143.000000 74867500.000000)">
<text x="24037143.000000" y="75367500.000000"
textLength="3099762.000000" font-size="1333333.000000" lengthAdjust="spacingAndGlyphs"
text-anchor="middle" opacity="0">C25</text>
</g>
<g class="stroked-text"><desc>C25</desc>
<path d="M24394285 75510357
L24441904 75557976
L24489523 75700833
L24489523 75796071
L24441904 75938928
L24346666 76034166
L24251428 76081785
L24060952 76129404
L23918095 76129404
L23727619 76081785
L23632381 76034166
L23537143 75938928
L23489523 75796071
L23489523 75700833
L23537143 75557976
L23584762 75510357
" />
<path d="M23584762 75129404
L23537143 75081785
L23489523 74986547
L23489523 74748452
L23537143 74653214
L23584762 74605595
L23680000 74557976
L23775238 74557976
L23918095 74605595
L24489523 75177023
L24489523 74557976
" />
<path d="M23489523 73653214
L23489523 74129404
L23965714 74177023
L23918095 74129404
L23870476 74034166
L23870476 73796071
L23918095 73700833
L23965714 73653214
L24060952 73605595
L24299047 73605595
L24394285 73653214
L24441904 73700833
L24489523 73796071
L24489523 74034166
L24441904 74129404
L24394285 74177023
" />
</g><text x="18322143.000000" y="42347500.000000"
textLength="3099762.000000" font-size="1333333.000000" lengthAdjust="spacingAndGlyphs"
text-anchor="middle" opacity="0">R14</text>
<g class="stroked-text"><desc>R14</desc>
<path d="M17679285 42299880
L17345952 41823690
" />
<path d="M17107857 42299880
L17107857 41299880
L17488809 41299880
L17584047 41347500
L17631666 41395119
L17679285 41490357
L17679285 41633214
L17631666 41728452
L17584047 41776071
L17488809 41823690
L17107857 41823690
" />
<path d="M18631666 42299880
L18060238 42299880
" />
<path d="M18345952 42299880
L18345952 41299880
L18250714 41442738
L18155476 41537976
L18060238 41585595
" />
<path d="M19488809 41633214
L19488809 42299880
" />
<path d="M19250714 41252261
L19012619 41966547
L19631666 41966547
" />
</g><g transform="rotate(-90.000000 11972143.000000 22162500.000000)">
<text x="11972143.000000" y="22662500.000000"
textLength="2147381.000000" font-size="1333333.000000" lengthAdjust="spacingAndGlyphs"
text-anchor="middle" opacity="0">C6</text>
</g>
<g class="stroked-text"><desc>C6</desc>
<path d="M12329285 22329166
L12376904 22376785
L12424523 22519642
L12424523 22614880
L12376904 22757738
L12281666 22852976
L12186428 22900595
L11995952 22948214
L11853095 22948214
L11662619 22900595
L11567381 22852976
L11472143 22757738
L11424523 22614880
L11424523 22519642
L11472143 22376785
L11519762 22329166
" />
<path d="M11424523 21472023
L11424523 21662500
L11472143 21757738
L11519762 21805357
L11662619 21900595
L11853095 21948214
L12234047 21948214
L12329285 21900595
L12376904 21852976
L12424523 21757738
L12424523 21567261
L12376904 21472023
L12329285 21424404
L12234047 21376785
L11995952 21376785
L11900714 21424404
L11853095 21472023
L11805476 21567261
L11805476 21757738
L11853095 21852976
L11900714 21900595
L11995952 21948214
" />
</g><text x="21497143.000000" y="48697500.000000"
textLength="2004524.000000" font-size="1333333.000000" lengthAdjust="spacingAndGlyphs"
text-anchor="middle" opacity="0">Y2</text>
<g class="stroked-text"><desc>Y2</desc>
<path d="M21020952 48173690
L21020952 48649880
" />
<path d="M20687619 47649880
L21020952 48173690
L21354285 47649880
" />
<path d="M21640000 47745119
L21687619 47697500
L21782857 47649880
L22020952 47649880
L22116190 47697500
L22163809 47745119
L22211428 47840357
L22211428 47935595
L22163809 48078452
L21592381 48649880
L22211428 48649880
" />
</g><text x="24672143.000000" y="61022500.000000"
textLength="2195000.000000" font-size="1333333.000000" lengthAdjust="spacingAndGlyphs"
text-anchor="middle" opacity="0">U4</text>
<g class="stroked-text"><desc>U4</desc>
<path d="M23910238 59974880
L23910238 60784404
L23957857 60879642
L24005476 60927261
L24100714 60974880
L24291190 60974880
L24386428 60927261
L24434047 60879642
L24481666 60784404
L24481666 59974880
" />
<path d="M25386428 60308214
L25386428 60974880
" />
<path d="M25148333 59927261
L24910238 60641547
L25529285 60641547
" />
</g><g transform="rotate(-90.000000 30768143.000000 21781500.000000)">
<text x="30768143.000000" y="22281500.000000"
textLength="2147381.000000" font-size="1333333.000000" lengthAdjust="spacingAndGlyphs"
text-anchor="middle" opacity="0">C1</text>
</g>
<g class="stroked-text"><desc>C1</desc>
<path d="M31125285 21948166
L31172904 21995785
L31220523 22138642
L31220523 22233880
L31172904 22376738
L31077666 22471976
L30982428 22519595
L30791952 22567214
L30649095 22567214
L30458619 22519595
L30363381 22471976
L30268143 22376738
L30220523 22233880
L30220523 22138642
L30268143 21995785
L30315762 21948166
" />
<path d="M31220523 20995785
L31220523 21567214
" />
<path d="M31220523 21281500
L30220523 21281500
L30363381 21376738
L30458619 21471976
L30506238 21567214
" />
</g><text x="27212143.000000" y="20022500.000000"
textLength="2147381.000000" font-size="1333333.000000" lengthAdjust="spacingAndGlyphs"
text-anchor="middle" opacity="0">R1</text>
<g class="stroked-text"><desc>R1</desc>
<path d="M27045476 19974880
L26712143 19498690
" />
<path d="M26474047 19974880
L26474047 18974880
L26855000 18974880
L26950238 19022500
L26997857 19070119
L27045476 19165357
L27045476 19308214
L26997857 19403452
L26950238 19451071
L26855000 19498690
L26474047 19498690
" />
<path d="M27997857 19974880
L27426428 19974880
" />
<path d="M27712143 19974880
L27712143 18974880
L27616904 19117738
L27521666 19212976
L27426428 19260595
" />
</g><g transform="rotate(-90.000000 30387143.000000 25337500.000000)">
<text x="30387143.000000" y="25837500.000000"
textLength="3099762.000000" font-size="1333333.000000" lengthAdjust="spacingAndGlyphs"
text-anchor="middle" opacity="0">C24</text>
</g>
<g class="stroked-text"><desc>C24</desc>
<path d="M30744285 25980357
L30791904 26027976
L30839523 26170833
L30839523 26266071
L30791904 26408928
L30696666 26504166
L30601428 26551785
L30410952 26599404
L30268095 26599404
L30077619 26551785
L29982381 26504166
L29887143 26408928
L29839523 26266071
L29839523 26170833
L29887143 26027976
L29934762 25980357
" />
<path d="M29934762 25599404
L29887143 25551785
L29839523 25456547
L29839523 25218452
L29887143 25123214
L29934762 25075595
L30030000 25027976
L30125238 25027976
L30268095 25075595
L30839523 25647023
L30839523 25027976
" />
<path d="M30172857 24170833
L30839523 24170833
" />
<path d="M29791904 24408928
L30506190 24647023
L30506190 24027976
" />
</g><text x="10067143.000000" y="28377500.000000"
textLength="3099762.000000" font-size="1333333.000000" lengthAdjust="spacingAndGlyphs"
text-anchor="middle" opacity="0">R12</text>
<g class="stroked-text"><desc>R12</desc>
<path d="M9424285 28329880
L9090952 27853690
" />
<path d="M8852857 28329880
L8852857 27329880
L9233809 27329880
L9329047 27377500
L9376666 27425119
L9424285 27520357
L9424285 27663214
L9376666 27758452
L9329047 27806071
L9233809 27853690
L8852857 27853690
" />
<path d="M10376666 28329880
L9805238 28329880
" />
<path d="M10090952 28329880
L10090952 27329880
L9995714 27472738
L9900476 27567976
L9805238 27615595
" />
<path d="M10757619 27425119
L10805238 27377500
L10900476 27329880
L11138571 27329880
L11233809 27377500
L11281428 27425119
L11329047 27520357
L11329047 27615595
L11281428 27758452
L10710000 28329880
L11329047 28329880
" />
</g><g transform="rotate(-90.000000 27847143.000000 55817500.000000)">
<text x="27847143.000000" y="56317500.000000"
textLength="3099762.000000" font-size="1333333.000000" lengthAdjust="spacingAndGlyphs"
text-anchor="middle" opacity="0">C13</text>
</g>
<g class="stroked-text"><desc>C13</desc>
<path d="M28204285 56460357
L28251904 56507976
L28299523 56650833
L28299523 56746071
L28251904 56888928
L28156666 56984166
L28061428 57031785
L27870952 57079404
L27728095 57079404
L27537619 57031785
L27442381 56984166
L27347143 56888928
L27299523 56746071
L27299523 56650833
L27347143 56507976
L27394762 56460357
" />
<path d="M28299523 55507976
L28299523 56079404
" />
<path d="M28299523 55793690
L27299523 55793690
L27442381 55888928
L27537619 55984166
L27585238 56079404
" />
<path d="M27299523 55174642
L27299523 54555595
L27680476 54888928
L27680476 54746071
L27728095 54650833
L27775714 54603214
L27870952 54555595
L28109047 54555595
L28204285 54603214
L28251904 54650833
L28299523 54746071
L28299523 55031785
L28251904 55127023
L28204285 55174642
" />
</g><text x="36864143.000000" y="19741500.000000"
textLength="2195000.000000" font-size="1333333.000000" lengthAdjust="spacingAndGlyphs"
text-anchor="middle" opacity="0">U1</text>
<g class="stroked-text"><desc>U1</desc>
<path d="M36102238 18693880
L36102238 19503404
L36149857 19598642
L36197476 19646261
L36292714 19693880
L36483190 19693880
L36578428 19646261
L36626047 19598642
L36673666 19503404
L36673666 18693880
" />
<path d="M37673666 19693880
L37102238 19693880
" />
<path d="M37387952 19693880
L37387952 18693880
L37292714 18836738
L37197476 18931976
L37102238 18979595
" />
</g><g transform="rotate(-90.000000 25307143.000000 55817500.000000)">
<text x="25307143.000000" y="56317500.000000"
textLength="2147381.000000" font-size="1333333.000000" lengthAdjust="spacingAndGlyphs"
text-anchor="middle" opacity="0">R6</text>
</g>
<g class="stroked-text"><desc>R6</desc>
<path d="M25759523 55984166
L25283333 56317500
" />
<path d="M25759523 56555595
L24759523 56555595
L24759523 56174642
L24807143 56079404
L24854762 56031785
L24950000 55984166
L25092857 55984166
L25188095 56031785
L25235714 56079404
L25283333 56174642
L25283333 56555595
" />
<path d="M24759523 55127023
L24759523 55317500
L24807143 55412738
L24854762 55460357
L24997619 55555595
L25188095 55603214
L25569047 55603214
L25664285 55555595
L25711904 55507976
L25759523 55412738
L25759523 55222261
L25711904 55127023
L25664285 55079404
L25569047 55031785
L25330952 55031785
L25235714 55079404
L25188095 55127023
L25140476 55222261
L25140476 55412738
L25188095 55507976
L25235714 55555595
L25330952 55603214
" />
</g><g transform="rotate(-90.000000 28067143.000000 43117500.000000)">
<text x="28067143.000000" y="43617500.000000"
textLength="1909286.000000" font-size="1333333.000000" lengthAdjust="spacingAndGlyphs"
text-anchor="middle" opacity="0">J3</text>
</g>
<g class="stroked-text"><desc>J3</desc>
<path d="M27519523 43450833
L28233809 43450833
L28376666 43498452
L28471904 43593690
L28519523 43736547
L28519523 43831785
" />
<path d="M27519523 43069880
L27519523 42450833
L27900476 42784166
L27900476 42641309
L27948095 42546071
L27995714 42498452
L28090952 42450833
L28329047 42450833
L28424285 42498452
L28471904 42546071
L28519523 42641309
L28519523 42927023
L28471904 43022261
L28424285 43069880
" />
</g><text x="32927143.000000" y="69017500.000000"
textLength="2147381.000000" font-size="1333333.000000" lengthAdjust="spacingAndGlyphs"
text-anchor="middle" opacity="0">R7</text>
<g class="stroked-text"><desc>R7</desc>
<path d="M32760476 68969880
L32427143 68493690
" />
<path d="M32189047 68969880
L32189047 67969880
L32570000 67969880
L32665238 68017500
L32712857 68065119
L32760476 68160357
L32760476 68303214
L32712857 68398452
L32665238 68446071
L32570000 68493690
L32189047 68493690
" />
<path d="M33093809 67969880
L33760476 67969880
L33331904 68969880
" />
</g><text x="18957143.000000" y="37157500.000000"
textLength="3099762.000000" font-size="1333333.000000" lengthAdjust="spacingAndGlyphs"
text-anchor="middle" opacity="0">C17</text>
<g class="stroked-text"><desc>C17</desc>
<path d="M18314285 37014642
L18266666 37062261
L18123809 37109880
L18028571 37109880
L17885714 37062261
L17790476 36967023
L17742857 36871785
L17695238 36681309
L17695238 36538452
L17742857 36347976
L17790476 36252738
L17885714 36157500
L18028571 36109880
L18123809 36109880
L18266666 36157500
L18314285 36205119
" />
<path d="M19266666 37109880
L18695238 37109880
" />
<path d="M18980952 37109880
L18980952 36109880
L18885714 36252738
L18790476 36347976
L18695238 36395595
" />
<path d="M19600000 36109880
L20266666 36109880
L19838095 37109880
" />
</g><g transform="rotate(-90.000000 29117143.000000 55817500.000000)">
<text x="29117143.000000" y="56317500.000000"
textLength="3099762.000000" font-size="1333333.000000" lengthAdjust="spacingAndGlyphs"
text-anchor="middle" opacity="0">C15</text>
</g>
<g class="stroked-text"><desc>C15</desc>
<path d="M29474285 56460357
L29521904 56507976
L29569523 56650833
L29569523 56746071
L29521904 56888928
L29426666 56984166
L29331428 57031785
L29140952 57079404
L28998095 57079404
L28807619 57031785
L28712381 56984166
L28617143 56888928
L28569523 56746071
L28569523 56650833
L28617143 56507976
L28664762 56460357
" />
<path d="M29569523 55507976
L29569523 56079404
" />
<path d="M29569523 55793690
L28569523 55793690
L28712381 55888928
L28807619 55984166
L28855238 56079404
" />
<path d="M28569523 54603214
L28569523 55079404
L29045714 55127023
L28998095 55079404
L28950476 54984166
L28950476 54746071
L28998095 54650833
L29045714 54603214
L29140952 54555595
L29379047 54555595
L29474285 54603214
L29521904 54650833
L29569523 54746071
L29569523 54984166
L29521904 55079404
L29474285 55127023
" />
</g><text x="31657143.000000" y="18217500.000000"
textLength="2147381.000000" font-size="1333333.000000" lengthAdjust="spacingAndGlyphs"
text-anchor="middle" opacity="0">C2</text>
<g class="stroked-text"><desc>C2</desc>
<path d="M31490476 18074642
L31442857 18122261
L31300000 18169880
L31204762 18169880
L31061904 18122261
L30966666 18027023
L30919047 17931785
L30871428 17741309
L30871428 17598452
L30919047 17407976
L30966666 17312738
L31061904 17217500
L31204762 17169880
L31300000 17169880
L31442857 17217500
L31490476 17265119
" />
<path d="M31871428 17265119
L31919047 17217500
L32014285 17169880
L32252381 17169880
L32347619 17217500
L32395238 17265119
L32442857 17360357
L32442857 17455595
L32395238 17598452
L31823809 18169880
L32442857 18169880
" />
</g><text x="16417143.000000" y="66477500.000000"
textLength="3099762.000000" font-size="1333333.000000" lengthAdjust="spacingAndGlyphs"
text-anchor="middle" opacity="0">C27</text>
<g class="stroked-text"><desc>C27</desc>
<path d="M15774285 66334642
L15726666 66382261
L15583809 66429880
L15488571 66429880
L15345714 66382261
L15250476 66287023
L15202857 66191785
L15155238 66001309
L15155238 65858452
L15202857 65667976
L15250476 65572738
L15345714 65477500
L15488571 65429880
L15583809 65429880
L15726666 65477500
L15774285 65525119
" />
<path d="M16155238 65525119
L16202857 65477500
L16298095 65429880
L16536190 65429880
L16631428 65477500
L16679047 65525119
L16726666 65620357
L16726666 65715595
L16679047 65858452
L16107619 66429880
L16726666 66429880
" />
<path d="M17060000 65429880
L17726666 65429880
L17298095 66429880
" />
</g><text x="18957143.000000" y="63827500.000000"
textLength="3099762.000000" font-size="1333333.000000" lengthAdjust="spacingAndGlyphs"
text-anchor="middle" opacity="0">C23</text>
<g class="stroked-text"><desc>C23</desc>
<path d="M18314285 63684642
L18266666 63732261
L18123809 63779880
L18028571 63779880
L17885714 63732261
L17790476 63637023
L17742857 63541785
L17695238 63351309
L17695238 63208452
L17742857 63017976
L17790476 62922738
L17885714 62827500
L18028571 62779880
L18123809 62779880
L18266666 62827500
L18314285 62875119
" />
<path d="M18695238 62875119
L18742857 62827500
L18838095 62779880
L19076190 62779880
L19171428 62827500
L19219047 62875119
L19266666 62970357
L19266666 63065595
L19219047 63208452
L18647619 63779880
L19266666 63779880
" />
<path d="M19600000 62779880
L20219047 62779880
L19885714 63160833
L20028571 63160833
L20123809 63208452
L20171428 63256071
L20219047 63351309
L20219047 63589404
L20171428 63684642
L20123809 63732261
L20028571 63779880
L19742857 63779880
L19647619 63732261
L19600000 63684642
" />
</g><g transform="rotate(-90.000000 26577143.000000 25337500.000000)">
<text x="26577143.000000" y="25837500.000000"
textLength="2147381.000000" font-size="1333333.000000" lengthAdjust="spacingAndGlyphs"
text-anchor="middle" opacity="0">R3</text>
</g>
<g class="stroked-text"><desc>R3</desc>
<path d="M27029523 25504166
L26553333 25837500
" />
<path d="M27029523 26075595
L26029523 26075595
L26029523 25694642
L26077143 25599404
L26124762 25551785
L26220000 25504166
L26362857 25504166
L26458095 25551785
L26505714 25599404
L26553333 25694642
L26553333 26075595
" />
<path d="M26029523 25170833
L26029523 24551785
L26410476 24885119
L26410476 24742261
L26458095 24647023
L26505714 24599404
L26600952 24551785
L26839047 24551785
L26934285 24599404
L26981904 24647023
L27029523 24742261
L27029523 25027976
L26981904 25123214
L26934285 25170833
" />
</g><g transform="rotate(-90.000000 24037143.000000 43752500.000000)">
<text x="24037143.000000" y="44252500.000000"
textLength="3099762.000000" font-size="1333333.000000" lengthAdjust="spacingAndGlyphs"
text-anchor="middle" opacity="0">C29</text>
</g>
<g class="stroked-text"><desc>C29</desc>
<path d="M24394285 44395357
L24441904 44442976
L24489523 44585833
L24489523 44681071
L24441904 44823928
L24346666 44919166
L24251428 44966785
L24060952 45014404
L23918095 45014404
L23727619 44966785
L23632381 44919166
L23537143 44823928
L23489523 44681071
L23489523 44585833
L23537143 44442976
L23584762 44395357
" />
<path d="M23584762 44014404
L23537143 43966785
L23489523 43871547
L23489523 43633452
L23537143 43538214
L23584762 43490595
L23680000 43442976
L23775238 43442976
L23918095 43490595
L24489523 44062023
L24489523 43442976
" />
<path d="M24489523 42966785
L24489523 42776309
L24441904 42681071
L24394285 42633452
L24251428 42538214
L24060952 42490595
L23680000 42490595
L23584762 42538214
L23537143 42585833
L23489523 42681071
L23489523 42871547
L23537143 42966785
L23584762 43014404
L23680000 43062023
L23918095 43062023
L24013333 43014404
L24060952 42966785
L24108571 42871547
L24108571 42681071
L24060952 42585833
L24013333 42538214
L23918095 42490595
" />
</g><text x="18957143.000000" y="33457500.000000"
textLength="3099762.000000" font-size="1333333.000000" lengthAdjust="spacingAndGlyphs"
text-anchor="middle" opacity="0">C30</text>
<g class="stroked-text"><desc>C30</desc>
<path d="M18314285 33314642
L18266666 33362261
L18123809 33409880
L18028571 33409880
L17885714 33362261
L17790476 33267023
L17742857 33171785
L17695238 32981309
L17695238 32838452
L17742857 32647976
L17790476 32552738
L17885714 32457500
L18028571 32409880
L18123809 32409880
L18266666 32457500
L18314285 32505119
" />
<path d="M18647619 32409880
L19266666 32409880
L18933333 32790833
L19076190 32790833
L19171428 32838452
L19219047 32886071
L19266666 32981309
L19266666 33219404
L19219047 33314642
L19171428 33362261
L19076190 33409880
L18790476 33409880
L18695238 33362261
L18647619 33314642
" />
<path d="M19885714 32409880
L19980952 32409880
L20076190 32457500
L20123809 32505119
L20171428 32600357
L20219047 32790833
L20219047 33028928
L20171428 33219404
L20123809 33314642
L20076190 33362261
L19980952 33409880
L19885714 33409880
L19790476 33362261
L19742857 33314642
L19695238 33219404
L19647619 33028928
L19647619 32790833
L19695238 32600357
L19742857 32505119
L19790476 32457500
L19885714 32409880
" />
</g><g transform="rotate(-90.000000 13492143.000000 55817500.000000)">
<text x="13492143.000000" y="56317500.000000"
textLength="2195000.000000" font-size="1333333.000000" lengthAdjust="spacingAndGlyphs"
text-anchor="middle" opacity="0">U2</text>
</g>
<g class="stroked-text"><desc>U2</desc>
<path d="M12944523 56579404
L13754047 56579404
L13849285 56531785
L13896904 56484166
L13944523 56388928
L13944523 56198452
L13896904 56103214
L13849285 56055595
L13754047 56007976
L12944523 56007976
" />
<path d="M13039762 55579404
L12992143 55531785
L12944523 55436547
L12944523 55198452
L12992143 55103214
L13039762 55055595
L13135000 55007976
L13230238 55007976
L13373095 55055595
L13944523 55627023
L13944523 55007976
" />
</g><text x="20862143.000000" y="40442500.000000"
textLength="3099762.000000" font-size="1333333.000000" lengthAdjust="spacingAndGlyphs"
text-anchor="middle" opacity="0">C10</text>
<g class="stroked-text"><desc>C10</desc>
<path d="M20219285 40299642
L20171666 40347261
L20028809 40394880
L19933571 40394880
L19790714 40347261
L19695476 40252023
L19647857 40156785
L19600238 39966309
L19600238 39823452
L19647857 39632976
L19695476 39537738
L19790714 39442500
L19933571 39394880
L20028809 39394880
L20171666 39442500
L20219285 39490119
" />
<path d="M21171666 40394880
L20600238 40394880
" />
<path d="M20885952 40394880
L20885952 39394880
L20790714 39537738
L20695476 39632976
L20600238 39680595
" />
<path d="M21790714 39394880
L21885952 39394880
L21981190 39442500
L22028809 39490119
L22076428 39585357
L22124047 39775833
L22124047 40013928
L22076428 40204404
L22028809 40299642
L21981190 40347261
L21885952 40394880
L21790714 40394880
L21695476 40347261
L21647857 40299642
L21600238 40204404
L21552619 40013928
L21552619 39775833
L21600238 39585357
L21647857 39490119
L21695476 39442500
L21790714 39394880
" />
</g></g>
<g style="fill:#F2EDA1; fill-opacity:0.0; 
stroke:#F2EDA1; stroke-width:120000.000000; stroke-opacity:1; 
stroke-linecap:round; stroke-linejoin:round;">
<path d="M14612143 11582500
L14612143 9297500
" />
<path d="M13142143 11582500
L14612143 11582500
" />
<path d="M13142143 9297500
L13142143 11582500
" />
<path d="M22285784 17972500
L21978502 17972500
" />
<path d="M22285784 18732500
L21978502 18732500
" />
<path d="M30540784 39052500
L30233502 39052500
" />
<path d="M30540784 38292500
L30233502 38292500
" />
<path d="M28207143 27769664
L28207143 27985336
" />
<path d="M27487143 27769664
L27487143 27985336
" />
<path d="M30494979 37042500
L30279307 37042500
" />
<path d="M30494979 37762500
L30279307 37762500
" />
<path d="M19317143 44914664
L19317143 45130336
" />
<path d="M18597143 44914664
L18597143 45130336
" />
<path d="M25667143 41320336
L25667143 41104664
" />
<path d="M24947143 41320336
L24947143 41104664
" />
<path d="M22407143 72219664
L22407143 72435336
" />
<path d="M23127143 72219664
L23127143 72435336
" />
<path d="M12453502 58737500
L12760784 58737500
" />
<path d="M12453502 57977500
L12760784 57977500
" />
<path d="M40065784 56707500
L39758502 56707500
" />
<path d="M40065784 57467500
L39758502 57467500
" />
<path d="M40065784 55562500
L39758502 55562500
" />
<path d="M40065784 54802500
L39758502 54802500
" />
<path d="M38857143 59727500
L38857143 58257500
" />
<path d="M36572143 59727500
L38857143 59727500
" />
<path d="M38857143 58257500
L36572143 58257500
" />
<path d="M24397143 27985336
L24397143 27769664
" />
<path d="M23677143 27985336
L23677143 27769664
" />
<path d="M40065784 29527500
L39758502 29527500
" />
<path d="M40065784 28767500
L39758502 28767500
" />
<path d="M25687143 28031141
L25687143 27723859
" />
<path d="M24927143 28031141
L24927143 27723859
" />
<path d="M40065784 58612500
L39758502 58612500
" />
<path d="M40065784 59372500
L39758502 59372500
" />
<path d="M8967143 37867500
L9367143 37867500
" />
<path d="M13707143 37867500
L13707143 33127500
" />
<path d="M13707143 37867500
L13307143 37867500
" />
<path d="M8967143 37867500
L8967143 33127500
" />
<path d="M8967143 33127500
L9367143 33127500
" />
<path d="M13707143 33127500
L13307143 33127500
" />
<path d="M12367143 33127500
L10307143 33127500
" />
<path d="M12367143 37867500
L10307143 37867500
" />
<path d="M38857143 26507500
L36572143 26507500
" />
<path d="M36572143 27977500
L38857143 27977500
" />
<path d="M38857143 27977500
L38857143 26507500
" />
<path d="M19317143 75394664
L19317143 75610336
" />
<path d="M18597143 75394664
L18597143 75610336
" />
<path d="M14587143 28062500
L14587143 29737500
" />
<path d="M19777143 25337500
L19777143 28062500
" />
<path d="M14327143 28062500
L14587143 28062500
" />
<path d="M19777143 28062500
L19517143 28062500
" />
<path d="M14327143 22612500
L14587143 22612500
" />
<path d="M14327143 25337500
L14327143 28062500
" />
<path d="M14327143 25337500
L14327143 22612500
" />
<path d="M19777143 22612500
L19517143 22612500
" />
<path d="M19777143 25337500
L19777143 22612500
" />
<path d="M30279307 69427500
L30494979 69427500
" />
<path d="M30279307 70147500
L30494979 70147500
" />
<path d="M12882143 52534664
L12882143 52750336
" />
<path d="M13602143 52534664
L13602143 52750336
" />
<path d="M38857143 52542500
L36572143 52542500
" />
<path d="M38857143 54012500
L38857143 52542500
" />
<path d="M36572143 54012500
L38857143 54012500
" />
<path d="M40065784 21907500
L39758502 21907500
" />
<path d="M40065784 21147500
L39758502 21147500
" />
<path d="M39742143 67712500
L39342143 67712500
" />
<path d="M35002143 67712500
L35002143 62972500
" />
<path d="M35002143 67712500
L35402143 67712500
" />
<path d="M39742143 62972500
L39342143 62972500
" />
<path d="M35002143 62972500
L35402143 62972500
" />
<path d="M38402143 67712500
L36342143 67712500
" />
<path d="M38402143 62972500
L36342143 62972500
" />
<path d="M39742143 67712500
L39742143 62972500
" />
<path d="M30922143 11582500
L32392143 11582500
" />
<path d="M30922143 9297500
L30922143 11582500
" />
<path d="M32392143 11582500
L32392143 9297500
" />
<path d="M25667143 72435336
L25667143 72219664
" />
<path d="M24947143 72435336
L24947143 72219664
" />
<path d="M30747143 58465336
L30747143 58249664
" />
<path d="M30027143 58465336
L30027143 58249664
" />
<path d="M40065784 26862500
L39758502 26862500
" />
<path d="M40065784 27622500
L39758502 27622500
" />
<path d="M29898307 62273500
L30113979 62273500
" />
<path d="M29898307 61553500
L30113979 61553500
" />
<path d="M31667143 74292500
L39347143 74292500
" />
<path d="M31667143 74292500
L31667143 71632500
" />
<path d="M39347143 74292500
L39347143 71632500
" />
<path d="M30397143 74292500
L29067143 74292500
" />
<path d="M31667143 71632500
L39347143 71632500
" />
<path d="M29067143 74292500
L29067143 72962500
" />
<path d="M29752143 81152500
L29752143 83752500
" />
<path d="M32352143 86352500
L16992143 86352500
" />
<path d="M32352143 81152500
L32352143 82482500
" />
<path d="M31022143 81152500
L32352143 81152500
" />
<path d="M16992143 81152500
L16992143 86352500
" />
<path d="M29752143 83752500
L32352143 83752500
" />
<path d="M29752143 81152500
L16992143 81152500
" />
<path d="M32352143 83752500
L32352143 86352500
" />
<path d="M40065784 51752500
L39758502 51752500
" />
<path d="M40065784 50992500
L39758502 50992500
" />
<path d="M29477143 27769664
L29477143 27985336
" />
<path d="M28757143 27769664
L28757143 27985336
" />
<path d="M30113979 31073500
L29898307 31073500
" />
<path d="M30113979 31793500
L29898307 31793500
" />
<path d="M33182143 12791141
L33182143 12483859
" />
<path d="M33942143 12791141
L33942143 12483859
" />
<path d="M36572143 29882500
L38857143 29882500
" />
<path d="M38857143 28412500
L36572143 28412500
" />
<path d="M38857143 29882500
L38857143 28412500
" />
<path d="M29372143 13902500
L29372143 11902500
" />
<path d="M19972143 10002500
L19972143 8102500
" />
<path d="M29372143 8102500
L19972143 8102500
" />
<path d="M29372143 10002500
L29372143 8102500
" />
<path d="M19972143 13902500
L19972143 11902500
" />
<path d="M36202143 11582500
L36202143 9297500
" />
<path d="M34732143 11582500
L36202143 11582500
" />
<path d="M34732143 9297500
L34732143 11582500
" />
<path d="M8967143 67712500
L9367143 67712500
" />
<path d="M8967143 67712500
L8967143 62972500
" />
<path d="M13707143 62972500
L13307143 62972500
" />
<path d="M8967143 62972500
L9367143 62972500
" />
<path d="M13707143 67712500
L13307143 67712500
" />
<path d="M12367143 67712500
L10307143 67712500
" />
<path d="M13707143 67712500
L13707143 62972500
" />
<path d="M12367143 62972500
L10307143 62972500
" />
<path d="M16517143 11582500
L16517143 9297500
" />
<path d="M15047143 11582500
L16517143 11582500
" />
<path d="M15047143 9297500
L15047143 11582500
" />
<path d="M21712143 31252500
L21062143 31252500
" />
<path d="M27632143 31252500
L28282143 31252500
" />
<path d="M27632143 38472500
L28282143 38472500
" />
<path d="M21062143 38472500
L21062143 37822500
" />
<path d="M28282143 38472500
L28282143 37822500
" />
<path d="M21712143 38472500
L21062143 38472500
" />
<path d="M28282143 31252500
L28282143 31902500
" />
<path d="M12453502 29527500
L12760784 29527500
" />
<path d="M12453502 28767500
L12760784 28767500
" />
<path d="M24397143 58249664
L24397143 58465336
" />
<path d="M23677143 58249664
L23677143 58465336
" />
<path d="M12453502 59247500
L12760784 59247500
" />
<path d="M12453502 60007500
L12760784 60007500
" />
<path d="M30494979 67607500
L30279307 67607500
" />
<path d="M30494979 66887500
L30279307 66887500
" />
<path d="M32827143 11582500
L34297143 11582500
" />
<path d="M34297143 11582500
L34297143 9297500
" />
<path d="M32827143 9297500
L32827143 11582500
" />
<path d="M30494979 36492500
L30279307 36492500
" />
<path d="M30494979 35772500
L30279307 35772500
" />
<path d="M19847143 74137500
L19847143 78137500
" />
<path d="M23147143 74137500
L19847143 74137500
" />
<path d="M16162143 12791141
L16162143 12483859
" />
<path d="M15402143 12791141
L15402143 12483859
" />
<path d="M40065784 53657500
L39758502 53657500
" />
<path d="M40065784 52897500
L39758502 52897500
" />
<path d="M26957143 58511141
L26957143 58203859
" />
<path d="M26197143 58511141
L26197143 58203859
" />
<path d="M20708502 73342500
L21015784 73342500
" />
<path d="M20708502 72582500
L21015784 72582500
" />
<path d="M24397143 72435336
L24397143 72219664
" />
<path d="M23677143 72435336
L23677143 72219664
" />
<path d="M40065784 25717500
L39758502 25717500
" />
<path d="M40065784 24957500
L39758502 24957500
" />
<path d="M20708502 41467500
L21015784 41467500
" />
<path d="M20708502 42227500
L21015784 42227500
" />
<path d="M13602143 22054664
L13602143 22270336
" />
<path d="M12882143 22054664
L12882143 22270336
" />
<path d="M19847143 43022500
L19847143 47022500
" />
<path d="M23147143 43022500
L19847143 43022500
" />
<path d="M38857143 55917500
L38857143 54447500
" />
<path d="M38857143 54447500
L36572143 54447500
" />
<path d="M36572143 55917500
L38857143 55917500
" />
<path d="M38857143 56352500
L36572143 56352500
" />
<path d="M38857143 57822500
L38857143 56352500
" />
<path d="M36572143 57822500
L38857143 57822500
" />
<path d="M38857143 24167500
L38857143 22697500
" />
<path d="M38857143 22697500
L36572143 22697500
" />
<path d="M36572143 24167500
L38857143 24167500
" />
<path d="M21062143 68952500
L21062143 68302500
" />
<path d="M28282143 61732500
L28282143 62382500
" />
<path d="M27632143 68952500
L28282143 68952500
" />
<path d="M28282143 68952500
L28282143 68302500
" />
<path d="M21712143 68952500
L21062143 68952500
" />
<path d="M21712143 61732500
L21062143 61732500
" />
<path d="M27632143 61732500
L28282143 61732500
" />
<path d="M31128143 19641664
L31128143 19857336
" />
<path d="M30408143 19641664
L30408143 19857336
" />
<path d="M35002143 37867500
L35002143 33127500
" />
<path d="M39742143 37867500
L39742143 33127500
" />
<path d="M38402143 33127500
L36342143 33127500
" />
<path d="M39742143 33127500
L39342143 33127500
" />
<path d="M38402143 37867500
L36342143 37867500
" />
<path d="M35002143 37867500
L35402143 37867500
" />
<path d="M35002143 33127500
L35402143 33127500
" />
<path d="M39742143 37867500
L39342143 37867500
" />
<path d="M27365784 18732500
L27058502 18732500
" />
<path d="M27365784 17972500
L27058502 17972500
" />
<path d="M30747143 27985336
L30747143 27769664
" />
<path d="M30027143 27985336
L30027143 27769664
" />
<path d="M18067143 12791141
L18067143 12483859
" />
<path d="M17307143 12791141
L17307143 12483859
" />
<path d="M12453502 27497500
L12760784 27497500
" />
<path d="M12453502 28257500
L12760784 28257500
" />
<path d="M28207143 58249664
L28207143 58465336
" />
<path d="M27487143 58249664
L27487143 58465336
" />
<path d="M33562143 21817500
L34362143 21817500
" />
<path d="M33562143 18697500
L34362143 18697500
" />
<path d="M33562143 18697500
L31762143 18697500
" />
<path d="M33562143 21817500
L32762143 21817500
" />
<path d="M31277143 12791141
L31277143 12483859
" />
<path d="M32037143 12791141
L32037143 12483859
" />
<path d="M18422143 11582500
L18422143 9297500
" />
<path d="M16952143 11582500
L18422143 11582500
" />
<path d="M16952143 9297500
L16952143 11582500
" />
<path d="M25687143 58511141
L25687143 58203859
" />
<path d="M24927143 58511141
L24927143 58203859
" />
<path d="M39347143 44447500
L39347143 41787500
" />
<path d="M30397143 44447500
L29067143 44447500
" />
<path d="M31667143 44447500
L39347143 44447500
" />
<path d="M31667143 41787500
L39347143 41787500
" />
<path d="M31667143 44447500
L31667143 41787500
" />
<path d="M29067143 44447500
L29067143 43117500
" />
<path d="M30233502 68897500
L30540784 68897500
" />
<path d="M30233502 68137500
L30540784 68137500
" />
<path d="M19064979 35137500
L18849307 35137500
" />
<path d="M19064979 35857500
L18849307 35857500
" />
<path d="M28757143 58249664
L28757143 58465336
" />
<path d="M29477143 58249664
L29477143 58465336
" />
<path d="M33669979 17357500
L33454307 17357500
" />
<path d="M33669979 18077500
L33454307 18077500
" />
<path d="M40065784 23812500
L39758502 23812500
" />
<path d="M40065784 23052500
L39758502 23052500
" />
<path d="M18849307 65617500
L19064979 65617500
" />
<path d="M18849307 66337500
L19064979 66337500
" />
<path d="M19064979 61807500
L18849307 61807500
" />
<path d="M19064979 62527500
L18849307 62527500
" />
<path d="M38857143 52107500
L38857143 50637500
" />
<path d="M36572143 52107500
L38857143 52107500
" />
<path d="M38857143 50637500
L36572143 50637500
" />
<path d="M26197143 28031141
L26197143 27723859
" />
<path d="M26957143 28031141
L26957143 27723859
" />
<path d="M23677143 41320336
L23677143 41104664
" />
<path d="M24397143 41320336
L24397143 41104664
" />
<path d="M36572143 26072500
L38857143 26072500
" />
<path d="M38857143 26072500
L38857143 24602500
" />
<path d="M38857143 24602500
L36572143 24602500
" />
<path d="M38857143 22262500
L38857143 20792500
" />
<path d="M36572143 22262500
L38857143 22262500
" />
<path d="M38857143 20792500
L36572143 20792500
" />
<path d="M18849307 31327500
L19064979 31327500
" />
<path d="M18849307 32047500
L19064979 32047500
" />
<path d="M14257143 12791141
L14257143 12483859
" />
<path d="M13497143 12791141
L13497143 12483859
" />
<path d="M19777143 53092500
L19517143 53092500
" />
<path d="M19777143 58542500
L19517143 58542500
" />
<path d="M14587143 58542500
L14587143 60217500
" />
<path d="M14327143 55817500
L14327143 53092500
" />
<path d="M19777143 55817500
L19777143 53092500
" />
<path d="M14327143 55817500
L14327143 58542500
" />
<path d="M19777143 55817500
L19777143 58542500
" />
<path d="M14327143 53092500
L14587143 53092500
" />
<path d="M14327143 58542500
L14587143 58542500
" />
<path d="M22407143 41104664
L22407143 41320336
" />
<path d="M23127143 41104664
L23127143 41320336
" />
<path d="M35847143 12791141
L35847143 12483859
" />
<path d="M35087143 12791141
L35087143 12483859
" />
<g >
</g>
<g >
</g>
<g >
</g>
<g >
</g>
<g >
</g>
<g >
</g>
<g >
</g>
<g >
</g>
<g >
</g>
<g >
</g>
<g >
</g>
<g >
</g>
<g >
</g>
<g >
</g>
<g >
</g>
<g >
</g>
<g >
</g>
<g >
</g>
<g >
</g>
<g >
</g>
<g >
</g>
<g >
</g>
<g >
</g>
<g >
</g>
<g >
</g>
<g >
</g>
<g >
</g>
<g >
</g>
<g >
</g>
<g >
</g>
<g >
</g>
<g >
</g>
<g >
</g>
<g >
</g>
<g >
</g>
<g >
</g>
<g >
</g>
<g >
</g>
<g >
</g>
<g >
</g>
<g >
</g>
<g >
</g>
<g >
</g>
<g >
</g>
<g >
</g>
<g >
</g>
<g >
</g>
<g >
</g>
<g >
</g>
<g >
</g>
<g >
</g>
<g >
</g>
<g >
</g>
<g >
</g>
<g >
</g>
<g >
</g>
<g >
</g>
<g >
</g>
<g >
</g>
<g >
</g>
<g >
</g>
<g >
</g>
<g >
</g>
<g >
</g>
<g >
</g>
<g >
</g>
<g >
</g>
<g >
</g>
<g >
</g>
<g >
</g>
<g >
</g>
<g >
</g>
<g >
</g>
<g >
</g>
<g >
</g>
<g >
</g>
<g >
</g>
<g >
</g>
<g >
</g>
<g >
</g>
<g >
</g>
<g >
</g>
<g >
</g>
<g >
</g>
<g >
</g>
<g >
</g>
<g >
</g>
<g >
</g>
<g >
</g>
<g >
</g>
<g >
</g>
<g >
</g>
<g >
</g>
<g >
</g>
<g >
</g>
<g >
</g>
<g >
</g>
<g >
</g>
<g >
</g>
</g>
<g style="fill:#000000; fill-opacity:0.0; 
stroke:#000000; stroke-width:120000.000000; stroke-opacity:1; 
stroke-linecap:round; stroke-linejoin:round;">
</g>
<g style="fill:#D0D2CD; fill-opacity:0.0; 
stroke:#D0D2CD; stroke-width:120000.000000; stroke-opacity:1; 
stroke-linecap:round; stroke-linejoin:round;">
</g>
<g style="fill:#D0D2CD; fill-opacity:0.0; 
stroke:#D0D2CD; stroke-width:100000.000000; stroke-opacity:1; 
stroke-linecap:round; stroke-linejoin:round;">
<path d="M6892143 22797500
L6892143 72327500
" />
<path d="M42452143 22797500
L42452143 72327500
" />
<path d="M39912143 87567500
L9432143 87567500
" />
<path d="M39912143.000000 87567500.000000 A3810000.000000 3810000.000000 0.0 0 0 43722143.000000 83757500.000000" />
<path d="M43722143.000000 11367500.000000 A3810000.000000 3810000.000000 0.0 0 0 39912143.000000 7557500.000000" />
<path d="M5622143 83757500
L5622143 73597500
" />
<path d="M43722143 11367500
L43722143 21527500
" />
<path d="M43722143 21527500
L42452143 22797500
" />
<path d="M5622143 11367500
L5622143 21527500
" />
<path d="M5622143.000000 83757500.000000 A3810000.000000 3810000.000000 0.0 0 0 9432143.000000 87567500.000000" />
<path d="M5622143 73597500
L6892143 72327500
" />
<path d="M9432143.000000 7557500.000000 A3810000.000000 3810000.000000 0.0 0 0 5622143.000000 11367500.000000" />
<path d="M43722143 83757500
L43722143 73597500
" />
<path d="M43722143 73597500
L42452143 72327500
" />
<path d="M5622143 21527500
L6892143 22797500
" />
<path d="M9432143 7557500
L39912143 7557500
" />
<g >
</g>
<g >
</g>
<g >
</g>
<g >
</g>
<g >
</g>
<g >
</g>
<g >
</g>
<g >
</g>
<g >
</g>
<g >
</g>
<g >
</g>
<g >
</g>
<g >
</g>
<g >
</g>
<g >
</g>
<g >
</g>
<g >
</g>
<g >
</g>
<g >
</g>
<g >
</g>
<g >
</g>
<g >
</g>
<g >
</g>
<g >
</g>
<g >
</g>
<g >
</g>
<g >
</g>
<g >
</g>
<g >
</g>
<g >
</g>
<g >
</g>
<g >
</g>
<g >
</g>
<g >
</g>
<g >
</g>
<g >
</g>
<g >
</g>
<g >
</g>
<g >
</g>
<g >
</g>
<g >
</g>
<g >
</g>
<g >
</g>
<g >
</g>
<g >
</g>
<g >
</g>
<g >
</g>
<g >
</g>
<g >
</g>
<g >
</g>
<g >
</g>
<g >
</g>
<g >
</g>
<g >
</g>
<g >
</g>
<g >
</g>
<g >
</g>
<g >
</g>
<g >
</g>
<g >
</g>
<g >
</g>
<g >
</g>
<g >
</g>
<g >
</g>
<g >
</g>
<g >
</g>
<g >
</g>
<g >
</g>
<g >
</g>
<g >
</g>
<g >
</g>
<g >
</g>
<g >
</g>
<g >
</g>
<g >
</g>
<g >
</g>
<g >
</g>
<g >
</g>
<g >
</g>
<g >
</g>
<g >
</g>
<g >
</g>
<g >
</g>
<g >
</g>
<g >
</g>
<g >
</g>
<g >
</g>
<g >
</g>
<g >
</g>
<g >
</g>
<g >
</g>
<g >
</g>
<g >
</g>
<g >
</g>
<g >
</g>
<g >
</g>
<g >
</g>
<g >
</g>
<g >
</g>
</g> 
</svg>
