M48
; DRILL file {KiCad (6.0.4-0)} date 2022 August 06, Saturday 01:18:39
; FORMAT={-:-/ absolute / metric / decimal}
; #@! TF.CreationDate,2022-08-06T01:18:39+02:00
; #@! TF.GenerationSoftware,Kicad,Pcbnew,(6.0.4-0)
; #@! TF.FileFunction,Plated,1,2,PTH
FMAT,2
METRIC
; #@! TA.AperFunction,Plated,PTH,ComponentDrill
T1C0.350
; #@! TA.AperFunction,Plated,PTH,ViaDrill
T2C0.400
; #@! TA.AperFunction,Plated,PTH,ComponentDrill
T3C0.600
%
G90
G05
T1
X29.02Y-23.775
X29.02Y-25.05
X29.02Y-26.325
X30.295Y-23.775
X30.295Y-25.05
X30.295Y-26.325
X31.57Y-23.775
X31.57Y-25.05
X31.57Y-26.325
X59.5Y-23.775
X59.5Y-25.05
X59.5Y-26.325
X60.775Y-23.775
X60.775Y-25.05
X60.775Y-26.325
X62.05Y-23.775
X62.05Y-25.05
X62.05Y-26.325
T2
X4.145Y-34.922
X6.8Y-30.638
X7.37Y-28.098
X9.2Y-14.1
X10.356Y-31.654
X16.198Y-20.986
X21.024Y-20.478
X21.024Y-26.828
X21.024Y-31.908
X22.294Y-41.306
X24.072Y-18.192
X25.088Y-18.446
X26.104Y-18.636
X26.104Y-20.478
X27.882Y-34.194
X29.4Y-57.7
X29.5Y-54.8
X29.994Y-30.892
X30.168Y-34.316
X30.5Y-88.9
X30.5Y-91.7
X30.676Y-13.112
X33.216Y-30.892
X35.9Y-70.5
X35.9Y-73.3
X36.4Y-15.2
X36.6Y-9.0
X37.3Y-17.8
X37.65Y-9.9
X38.0Y-24.4
X38.55Y-36.48
X39.55Y-9.9
X42.7Y-18.2
X43.376Y-11.588
X44.646Y-32.416
X44.646Y-33.432
X44.646Y-34.448
X44.646Y-35.464
X49.726Y-40.798
X50.996Y-34.956
X52.012Y-19.13
X53.57Y-26.46
X56.076Y-19.97
X57.092Y-21.24
X58.4Y-11.2
X58.4Y-14.7
X58.5Y-33.515
X58.799Y-19.1
X59.5Y-33.744
X59.7Y-14.7
X60.207Y-33.037
X60.394Y-31.908
X61.0Y-14.7
X61.156Y-9.302
X63.184Y-16.418
X63.188Y-17.938
X63.442Y-34.448
X63.992Y-17.238
X64.4Y-14.9
X64.674Y-18.074
X64.712Y-16.16
X69.08Y-24.08
X70.0Y-25.5
X74.0Y-29.4
X79.7Y-91.9
X79.9Y-94.8
T3
G00X5.65Y-20.78
M15
G01X5.05Y-20.78
M16
G05
G00X5.65Y-29.42
M15
G01X5.05Y-29.42
M16
G05
G00X10.08Y-20.78
M15
G01X8.98Y-20.78
M16
G05
G00X10.08Y-29.42
M15
G01X8.98Y-29.42
M16
G05
T0
M30
