  0
SECTION
  2
HEADER
  9
$ACADVER
  1
AC1027
  9
$ACADMAINTVER
 70
   125
  9
$DWGCODEPAGE
  3
ANSI_1252
  9
$REQUIREDVERSIONS
160
                 0
  9
$INSBASE
 10
0.0
 20
0.0
 30
0.0
  9
$EXTMIN
 10
1.000000000000000E+20
 20
1.000000000000000E+20
 30
1.000000000000000E+20
  9
$EXTMAX
 10
-1.000000000000000E+20
 20
-1.000000000000000E+20
 30
-1.000000000000000E+20
  9
$LIMMIN
 10
0.0
 20
0.0
  9
$LIMMAX
 10
12.0
 20
9.0
  9
$ORTHOMODE
 70
     0
  9
$REGENMODE
 70
     1
  9
$FILLMODE
 70
     1
  9
$QTEXTMODE
 70
     0
  9
$MIRRTEXT
 70
     0
  9
$LTSCALE
 40
1.0
  9
$ATTMODE
 70
     1
  9
$TEXTSIZE
 40
0.2
  9
$TRACEWID
 40
0.05
  9
$TEXTSTYLE
  7
Standard
  9
$CLAYER
  8
0
  9
$CELTYPE
  6
ByLayer
  9
$CECOLOR
 62
   256
  9
$CELTSCALE
 40
1.0
  9
$DISPSILH
 70
     0
  9
$DIMSCALE
 40
1.0
  9
$DIMASZ
 40
0.18
  9
$DIMEXO
 40
0.0625
  9
$DIMDLI
 40
0.38
  9
$DIMRND
 40
0.0
  9
$DIMDLE
 40
0.0
  9
$DIMEXE
 40
0.18
  9
$DIMTP
 40
0.0
  9
$DIMTM
 40
0.0
  9
$DIMTXT
 40
0.18
  9
$DIMCEN
 40
0.09
  9
$DIMTSZ
 40
0.0
  9
$DIMTOL
 70
     0
  9
$DIMLIM
 70
     0
  9
$DIMTIH
 70
     1
  9
$DIMTOH
 70
     1
  9
$DIMSE1
 70
     0
  9
$DIMSE2
 70
     0
  9
$DIMTAD
 70
     0
  9
$DIMZIN
 70
     0
  9
$DIMBLK
  1

  9
$DIMASO
 70
     1
  9
$DIMSHO
 70
     1
  9
$DIMPOST
  1

  9
$DIMAPOST
  1

  9
$DIMALT
 70
     0
  9
$DIMALTD
 70
     2
  9
$DIMALTF
 40
25.4
  9
$DIMLFAC
 40
1.0
  9
$DIMTOFL
 70
     0
  9
$DIMTVP
 40
0.0
  9
$DIMTIX
 70
     0
  9
$DIMSOXD
 70
     0
  9
$DIMSAH
 70
     0
  9
$DIMBLK1
  1

  9
$DIMBLK2
  1

  9
$DIMSTYLE
  2
Standard
  9
$DIMCLRD
 70
     0
  9
$DIMCLRE
 70
     0
  9
$DIMCLRT
 70
     0
  9
$DIMTFAC
 40
1.0
  9
$DIMGAP
 40
0.09
  9
$DIMJUST
 70
     0
  9
$DIMSD1
 70
     0
  9
$DIMSD2
 70
     0
  9
$DIMTOLJ
 70
     1
  9
$DIMTZIN
 70
     0
  9
$DIMALTZ
 70
     0
  9
$DIMALTTZ
 70
     0
  9
$DIMUPT
 70
     0
  9
$DIMDEC
 70
     4
  9
$DIMTDEC
 70
     4
  9
$DIMALTU
 70
     2
  9
$DIMALTTD
 70
     2
  9
$DIMTXSTY
  7
Standard
  9
$DIMAUNIT
 70
     0
  9
$DIMADEC
 70
     0
  9
$DIMALTRND
 40
0.0
  9
$DIMAZIN
 70
     0
  9
$DIMDSEP
 70
    46
  9
$DIMATFIT
 70
     3
  9
$DIMFRAC
 70
     0
  9
$DIMLDRBLK
  1

  9
$DIMLUNIT
 70
     2
  9
$DIMLWD
 70
    -2
  9
$DIMLWE
 70
    -2
  9
$DIMTMOVE
 70
     0
  9
$DIMFXL
 40
1.0
  9
$DIMFXLON
 70
     0
  9
$DIMJOGANG
 40
0.7853981633974483
  9
$DIMTFILL
 70
     0
  9
$DIMTFILLCLR
 70
     0
  9
$DIMARCSYM
 70
     0
  9
$DIMLTYPE
  6

  9
$DIMLTEX1
  6

  9
$DIMLTEX2
  6

  9
$DIMTXTDIRECTION
 70
     0
  9
$LUNITS
 70
     2
  9
$LUPREC
 70
     4
  9
$SKETCHINC
 40
0.1
  9
$FILLETRAD
 40
0.0
  9
$AUNITS
 70
     0
  9
$AUPREC
 70
     0
  9
$MENU
  1
.
  9
$ELEVATION
 40
0.0
  9
$PELEVATION
 40
0.0
  9
$THICKNESS
 40
0.0
  9
$LIMCHECK
 70
     0
  9
$CHAMFERA
 40
0.0
  9
$CHAMFERB
 40
0.0
  9
$CHAMFERC
 40
0.0
  9
$CHAMFERD
 40
0.0
  9
$SKPOLY
 70
     0
  9
$TDCREATE
 40
2459793.025428241
  9
$TDUCREATE
 40
2459792.942094908
  9
$TDUPDATE
 40
2459793.025428241
  9
$TDUUPDATE
 40
2459792.942094908
  9
$TDINDWG
 40
0.0000000000
  9
$TDUSRTIMER
 40
0.0000000000
  9
$USRTIMER
 70
     1
  9
$ANGBASE
 50
0.0
  9
$ANGDIR
 70
     0
  9
$PDMODE
 70
     0
  9
$PDSIZE
 40
0.0
  9
$PLINEWID
 40
0.0
  9
$SPLFRAME
 70
     0
  9
$SPLINETYPE
 70
     6
  9
$SPLINESEGS
 70
     8
  9
$HANDSEED
  5
93
  9
$SURFTAB1
 70
     6
  9
$SURFTAB2
 70
     6
  9
$SURFTYPE
 70
     6
  9
$SURFU
 70
     6
  9
$SURFV
 70
     6
  9
$UCSBASE
  2

  9
$UCSNAME
  2

  9
$UCSORG
 10
0.0
 20
0.0
 30
0.0
  9
$UCSXDIR
 10
1.0
 20
0.0
 30
0.0
  9
$UCSYDIR
 10
0.0
 20
1.0
 30
0.0
  9
$UCSORTHOREF
  2

  9
$UCSORTHOVIEW
 70
     0
  9
$UCSORGTOP
 10
0.0
 20
0.0
 30
0.0
  9
$UCSORGBOTTOM
 10
0.0
 20
0.0
 30
0.0
  9
$UCSORGLEFT
 10
0.0
 20
0.0
 30
0.0
  9
$UCSORGRIGHT
 10
0.0
 20
0.0
 30
0.0
  9
$UCSORGFRONT
 10
0.0
 20
0.0
 30
0.0
  9
$UCSORGBACK
 10
0.0
 20
0.0
 30
0.0
  9
$PUCSBASE
  2

  9
$PUCSNAME
  2

  9
$PUCSORG
 10
0.0
 20
0.0
 30
0.0
  9
$PUCSXDIR
 10
1.0
 20
0.0
 30
0.0
  9
$PUCSYDIR
 10
0.0
 20
1.0
 30
0.0
  9
$PUCSORTHOREF
  2

  9
$PUCSORTHOVIEW
 70
     0
  9
$PUCSORGTOP
 10
0.0
 20
0.0
 30
0.0
  9
$PUCSORGBOTTOM
 10
0.0
 20
0.0
 30
0.0
  9
$PUCSORGLEFT
 10
0.0
 20
0.0
 30
0.0
  9
$PUCSORGRIGHT
 10
0.0
 20
0.0
 30
0.0
  9
$PUCSORGFRONT
 10
0.0
 20
0.0
 30
0.0
  9
$PUCSORGBACK
 10
0.0
 20
0.0
 30
0.0
  9
$USERI1
 70
     0
  9
$USERI2
 70
     0
  9
$USERI3
 70
     0
  9
$USERI4
 70
     0
  9
$USERI5
 70
     0
  9
$USERR1
 40
0.0
  9
$USERR2
 40
0.0
  9
$USERR3
 40
0.0
  9
$USERR4
 40
0.0
  9
$USERR5
 40
0.0
  9
$WORLDVIEW
 70
     1
  9
$SHADEDGE
 70
     3
  9
$SHADEDIF
 70
    70
  9
$TILEMODE
 70
     1
  9
$MAXACTVP
 70
    64
  9
$PINSBASE
 10
0.0
 20
0.0
 30
0.0
  9
$PLIMCHECK
 70
     0
  9
$PEXTMIN
 10
1.000000000000000E+20
 20
1.000000000000000E+20
 30
1.000000000000000E+20
  9
$PEXTMAX
 10
-1.000000000000000E+20
 20
-1.000000000000000E+20
 30
-1.000000000000000E+20
  9
$PLIMMIN
 10
0.0
 20
0.0
  9
$PLIMMAX
 10
12.0
 20
9.0
  9
$UNITMODE
 70
     0
  9
$VISRETAIN
 70
     1
  9
$PLINEGEN
 70
     0
  9
$PSLTSCALE
 70
     1
  9
$TREEDEPTH
 70
  3020
  9
$CMLSTYLE
  2
Standard
  9
$CMLJUST
 70
     0
  9
$CMLSCALE
 40
1.0
  9
$PROXYGRAPHICS
 70
     1
  9
$MEASUREMENT
 70
     0
  9
$CELWEIGHT
370
    -1
  9
$ENDCAPS
280
     0
  9
$JOINSTYLE
280
     0
  9
$LWDISPLAY
290
     1
  9
$INSUNITS
 70
     4
  9
$HYPERLINKBASE
  1

  9
$STYLESHEET
  1

  9
$XEDIT
290
     1
  9
$CEPSNTYPE
380
     0
  9
$PSTYLEMODE
290
     1
  9
$FINGERPRINTGUID
  2
{F26474E4-4A5A-904D-95D0-7F1AA368B5DB}
  9
$VERSIONGUID
  2
{0913235E-7BA0-B841-A258-DB6A78089656}
  9
$EXTNAMES
290
     1
  9
$PSVPSCALE
 40
0.0
  9
$OLESTARTUP
290
     0
  9
$SORTENTS
280
   127
  9
$INDEXCTL
280
     0
  9
$HIDETEXT
280
     1
  9
$XCLIPFRAME
280
     2
  9
$HALOGAP
280
     0
  9
$OBSCOLOR
 70
   257
  9
$OBSLTYPE
280
     0
  9
$INTERSECTIONDISPLAY
280
     0
  9
$INTERSECTIONCOLOR
 70
   257
  9
$DIMASSOC
280
     2
  9
$PROJECTNAME
  1

  9
$CAMERADISPLAY
290
     0
  9
$LENSLENGTH
 40
50.0
  9
$CAMERAHEIGHT
 40
0.0
  9
$STEPSPERSEC
 40
2.0
  9
$STEPSIZE
 40
6.0
  9
$3DDWFPREC
 40
2.0
  9
$PSOLWIDTH
 40
0.25
  9
$PSOLHEIGHT
 40
4.0
  9
$LOFTANG1
 40
1.570796326794896
  9
$LOFTANG2
 40
1.570796326794896
  9
$LOFTMAG1
 40
0.0
  9
$LOFTMAG2
 40
0.0
  9
$LOFTPARAM
 70
     7
  9
$LOFTNORMALS
280
     1
  9
$LATITUDE
 40
37.795
  9
$LONGITUDE
 40
-122.394
  9
$NORTHDIRECTION
 40
0.0
  9
$TIMEZONE
 70
 -8000
  9
$LIGHTGLYPHDISPLAY
280
     1
  9
$TILEMODELIGHTSYNCH
280
     1
  9
$CMATERIAL
347
11
  9
$SOLIDHIST
280
     0
  9
$SHOWHIST
280
     1
  9
$DWFFRAME
280
     2
  9
$DGNFRAME
280
     0
  9
$REALWORLDSCALE
290
     1
  9
$INTERFERECOLOR
 62
     1
  9
$INTERFEREOBJVS
345
33
  9
$INTERFEREVPVS
346
30
  9
$CSHADOW
280
     0
  9
$SHADOWPLANELOCATION
 40
0.0
  0
ENDSEC
  0
SECTION
  2
CLASSES
  0
CLASS
  1
ACDBDICTIONARYWDFLT
  2
AcDbDictionaryWithDefault
  3
ObjectDBX Classes
 90
        0
 91
        1
280
     0
281
     0
  0
CLASS
  1
MATERIAL
  2
AcDbMaterial
  3
ObjectDBX Classes
 90
     1153
 91
        3
280
     0
281
     0
  0
CLASS
  1
VISUALSTYLE
  2
AcDbVisualStyle
  3
ObjectDBX Classes
 90
     4095
 91
       24
280
     0
281
     0
  0
CLASS
  1
SCALE
  2
AcDbScale
  3
ObjectDBX Classes
 90
     1153
 91
       17
280
     0
281
     0
  0
CLASS
  1
TABLESTYLE
  2
AcDbTableStyle
  3
ObjectDBX Classes
 90
     4095
 91
        1
280
     0
281
     0
  0
CLASS
  1
MLEADERSTYLE
  2
AcDbMLeaderStyle
  3
ACDB_MLEADERSTYLE_CLASS
 90
     4095
 91
        1
280
     0
281
     0
  0
CLASS
  1
ACDBSECTIONVIEWSTYLE
  2
AcDbSectionViewStyle
  3
ObjectDBX Classes
 90
     1025
 91
        1
280
     0
281
     0
  0
CLASS
  1
ACDBDETAILVIEWSTYLE
  2
AcDbDetailViewStyle
  3
ObjectDBX Classes
 90
     1025
 91
        1
280
     0
281
     0
  0
CLASS
  1
DICTIONARYVAR
  2
AcDbDictionaryVar
  3
ObjectDBX Classes
 90
        0
 91
        5
280
     0
281
     0
  0
CLASS
  1
CELLSTYLEMAP
  2
AcDbCellStyleMap
  3
ObjectDBX Classes
 90
     1152
 91
        1
280
     0
281
     0
  0
ENDSEC
  0
SECTION
  2
TABLES
  0
TABLE
  2
VPORT
  5
8
330
0
100
AcDbSymbolTable
 70
     1
1001
ACAD
1000
DbSaveVer
1071
      205
  0
VPORT
  5
57
330
8
100
AcDbSymbolTableRecord
100
AcDbViewportTableRecord
  2
*Active
 70
     0
 10
0.0
 20
0.0
 11
1.0
 21
1.0
 12
0.0
 22
0.0
 13
0.0
 23
0.0
 14
1.0
 24
1.0
 15
0.0
 25
0.0
 16
0.0
 26
0.0
 36
1.0
 17
59.99999998500015
 27
-59.99999998500015
 37
0.0
 40
122.3999999694003
 41
1.0
 42
50.0
 43
0.0
 44
0.0
 50
0.0
 51
0.0
 71
     0
 72
   100
 73
     1
 74
     0
 75
     1
 76
     0
 77
     0
 78
     0
281
     0
 65
     1
110
0.0
120
0.0
130
0.0
111
1.0
121
0.0
131
0.0
112
0.0
122
1.0
132
0.0
 79
     0
146
0.0
 60
     3
 61
     5
292
     1
282
     1
141
0.0
142
0.0
 63
   250
421
  3355443
  0
ENDTAB
  0
TABLE
  2
LTYPE
  5
5
330
0
100
AcDbSymbolTable
 70
     1
  0
LTYPE
  5
5B
330
5
100
AcDbSymbolTableRecord
100
AcDbLinetypeTableRecord
  2
ByBlock
 70
     0
  3

 72
    65
 73
     0
 40
0.0
  0
LTYPE
  5
5C
330
5
100
AcDbSymbolTableRecord
100
AcDbLinetypeTableRecord
  2
ByLayer
 70
     0
  3

 72
    65
 73
     0
 40
0.0
  0
LTYPE
  5
5D
330
5
100
AcDbSymbolTableRecord
100
AcDbLinetypeTableRecord
  2
Continuous
 70
     0
  3
Solid line
 72
    65
 73
     0
 40
0.0
  0
ENDTAB
  0
TABLE
  2
LAYER
  5
2
330
0
100
AcDbSymbolTable
 70
    14
  0
LAYER
  5
54
330
2
100
AcDbSymbolTableRecord
100
AcDbLayerTableRecord
  2
0
 70
     0
 62
     7
  6
Continuous
370
    -3
390
F
347
21
348
0
  0
LAYER
  5
78
330
2
100
AcDbSymbolTableRecord
100
AcDbLayerTableRecord
  2
GOLD FR4
 70
     1
 62
     7
  6
Continuous
370
     0
390
F
347
21
348
0
  0
LAYER
  5
79
330
2
100
AcDbSymbolTableRecord
100
AcDbLayerTableRecord
  2
FR4
 70
     1
 62
     7
  6
Continuous
370
     0
390
F
347
21
348
0
  0
LAYER
  5
7A
330
2
100
AcDbSymbolTableRecord
100
AcDbLayerTableRecord
  2
FR4 MASK
 70
     1
 62
     7
  6
Continuous
370
     0
390
F
347
21
348
0
  0
LAYER
  5
7B
330
2
100
AcDbSymbolTableRecord
100
AcDbLayerTableRecord
  2
GOLD
 70
     1
 62
     7
  6
Continuous
370
     0
390
F
347
21
348
0
  0
LAYER
  5
7C
330
2
100
AcDbSymbolTableRecord
100
AcDbLayerTableRecord
  2
SILK
 70
     1
 62
     7
  6
Continuous
370
     0
390
F
347
21
348
0
  0
LAYER
  5
7D
330
2
100
AcDbSymbolTableRecord
100
AcDbLayerTableRecord
  2
--------------------- MONO
 70
     0
 62
     7
  6
Continuous
370
     0
390
F
347
21
348
0
  0
LAYER
  5
7E
330
2
100
AcDbSymbolTableRecord
100
AcDbLayerTableRecord
  2
MONO - GOLD FR4
 70
     1
 62
     7
  6
Continuous
370
     0
390
F
347
21
348
0
  0
LAYER
  5
7F
330
2
100
AcDbSymbolTableRecord
100
AcDbLayerTableRecord
  2
MONO - FR4
 70
     1
 62
     7
  6
Continuous
370
     0
390
F
347
21
348
0
  0
LAYER
  5
80
330
2
100
AcDbSymbolTableRecord
100
AcDbLayerTableRecord
  2
MONO - FR4 MASK
 70
     1
 62
     7
  6
Continuous
370
     0
390
F
347
21
348
0
  0
LAYER
  5
81
330
2
100
AcDbSymbolTableRecord
100
AcDbLayerTableRecord
  2
MONO - GOLD
 70
     1
 62
     7
  6
Continuous
370
     0
390
F
347
21
348
0
  0
LAYER
  5
82
330
2
100
AcDbSymbolTableRecord
100
AcDbLayerTableRecord
  2
MONO - SILK
 70
     1
 62
     7
  6
Continuous
370
     0
390
F
347
21
348
0
  0
LAYER
  5
83
330
2
100
AcDbSymbolTableRecord
100
AcDbLayerTableRecord
  2
--------------------- MONO_0
 70
     0
 62
     7
  6
Continuous
370
     0
390
F
347
21
348
0
  0
LAYER
  5
84
330
2
100
AcDbSymbolTableRecord
100
AcDbLayerTableRecord
  2
EDGECUT
 70
     0
 62
     7
  6
Continuous
370
     0
390
F
347
21
348
0
  0
ENDTAB
  0
TABLE
  2
STYLE
  5
3
330
0
100
AcDbSymbolTable
 70
     2
  0
STYLE
  5
55
330
3
100
AcDbSymbolTableRecord
100
AcDbTextStyleTableRecord
  2
Standard
 70
     0
 40
0.0
 41
1.0
 50
0.0
 71
     0
 42
0.2
  3
txt
  4

  0
STYLE
  5
5A
330
3
100
AcDbSymbolTableRecord
100
AcDbTextStyleTableRecord
  2
Annotative
 70
     0
 40
0.0
 41
1.0
 50
0.0
 71
     0
 42
0.2
  3
txt
  4

1001
AcadAnnotative
1000
AnnotativeData
1002
{
1070
     1
1070
     1
1002
}
  0
ENDTAB
  0
TABLE
  2
VIEW
  5
6
330
0
100
AcDbSymbolTable
 70
     0
  0
ENDTAB
  0
TABLE
  2
UCS
  5
7
330
0
100
AcDbSymbolTable
 70
     0
  0
ENDTAB
  0
TABLE
  2
APPID
  5
9
330
0
100
AcDbSymbolTable
 70
     2
  0
APPID
  5
56
330
9
100
AcDbSymbolTableRecord
100
AcDbRegAppTableRecord
  2
ACAD
 70
     0
  0
APPID
  5
5E
330
9
100
AcDbSymbolTableRecord
100
AcDbRegAppTableRecord
  2
AcadAnnotative
 70
     0
  0
ENDTAB
  0
TABLE
  2
DIMSTYLE
  5
A
330
0
100
AcDbSymbolTable
 70
     2
100
AcDbDimStyleTable
 71
     0
  0
DIMSTYLE
105
58
330
A
100
AcDbSymbolTableRecord
100
AcDbDimStyleTableRecord
  2
Standard
 70
     0
340
55
  0
DIMSTYLE
105
59
330
A
100
AcDbSymbolTableRecord
100
AcDbDimStyleTableRecord
  2
Annotative
 70
     0
340
55
1001
AcadAnnotative
1000
AnnotativeData
1002
{
1070
     1
1070
     1
1002
}
  0
ENDTAB
  0
TABLE
  2
BLOCK_RECORD
  5
1
330
0
100
AcDbSymbolTable
 70
     1
  0
BLOCK_RECORD
  5
70
330
1
100
AcDbSymbolTableRecord
100
AcDbBlockTableRecord
  2
*Model_Space
340
73
 70
     0
280
     1
281
     0
  0
BLOCK_RECORD
  5
6C
330
1
100
AcDbSymbolTableRecord
100
AcDbBlockTableRecord
  2
*Paper_Space
340
6F
 70
     0
280
     1
281
     0
  0
BLOCK_RECORD
  5
74
330
1
100
AcDbSymbolTableRecord
100
AcDbBlockTableRecord
  2
*Paper_Space0
340
77
 70
     0
280
     1
281
     0
  0
ENDTAB
  0
ENDSEC
  0
SECTION
  2
BLOCKS
  0
BLOCK
  5
71
330
70
100
AcDbEntity
  8
0
100
AcDbBlockBegin
  2
*Model_Space
 70
     0
 10
0.0
 20
0.0
 30
0.0
  3
*Model_Space
  1

  0
ENDBLK
  5
72
330
70
100
AcDbEntity
  8
0
100
AcDbBlockEnd
  0
BLOCK
  5
6D
330
6C
100
AcDbEntity
 67
     1
  8
0
100
AcDbBlockBegin
  2
*Paper_Space
 70
     0
 10
0.0
 20
0.0
 30
0.0
  3
*Paper_Space
  1

  0
ENDBLK
  5
6E
330
6C
100
AcDbEntity
 67
     1
  8
0
100
AcDbBlockEnd
  0
BLOCK
  5
75
330
74
100
AcDbEntity
 67
     1
  8
0
100
AcDbBlockBegin
  2
*Paper_Space0
 70
     0
 10
0.0
 20
0.0
 30
0.0
  3
*Paper_Space0
  1

  0
ENDBLK
  5
76
330
74
100
AcDbEntity
 67
     1
  8
0
100
AcDbBlockEnd
  0
ENDSEC
  0
SECTION
  2
ENTITIES
  0
SPLINE
  5
85
330
70
100
AcDbEntity
  8
EDGECUT
 62
   240
420
 15082039
370
    35
100
AcDbSpline
210
0.0
220
0.0
230
1.0
 70
     9
 71
     3
 72
  1049
 73
  1045
 74
     0
 42
0.0000000001
 43
0.0000000001
 40
0.0
 40
0.0
 40
0.0
 40
0.0
 40
1.0
 40
1.0
 40
1.0
 40
2.0
 40
2.0
 40
2.0
 40
3.0
 40
3.0
 40
3.0
 40
4.0
 40
4.0
 40
4.0
 40
5.0
 40
5.0
 40
5.0
 40
6.0
 40
6.0
 40
6.0
 40
7.0
 40
7.0
 40
7.0
 40
8.0
 40
8.0
 40
8.0
 40
9.0
 40
9.0
 40
9.0
 40
10.0
 40
10.0
 40
10.0
 40
11.0
 40
11.0
 40
11.0
 40
12.0
 40
12.0
 40
12.0
 40
13.0
 40
13.0
 40
13.0
 40
14.0
 40
14.0
 40
14.0
 40
15.0
 40
15.0
 40
15.0
 40
16.0
 40
16.0
 40
16.0
 40
17.0
 40
17.0
 40
17.0
 40
18.0
 40
18.0
 40
18.0
 40
19.0
 40
19.0
 40
19.0
 40
20.0
 40
20.0
 40
20.0
 40
21.0
 40
21.0
 40
21.0
 40
22.0
 40
22.0
 40
22.0
 40
23.0
 40
23.0
 40
23.0
 40
24.0
 40
24.0
 40
24.0
 40
25.0
 40
25.0
 40
25.0
 40
26.0
 40
26.0
 40
26.0
 40
27.0
 40
27.0
 40
27.0
 40
28.0
 40
28.0
 40
28.0
 40
29.0
 40
29.0
 40
29.0
 40
30.0
 40
30.0
 40
30.0
 40
31.0
 40
31.0
 40
31.0
 40
32.0
 40
32.0
 40
32.0
 40
33.0
 40
33.0
 40
33.0
 40
34.0
 40
34.0
 40
34.0
 40
35.0
 40
35.0
 40
35.0
 40
36.0
 40
36.0
 40
36.0
 40
37.0
 40
37.0
 40
37.0
 40
38.0
 40
38.0
 40
38.0
 40
39.0
 40
39.0
 40
39.0
 40
40.0
 40
40.0
 40
40.0
 40
41.0
 40
41.0
 40
41.0
 40
42.0
 40
42.0
 40
42.0
 40
43.0
 40
43.0
 40
43.0
 40
44.0
 40
44.0
 40
44.0
 40
45.0
 40
45.0
 40
45.0
 40
46.0
 40
46.0
 40
46.0
 40
47.0
 40
47.0
 40
47.0
 40
48.0
 40
48.0
 40
48.0
 40
49.0
 40
49.0
 40
49.0
 40
50.0
 40
50.0
 40
50.0
 40
51.0
 40
51.0
 40
51.0
 40
52.0
 40
52.0
 40
52.0
 40
53.0
 40
53.0
 40
53.0
 40
54.0
 40
54.0
 40
54.0
 40
55.0
 40
55.0
 40
55.0
 40
56.0
 40
56.0
 40
56.0
 40
57.0
 40
57.0
 40
57.0
 40
58.0
 40
58.0
 40
58.0
 40
59.0
 40
59.0
 40
59.0
 40
60.0
 40
60.0
 40
60.0
 40
61.0
 40
61.0
 40
61.0
 40
62.0
 40
62.0
 40
62.0
 40
63.0
 40
63.0
 40
63.0
 40
64.0
 40
64.0
 40
64.0
 40
65.0
 40
65.0
 40
65.0
 40
66.0
 40
66.0
 40
66.0
 40
67.0
 40
67.0
 40
67.0
 40
68.0
 40
68.0
 40
68.0
 40
69.0
 40
69.0
 40
69.0
 40
70.0
 40
70.0
 40
70.0
 40
71.0
 40
71.0
 40
71.0
 40
72.0
 40
72.0
 40
72.0
 40
73.0
 40
73.0
 40
73.0
 40
74.0
 40
74.0
 40
74.0
 40
75.0
 40
75.0
 40
75.0
 40
76.0
 40
76.0
 40
76.0
 40
77.0
 40
77.0
 40
77.0
 40
78.0
 40
78.0
 40
78.0
 40
79.0
 40
79.0
 40
79.0
 40
80.0
 40
80.0
 40
80.0
 40
81.0
 40
81.0
 40
81.0
 40
82.0
 40
82.0
 40
82.0
 40
83.0
 40
83.0
 40
83.0
 40
84.0
 40
84.0
 40
84.0
 40
85.0
 40
85.0
 40
85.0
 40
86.0
 40
86.0
 40
86.0
 40
87.0
 40
87.0
 40
87.0
 40
88.0
 40
88.0
 40
88.0
 40
89.0
 40
89.0
 40
89.0
 40
90.0
 40
90.0
 40
90.0
 40
91.0
 40
91.0
 40
91.0
 40
92.0
 40
92.0
 40
92.0
 40
93.0
 40
93.0
 40
93.0
 40
94.0
 40
94.0
 40
94.0
 40
95.0
 40
95.0
 40
95.0
 40
96.0
 40
96.0
 40
96.0
 40
97.0
 40
97.0
 40
97.0
 40
98.0
 40
98.0
 40
98.0
 40
99.0
 40
99.0
 40
99.0
 40
100.0
 40
100.0
 40
100.0
 40
101.0
 40
101.0
 40
101.0
 40
102.0
 40
102.0
 40
102.0
 40
103.0
 40
103.0
 40
103.0
 40
104.0
 40
104.0
 40
104.0
 40
105.0
 40
105.0
 40
105.0
 40
106.0
 40
106.0
 40
106.0
 40
107.0
 40
107.0
 40
107.0
 40
108.0
 40
108.0
 40
108.0
 40
109.0
 40
109.0
 40
109.0
 40
110.0
 40
110.0
 40
110.0
 40
111.0
 40
111.0
 40
111.0
 40
112.0
 40
112.0
 40
112.0
 40
113.0
 40
113.0
 40
113.0
 40
114.0
 40
114.0
 40
114.0
 40
115.0
 40
115.0
 40
115.0
 40
116.0
 40
116.0
 40
116.0
 40
117.0
 40
117.0
 40
117.0
 40
118.0
 40
118.0
 40
118.0
 40
119.0
 40
119.0
 40
119.0
 40
120.0
 40
120.0
 40
120.0
 40
121.0
 40
121.0
 40
121.0
 40
122.0
 40
122.0
 40
122.0
 40
123.0
 40
123.0
 40
123.0
 40
124.0
 40
124.0
 40
124.0
 40
125.0
 40
125.0
 40
125.0
 40
126.0
 40
126.0
 40
126.0
 40
127.0
 40
127.0
 40
127.0
 40
128.0
 40
128.0
 40
128.0
 40
129.0
 40
129.0
 40
129.0
 40
130.0
 40
130.0
 40
130.0
 40
131.0
 40
131.0
 40
131.0
 40
132.0
 40
132.0
 40
132.0
 40
133.0
 40
133.0
 40
133.0
 40
134.0
 40
134.0
 40
134.0
 40
135.0
 40
135.0
 40
135.0
 40
136.0
 40
136.0
 40
136.0
 40
137.0
 40
137.0
 40
137.0
 40
138.0
 40
138.0
 40
138.0
 40
139.0
 40
139.0
 40
139.0
 40
140.0
 40
140.0
 40
140.0
 40
141.0
 40
141.0
 40
141.0
 40
142.0
 40
142.0
 40
142.0
 40
143.0
 40
143.0
 40
143.0
 40
144.0
 40
144.0
 40
144.0
 40
145.0
 40
145.0
 40
145.0
 40
146.0
 40
146.0
 40
146.0
 40
147.0
 40
147.0
 40
147.0
 40
148.0
 40
148.0
 40
148.0
 40
149.0
 40
149.0
 40
149.0
 40
150.0
 40
150.0
 40
150.0
 40
151.0
 40
151.0
 40
151.0
 40
152.0
 40
152.0
 40
152.0
 40
153.0
 40
153.0
 40
153.0
 40
154.0
 40
154.0
 40
154.0
 40
155.0
 40
155.0
 40
155.0
 40
156.0
 40
156.0
 40
156.0
 40
157.0
 40
157.0
 40
157.0
 40
158.0
 40
158.0
 40
158.0
 40
159.0
 40
159.0
 40
159.0
 40
160.0
 40
160.0
 40
160.0
 40
161.0
 40
161.0
 40
161.0
 40
162.0
 40
162.0
 40
162.0
 40
163.0
 40
163.0
 40
163.0
 40
164.0
 40
164.0
 40
164.0
 40
165.0
 40
165.0
 40
165.0
 40
166.0
 40
166.0
 40
166.0
 40
167.0
 40
167.0
 40
167.0
 40
168.0
 40
168.0
 40
168.0
 40
169.0
 40
169.0
 40
169.0
 40
170.0
 40
170.0
 40
170.0
 40
171.0
 40
171.0
 40
171.0
 40
172.0
 40
172.0
 40
172.0
 40
173.0
 40
173.0
 40
173.0
 40
174.0
 40
174.0
 40
174.0
 40
175.0
 40
175.0
 40
175.0
 40
176.0
 40
176.0
 40
176.0
 40
177.0
 40
177.0
 40
177.0
 40
178.0
 40
178.0
 40
178.0
 40
179.0
 40
179.0
 40
179.0
 40
180.0
 40
180.0
 40
180.0
 40
181.0
 40
181.0
 40
181.0
 40
182.0
 40
182.0
 40
182.0
 40
183.0
 40
183.0
 40
183.0
 40
184.0
 40
184.0
 40
184.0
 40
185.0
 40
185.0
 40
185.0
 40
186.0
 40
186.0
 40
186.0
 40
187.0
 40
187.0
 40
187.0
 40
188.0
 40
188.0
 40
188.0
 40
189.0
 40
189.0
 40
189.0
 40
190.0
 40
190.0
 40
190.0
 40
191.0
 40
191.0
 40
191.0
 40
192.0
 40
192.0
 40
192.0
 40
193.0
 40
193.0
 40
193.0
 40
194.0
 40
194.0
 40
194.0
 40
195.0
 40
195.0
 40
195.0
 40
196.0
 40
196.0
 40
196.0
 40
197.0
 40
197.0
 40
197.0
 40
198.0
 40
198.0
 40
198.0
 40
199.0
 40
199.0
 40
199.0
 40
200.0
 40
200.0
 40
200.0
 40
201.0
 40
201.0
 40
201.0
 40
202.0
 40
202.0
 40
202.0
 40
203.0
 40
203.0
 40
203.0
 40
204.0
 40
204.0
 40
204.0
 40
205.0
 40
205.0
 40
205.0
 40
206.0
 40
206.0
 40
206.0
 40
207.0
 40
207.0
 40
207.0
 40
208.0
 40
208.0
 40
208.0
 40
209.0
 40
209.0
 40
209.0
 40
210.0
 40
210.0
 40
210.0
 40
211.0
 40
211.0
 40
211.0
 40
212.0
 40
212.0
 40
212.0
 40
213.0
 40
213.0
 40
213.0
 40
214.0
 40
214.0
 40
214.0
 40
215.0
 40
215.0
 40
215.0
 40
216.0
 40
216.0
 40
216.0
 40
217.0
 40
217.0
 40
217.0
 40
218.0
 40
218.0
 40
218.0
 40
219.0
 40
219.0
 40
219.0
 40
220.0
 40
220.0
 40
220.0
 40
221.0
 40
221.0
 40
221.0
 40
222.0
 40
222.0
 40
222.0
 40
223.0
 40
223.0
 40
223.0
 40
224.0
 40
224.0
 40
224.0
 40
225.0
 40
225.0
 40
225.0
 40
226.0
 40
226.0
 40
226.0
 40
227.0
 40
227.0
 40
227.0
 40
228.0
 40
228.0
 40
228.0
 40
229.0
 40
229.0
 40
229.0
 40
230.0
 40
230.0
 40
230.0
 40
231.0
 40
231.0
 40
231.0
 40
232.0
 40
232.0
 40
232.0
 40
233.0
 40
233.0
 40
233.0
 40
234.0
 40
234.0
 40
234.0
 40
235.0
 40
235.0
 40
235.0
 40
236.0
 40
236.0
 40
236.0
 40
237.0
 40
237.0
 40
237.0
 40
238.0
 40
238.0
 40
238.0
 40
239.0
 40
239.0
 40
239.0
 40
240.0
 40
240.0
 40
240.0
 40
241.0
 40
241.0
 40
241.0
 40
242.0
 40
242.0
 40
242.0
 40
243.0
 40
243.0
 40
243.0
 40
244.0
 40
244.0
 40
244.0
 40
245.0
 40
245.0
 40
245.0
 40
246.0
 40
246.0
 40
246.0
 40
247.0
 40
247.0
 40
247.0
 40
248.0
 40
248.0
 40
248.0
 40
249.0
 40
249.0
 40
249.0
 40
250.0
 40
250.0
 40
250.0
 40
251.0
 40
251.0
 40
251.0
 40
252.0
 40
252.0
 40
252.0
 40
253.0
 40
253.0
 40
253.0
 40
254.0
 40
254.0
 40
254.0
 40
255.0
 40
255.0
 40
255.0
 40
256.0
 40
256.0
 40
256.0
 40
257.0
 40
257.0
 40
257.0
 40
258.0
 40
258.0
 40
258.0
 40
259.0
 40
259.0
 40
259.0
 40
260.0
 40
260.0
 40
260.0
 40
261.0
 40
261.0
 40
261.0
 40
262.0
 40
262.0
 40
262.0
 40
263.0
 40
263.0
 40
263.0
 40
264.0
 40
264.0
 40
264.0
 40
265.0
 40
265.0
 40
265.0
 40
266.0
 40
266.0
 40
266.0
 40
267.0
 40
267.0
 40
267.0
 40
268.0
 40
268.0
 40
268.0
 40
269.0
 40
269.0
 40
269.0
 40
270.0
 40
270.0
 40
270.0
 40
271.0
 40
271.0
 40
271.0
 40
272.0
 40
272.0
 40
272.0
 40
273.0
 40
273.0
 40
273.0
 40
274.0
 40
274.0
 40
274.0
 40
275.0
 40
275.0
 40
275.0
 40
276.0
 40
276.0
 40
276.0
 40
277.0
 40
277.0
 40
277.0
 40
278.0
 40
278.0
 40
278.0
 40
279.0
 40
279.0
 40
279.0
 40
280.0
 40
280.0
 40
280.0
 40
281.0
 40
281.0
 40
281.0
 40
282.0
 40
282.0
 40
282.0
 40
283.0
 40
283.0
 40
283.0
 40
284.0
 40
284.0
 40
284.0
 40
285.0
 40
285.0
 40
285.0
 40
286.0
 40
286.0
 40
286.0
 40
287.0
 40
287.0
 40
287.0
 40
288.0
 40
288.0
 40
288.0
 40
289.0
 40
289.0
 40
289.0
 40
290.0
 40
290.0
 40
290.0
 40
291.0
 40
291.0
 40
291.0
 40
292.0
 40
292.0
 40
292.0
 40
293.0
 40
293.0
 40
293.0
 40
294.0
 40
294.0
 40
294.0
 40
295.0
 40
295.0
 40
295.0
 40
296.0
 40
296.0
 40
296.0
 40
297.0
 40
297.0
 40
297.0
 40
298.0
 40
298.0
 40
298.0
 40
299.0
 40
299.0
 40
299.0
 40
300.0
 40
300.0
 40
300.0
 40
301.0
 40
301.0
 40
301.0
 40
302.0
 40
302.0
 40
302.0
 40
303.0
 40
303.0
 40
303.0
 40
304.0
 40
304.0
 40
304.0
 40
305.0
 40
305.0
 40
305.0
 40
306.0
 40
306.0
 40
306.0
 40
307.0
 40
307.0
 40
307.0
 40
308.0
 40
308.0
 40
308.0
 40
309.0
 40
309.0
 40
309.0
 40
310.0
 40
310.0
 40
310.0
 40
311.0
 40
311.0
 40
311.0
 40
312.0
 40
312.0
 40
312.0
 40
313.0
 40
313.0
 40
313.0
 40
314.0
 40
314.0
 40
314.0
 40
315.0
 40
315.0
 40
315.0
 40
316.0
 40
316.0
 40
316.0
 40
317.0
 40
317.0
 40
317.0
 40
318.0
 40
318.0
 40
318.0
 40
319.0
 40
319.0
 40
319.0
 40
320.0
 40
320.0
 40
320.0
 40
321.0
 40
321.0
 40
321.0
 40
322.0
 40
322.0
 40
322.0
 40
323.0
 40
323.0
 40
323.0
 40
324.0
 40
324.0
 40
324.0
 40
325.0
 40
325.0
 40
325.0
 40
326.0
 40
326.0
 40
326.0
 40
327.0
 40
327.0
 40
327.0
 40
328.0
 40
328.0
 40
328.0
 40
329.0
 40
329.0
 40
329.0
 40
330.0
 40
330.0
 40
330.0
 40
331.0
 40
331.0
 40
331.0
 40
332.0
 40
332.0
 40
332.0
 40
333.0
 40
333.0
 40
333.0
 40
334.0
 40
334.0
 40
334.0
 40
335.0
 40
335.0
 40
335.0
 40
336.0
 40
336.0
 40
336.0
 40
337.0
 40
337.0
 40
337.0
 40
338.0
 40
338.0
 40
338.0
 40
339.0
 40
339.0
 40
339.0
 40
340.0
 40
340.0
 40
340.0
 40
341.0
 40
341.0
 40
341.0
 40
342.0
 40
342.0
 40
342.0
 40
343.0
 40
343.0
 40
343.0
 40
344.0
 40
344.0
 40
344.0
 40
345.0
 40
345.0
 40
345.0
 40
346.0
 40
346.0
 40
346.0
 40
347.0
 40
347.0
 40
347.0
 40
348.0
 40
348.0
 40
348.0
 40
348.0
 10
109.8408836937854
 20
-25.85154435253234
 30
0.0
 10
109.8408836937854
 20
-25.85154435253234
 30
0.0
 10
109.8408836937854
 20
-25.85507557540472
 30
0.0
 10
109.8408836937854
 20
-25.85507557540472
 30
0.0
 10
109.8408836937854
 20
-25.8586067982771
 30
0.0
 10
109.8408836937854
 20
-25.8586067982771
 30
0.0
 10
109.8408836937854
 20
-25.8586067982771
 30
0.0
 10
109.8444149166578
 20
-25.89036627228175
 30
0.0
 10
109.8408836937854
 20
-25.925635437312
 30
0.0
 10
109.8408836937854
 20
-25.96090460234224
 30
0.0
 10
109.8408836937854
 20
-25.96090460234224
 30
0.0
 10
109.8408836937854
 20
-26.01029865886201
 30
0.0
 10
109.8408836937854
 20
-26.01029865886201
 30
0.0
 10
109.8267803341427
 20
-26.17258418806406
 30
0.0
 10
109.7773862776229
 20
-26.34544185403647
 30
0.0
 10
109.7032951928433
 20
-26.49713371462138
 30
0.0
 10
109.6539226681703
 20
-26.58885938191616
 30
0.0
 10
109.6397977766807
 20
-26.66292893484903
 30
0.0
 10
109.6397977766807
 20
-26.78994529902083
 30
0.0
 10
109.6397977766807
 20
-27.01219702151301
 30
0.0
 10
109.5798315833906
 20
-27.30851829693806
 30
0.0
 10
109.4704713335807
 20
-27.63659904636776
 30
0.0
 10
109.4281397228057
 20
-27.76712510156516
 30
0.0
 10
109.4069739174182
 20
-27.83415374060006
 30
0.0
 10
109.396380248801
 20
-27.89414146573697
 30
0.0
 10
109.3893393349031
 20
-27.95763888189948
 30
0.0
 10
109.396380248801
 20
-28.01407385231723
 30
0.0
 10
109.414036363163
 20
-28.12343410212713
 30
0.0
 10
109.4457743053208
 20
-28.36685163000682
 30
0.0
 10
109.4457743053208
 20
-28.5009089080766
 30
0.0
 10
109.421077277061
 20
-28.87132126828131
 30
0.0
 10
109.4175460541886
 20
-28.91014318803071
 30
0.0
 10
109.414036363163
 20
-28.94541235306096
 30
0.0
 10
109.4105051402906
 20
-28.99127518670835
 30
0.0
 10
109.4069739174182
 20
-29.04417893425371
 30
0.0
 10
109.3999114716734
 20
-29.09357299077349
 30
0.0
 10
109.396380248801
 20
-29.14649827016564
 30
0.0
 10
109.3787456662859
 20
-29.2875964621334
 30
0.0
 10
109.3611110837708
 20
-29.42165374020318
 30
0.0
 10
109.3399452783833
 20
-29.53807643575784
 30
0.0
 10
109.3152482501234
 20
-29.68623707347037
 30
0.0
 10
109.2835103079656
 20
-29.81325343764217
 30
0.0
 10
109.2446883882161
 20
-29.91908246457969
 30
0.0
 10
109.2094192231859
 20
-30.02138026864483
 30
0.0
 10
109.1917846406708
 20
-30.12369960455675
 30
0.0
 10
109.1953158635432
 20
-30.22952863149427
 30
0.0
 10
109.1988255545688
 20
-30.33182643555941
 30
0.0
 10
109.1811909720536
 20
-30.42708332572657
 30
0.0
 10
109.142390584151
 20
-30.54348448943445
 30
0.0
 10
109.1388593612786
 20
-30.55407815805159
 30
0.0
 10
109.1388593612786
 20
-30.56114060379635
 30
0.0
 10
109.1353281384062
 20
-30.57171274056671
 30
0.0
 10
109.1282872245083
 20
-30.58934732308183
 30
0.0
 10
109.1247560016359
 20
-30.61051312846934
 30
0.0
 10
109.1176935558911
 20
-30.63167893385684
 30
0.0
 10
109.0718307222437
 20
-30.79043324018651
 30
0.0
 10
109.057727362601
 20
-30.97388457477606
 30
0.0
 10
109.0753619451161
 20
-31.12557643536097
 30
0.0
 10
109.0824243908609
 20
-31.1820329376255
 30
0.0
 10
109.0929965276312
 20
-31.23493668517087
 30
0.0
 10
109.1106311101464
 20
-31.27726829594588
 30
0.0
 10
109.1353281384062
 20
-31.34429693498077
 30
0.0
 10
109.1494530298958
 20
-31.46071963053543
 30
0.0
 10
109.1564939437938
 20
-31.63357729650784
 30
0.0
 10
109.1564939437938
 20
-31.66180554764011
 30
0.0
 10
109.1600251666661
 20
-31.69001226692559
 30
0.0
 10
109.1600251666661
 20
-31.72530296380262
 30
0.0
 10
109.1600251666661
 20
-31.77820671134798
 30
0.0
 10
109.1635563895385
 20
-31.82406954499537
 30
0.0
 10
109.1635563895385
 20
-31.86640115577038
 30
0.0
 10
109.1706188352833
 20
-32.00752087958492
 30
0.0
 10
109.1882534177984
 20
-32.09571532400732
 30
0.0
 10
109.2094192231859
 20
-32.15921274016984
 30
0.0
 10
109.2446883882161
 20
-32.25446963033699
 30
0.0
 10
109.2552820568333
 20
-32.34266407475939
 30
0.0
 10
109.2411571653438
 20
-32.43792096492655
 30
0.0
 10
109.2235225828287
 20
-32.53315632324692
 30
0.0
 10
109.184722194926
 20
-32.63194443628646
 30
0.0
 10
109.1141623330187
 20
-32.7554080457391
 30
0.0
 10
109.0400927800859
 20
-32.8859341009365
 30
0.0
 10
109.015395751826
 20
-32.93532815745628
 30
0.0
 10
109.0083333060812
 20
-33.00235679649116
 30
0.0
 10
109.0083333060812
 20
-33.03411627049582
 30
0.0
 10
109.0083333060812
 20
-33.06938543552606
 30
0.0
 10
109.015395751826
 20
-33.11877949204582
 30
0.0
 10
109.0330303343411
 20
-33.31280296340575
 30
0.0
 10
109.0048020832089
 20
-33.63382126709068
 30
0.0
 10
108.9554080266891
 20
-33.74671273977296
 30
0.0
 10
108.9554080266891
 20
-33.74671273977296
 30
0.0
 10
108.9554080266891
 20
-33.75024396264534
 30
0.0
 10
108.9554080266891
 20
-33.75024396264534
 30
0.0
 10
108.9554080266891
 20
-33.75024396264534
 30
0.0
 10
108.9448358899187
 20
-33.77847221377761
 30
0.0
 10
108.9448358899187
 20
-33.77847221377761
 30
0.0
 10
108.9342422213016
 20
-33.83843840706774
 30
0.0
 10
108.9201388616588
 20
-33.89840460035787
 30
0.0
 10
108.9060355020161
 20
-33.95839232549478
 30
0.0
 10
108.9166076387865
 20
-34.01129607304015
 30
0.0
 10
108.9448358899187
 20
-34.08891838069219
 30
0.0
 10
108.9871675006937
 20
-34.18064404798696
 30
0.0
 10
109.0436024711115
 20
-34.29351398882245
 30
0.0
 10
109.1035901962484
 20
-34.46286196376927
 30
0.0
 10
109.1212247787635
 20
-34.55105640819166
 30
0.0
 10
109.1247560016359
 20
-34.57926312747715
 30
0.0
 10
109.1282872245083
 20
-34.62512596112454
 30
0.0
 10
109.1317969155339
 20
-34.68862337728705
 30
0.0
 10
109.1564939437938
 20
-35.12608590837343
 30
0.0
 10
109.1317969155339
 20
-36.34668323879745
 30
0.0
 10
109.0788931679885
 20
-37.12279865608389
 30
0.0
 10
109.0506649168562
 20
-37.57787423783861
 30
0.0
 10
109.0400927800859
 20
-38.02590890569535
 30
0.0
 10
109.0436024711115
 20
-38.61504176551985
 30
0.0
 10
109.0436024711115
 20
-38.61504176551985
 30
0.0
 10
109.0506649168562
 20
-39.32765976664379
 30
0.0
 10
109.0506649168562
 20
-39.32765976664379
 30
0.0
 10
109.0682994993714
 20
-39.41232298819379
 30
0.0
 10
109.0753619451161
 20
-39.49698620974381
 30
0.0
 10
109.0682994993714
 20
-39.57460851739585
 30
0.0
 10
109.0682994993714
 20
-39.57460851739585
 30
0.0
 10
109.0682994993714
 20
-39.60283676852812
 30
0.0
 10
109.0682994993714
 20
-39.60283676852812
 30
0.0
 10
109.0682994993714
 20
-39.71219701833801
 30
0.0
 10
109.0788931679885
 20
-39.7368940465979
 30
0.0
 10
109.1317969155339
 20
-39.77569443450052
 30
0.0
 10
109.227053805701
 20
-39.83566062779065
 30
0.0
 10
109.3223106958682
 20
-40.01204951663544
 30
0.0
 10
109.4069739174182
 20
-40.27310162703025
 30
0.0
 10
109.4457743053208
 20
-40.40009645935527
 30
0.0
 10
109.5128029443557
 20
-40.57648534820006
 30
0.0
 10
109.5586657780031
 20
-40.66821101549484
 30
0.0
 10
109.6009973887781
 20
-40.763467905662
 30
0.0
 10
109.6574538910427
 20
-40.90809732050214
 30
0.0
 10
109.6786196964302
 20
-40.99278207389894
 30
0.0
 10
109.7279922211031
 20
-41.19384645915683
 30
0.0
 10
109.7315234439755
 20
-41.65951570952869
 30
0.0
 10
109.6786196964302
 20
-41.94879607105577
 30
0.0
 10
109.6750884735578
 20
-41.9629209625453
 30
0.0
 10
109.6715572506854
 20
-41.9840867679328
 30
0.0
 10
109.668026027813
 20
-42.00172135044792
 30
0.0
 10
109.6221631941656
 20
-42.24513887832761
 30
0.0
 10
109.5163341672281
 20
-42.60144787888957
 30
0.0
 10
109.4845746932235
 20
-42.63671704391981
 30
0.0
 10
109.4810650021978
 20
-42.6402482667922
 30
0.0
 10
109.4845746932235
 20
-42.64731071253695
 30
0.0
 10
109.4810650021978
 20
-42.65082040356255
 30
0.0
 10
109.4775337793255
 20
-42.67551743182244
 30
0.0
 10
109.4810650021978
 20
-42.70727690582709
 30
0.0
 10
109.498699584713
 20
-42.75313973947447
 30
0.0
 10
109.5727691376459
 20
-42.96832901622189
 30
0.0
 10
109.5974661659057
 20
-43.28934731990683
 30
0.0
 10
109.5692594466203
 20
-43.5786276814339
 30
0.0
 10
109.5586657780031
 20
-43.67388457160106
 30
0.0
 10
109.5445624183604
 20
-43.76561023889584
 30
0.0
 10
109.5198653901005
 20
-43.85027346044585
 30
0.0
 10
109.5198653901005
 20
-43.85027346044585
 30
0.0
 10
109.5198653901005
 20
-43.85733590619061
 30
0.0
 10
109.5198653901005
 20
-43.85733590619061
 30
0.0
 10
109.5092717214833
 20
-43.903198739838
 30
0.0
 10
109.498699584713
 20
-43.95257126451099
 30
0.0
 10
109.4951683618406
 20
-43.99843409815837
 30
0.0
 10
109.4916371389682
 20
-44.02313112641826
 30
0.0
 10
109.4951683618406
 20
-44.04429693180577
 30
0.0
 10
109.4951683618406
 20
-44.06546273719327
 30
0.0
 10
109.4951683618406
 20
-44.08309731970839
 30
0.0
 10
109.4916371389682
 20
-44.10426312509589
 30
0.0
 10
109.4951683618406
 20
-44.11838801658542
 30
0.0
 10
109.5163341672281
 20
-44.2524452946552
 30
0.0
 10
109.4669401107083
 20
-44.52055985079478
 30
0.0
 10
109.396380248801
 20
-44.6475546831198
 30
0.0
 10
109.396380248801
 20
-44.6475546831198
 30
0.0
 10
109.3399452783833
 20
-44.74279004144017
 30
0.0
 10
109.3399452783833
 20
-44.74279004144017
 30
0.0
 10
109.3399452783833
 20
-44.74279004144017
 30
0.0
 10
109.4352021685505
 20
-44.8662751827396
 30
0.0
 10
109.4352021685505
 20
-44.8662751827396
 30
0.0
 10
109.6292256399104
 20
-45.11322393349166
 30
0.0
 10
109.7315234439755
 20
-45.50833332195625
 30
0.0
 10
109.710357638588
 20
-45.93871187545109
 30
0.0
 10
109.7032951928433
 20
-46.0233750970011
 30
0.0
 10
109.6997855018177
 20
-46.09746618178076
 30
0.0
 10
109.6891918332005
 20
-46.16802604368802
 30
0.0
 10
109.6644948049406
 20
-46.37264318366509
 30
0.0
 10
109.6151007484209
 20
-46.52786626712237
 30
0.0
 10
109.5163341672281
 20
-46.73952432099741
 30
0.0
 10
109.5163341672281
 20
-46.73952432099741
 30
0.0
 10
109.4281397228057
 20
-46.93001656948495
 30
0.0
 10
109.4281397228057
 20
-46.93001656948495
 30
0.0
 10
109.4281397228057
 20
-46.93001656948495
 30
0.0
 10
109.456367973938
 20
-47.41332040237193
 30
0.0
 10
109.456367973938
 20
-47.41332040237193
 30
0.0
 10
109.456367973938
 20
-47.41332040237193
 30
0.0
 10
109.4881059160958
 20
-47.89662423525892
 30
0.0
 10
109.4881059160958
 20
-47.89662423525892
 30
0.0
 10
109.4881059160958
 20
-47.89662423525892
 30
0.0
 10
109.4881059160958
 20
-47.9001554581313
 30
0.0
 10
109.4881059160958
 20
-47.9001554581313
 30
0.0
 10
109.4881059160958
 20
-47.9001554581313
 30
0.0
 10
109.4105051402906
 20
-48.21413284791826
 30
0.0
 10
109.4105051402906
 20
-48.21413284791826
 30
0.0
 10
109.4105051402906
 20
-48.21413284791826
 30
0.0
 10
109.4069739174182
 20
-48.228236207561
 30
0.0
 10
109.4069739174182
 20
-48.228236207561
 30
0.0
 10
109.3646423066432
 20
-48.40815631927817
 30
0.0
 10
109.3258419187406
 20
-48.57750429422498
 30
0.0
 10
109.3258419187406
 20
-48.60217979063808
 30
0.0
 10
109.3258419187406
 20
-48.60217979063808
 30
0.0
 10
109.3258419187406
 20
-48.60571101351046
 30
0.0
 10
109.3258419187406
 20
-48.60924223638285
 30
0.0
 10
109.3258419187406
 20
-48.63393926464273
 30
0.0
 10
109.3081858043787
 20
-48.68686454403488
 30
0.0
 10
109.2870199989912
 20
-48.72566493193751
 30
0.0
 10
109.2729166393484
 20
-48.75389318306978
 30
0.0
 10
109.2658541936037
 20
-48.78209990235525
 30
0.0
 10
109.2623229707313
 20
-48.81739059923229
 30
0.0
 10
109.2623229707313
 20
-48.85265976426254
 30
0.0
 10
109.2658541936037
 20
-48.89852259790991
 30
0.0
 10
109.2799790850932
 20
-48.97261368268957
 30
0.0
 10
109.2976136676083
 20
-49.08197393249947
 30
0.0
 10
109.2940824447359
 20
-49.2089687648245
 30
0.0
 10
109.2729166393484
 20
-49.35359817966464
 30
0.0
 10
109.2517508339609
 20
-49.52998706850944
 30
0.0
 10
109.1988255545688
 20
-49.74166665423125
 30
0.0
 10
109.1141623330187
 20
-50.00978121037082
 30
0.0
 10
109.1141623330187
 20
-50.00978121037082
 30
0.0
 10
109.1141623330187
 20
-50.02035334714118
 30
0.0
 10
109.1141623330187
 20
-50.02741579288595
 30
0.0
 10
109.1212247787635
 20
-50.06621618078857
 30
0.0
 10
109.1353281384062
 20
-50.14383848844061
 30
0.0
 10
109.1564939437938
 20
-50.22850170999062
 30
0.0
 10
109.1917846406708
 20
-50.35902776518803
 30
0.0
 10
109.1988255545688
 20
-50.47896015176828
 30
0.0
 10
109.1811909720536
 20
-50.59185162445056
 30
0.0
 10
109.1670876124109
 20
-50.70474309713284
 30
0.0
 10
109.1247560016359
 20
-50.81057212407036
 30
0.0
 10
109.057727362601
 20
-50.91289145998228
 30
0.0
 10
109.0012708603365
 20
-50.99755468153229
 30
0.0
 10
108.980105054949
 20
-51.04341751517968
 30
0.0
 10
108.9660016953062
 20
-51.14218409637244
 30
0.0
 10
108.9624704724338
 20
-51.17747479324947
 30
0.0
 10
108.9589392495615
 20
-51.21274395827971
 30
0.0
 10
108.9554080266891
 20
-51.26213801479948
 30
0.0
 10
108.9554080266891
 20
-51.29387595695735
 30
0.0
 10
108.9518983356635
 20
-51.32916665383437
 30
0.0
 10
108.9483671127911
 20
-51.36090459599223
 30
0.0
 10
108.9342422213016
 20
-51.45969270903178
 30
0.0
 10
108.9130764159141
 20
-51.56199051309691
 30
0.0
 10
108.8919106105266
 20
-51.61844701536145
 30
0.0
 10
108.8601726683687
 20
-51.70311023691146
 30
0.0
 10
108.8390068629812
 20
-51.77717978984433
 30
0.0
 10
108.8284131943641
 20
-51.85127087462399
 30
0.0
 10
108.8143098347213
 20
-51.95356867868913
 30
0.0
 10
108.8213507486193
 20
-52.05235679172867
 30
0.0
 10
108.8531102226239
 20
-52.14761368189583
 30
0.0
 10
108.8883793876542
 20
-52.25697393170572
 30
0.0
 10
108.895441833399
 20
-52.36633418151562
 30
0.0
 10
108.8919106105266
 20
-52.64502087442555
 30
0.0
 10
108.8919106105266
 20
-52.85667892830058
 30
0.0
 10
108.8778072508838
 20
-53.02249568037503
 30
0.0
 10
108.8601726683687
 20
-53.05776484540526
 30
0.0
 10
108.8601726683687
 20
-53.05776484540526
 30
0.0
 10
108.8601726683687
 20
-53.06129606827765
 30
0.0
 10
108.8566414454963
 20
-53.06129606827765
 30
0.0
 10
108.8566414454963
 20
-53.06129606827765
 30
0.0
 10
108.8566414454963
 20
-53.06482729115003
 30
0.0
 10
108.8566414454963
 20
-53.06482729115003
 30
0.0
 10
108.8531102226239
 20
-53.07542095976717
 30
0.0
 10
108.8495789997516
 20
-53.08246187366515
 30
0.0
 10
108.8460477768792
 20
-53.09305554228229
 30
0.0
 10
108.8425380858536
 20
-53.13185593018491
 30
0.0
 10
108.8637038912411
 20
-53.17771876383231
 30
0.0
 10
108.9201388616588
 20
-53.28707901364221
 30
0.0
 10
109.0083333060812
 20
-53.45640545674224
 30
0.0
 10
109.100058973376
 20
-53.73862337252455
 30
0.0
 10
109.1317969155339
 20
-53.95736540399113
 30
0.0
 10
109.1388593612786
 20
-53.99969701476614
 30
0.0
 10
109.1388593612786
 20
-54.02790373405162
 30
0.0
 10
109.1317969155339
 20
-54.05613198518389
 30
0.0
 10
109.1282872245083
 20
-54.08082901344377
 30
0.0
 10
109.1176935558911
 20
-54.10552604170366
 30
0.0
 10
109.0965277505036
 20
-54.13022306996354
 30
0.0
 10
109.0753619451161
 20
-54.15842978924903
 30
0.0
 10
109.057727362601
 20
-54.19018926325367
 30
0.0
 10
109.0471336939839
 20
-54.22194873725832
 30
0.0
 10
109.0118645289536
 20
-54.32777776419584
 30
0.0
 10
109.022436665724
 20
-54.465366265138
 30
0.0
 10
109.0788931679885
 20
-54.62763026249326
 30
0.0
 10
109.1317969155339
 20
-54.77932212307817
 30
0.0
 10
109.1459218070234
 20
-54.87104779037295
 30
0.0
 10
109.1459218070234
 20
-55.04037423347298
 30
0.0
 10
109.142390584151
 20
-55.16739059764478
 30
0.0
 10
109.1317969155339
 20
-55.31555123535731
 30
0.0
 10
109.1071214191208
 20
-55.44254606768234
 30
0.0
 10
109.0894653047589
 20
-55.56954090000735
 30
0.0
 10
109.0612585854734
 20
-55.67890114981725
 30
0.0
 10
109.0294991114687
 20
-55.73888887495417
 30
0.0
 10
109.0189269746984
 20
-55.75652345746929
 30
0.0
 10
109.0118645289536
 20
-55.77415803998441
 30
0.0
 10
109.0083333060812
 20
-55.78828293147394
 30
0.0
 10
108.9942299464385
 20
-55.83061454224894
 30
0.0
 10
108.9977396374641
 20
-55.87647737589634
 30
0.0
 10
109.0189269746984
 20
-55.97524395708909
 30
0.0
 10
109.057727362601
 20
-56.17279865132139
 30
0.0
 10
109.0506649168562
 20
-56.40211281955832
 30
0.0
 10
109.0118645289536
 20
-56.59613629091825
 30
0.0
 10
108.973064141051
 20
-56.79015976227816
 30
0.0
 10
108.9025042791437
 20
-56.94891406860783
 30
0.0
 10
108.8107786118489
 20
-57.01241148477034
 30
0.0
 10
108.8107786118489
 20
-57.01241148477034
 30
0.0
 10
108.7225841674265
 20
-57.06884645518808
 30
0.0
 10
108.7225841674265
 20
-57.06884645518808
 30
0.0
 10
108.7225841674265
 20
-57.06884645518808
 30
0.0
 10
108.7190529445541
 20
-57.16410334535524
 30
0.0
 10
108.7190529445541
 20
-57.16410334535524
 30
0.0
 10
108.7190529445541
 20
-57.16410334535524
 30
0.0
 10
108.7155217216818
 20
-57.30522306916979
 30
0.0
 10
108.7155217216818
 20
-57.30522306916979
 30
0.0
 10
108.7119904988094
 20
-57.37929262210266
 30
0.0
 10
108.7049495849114
 20
-57.45338370688231
 30
0.0
 10
108.6978871391667
 20
-57.53098448268757
 30
0.0
 10
108.6873150023963
 20
-57.60154434459484
 30
0.0
 10
108.6767213337791
 20
-57.66857298362974
 30
0.0
 10
108.6661491970088
 20
-57.73207039979224
 30
0.0
 10
108.6626179741364
 20
-57.74972651415414
 30
0.0
 10
108.659086751264
 20
-57.76736109666927
 30
0.0
 10
108.6555555283917
 20
-57.78146445631201
 30
0.0
 10
108.6414521687489
 20
-57.84496187247452
 30
0.0
 10
108.6273272772594
 20
-57.90141837473906
 30
0.0
 10
108.6132239176166
 20
-57.94728120838644
 30
0.0
 10
108.6132239176166
 20
-57.95079089941204
 30
0.0
 10
108.6096926947442
 20
-57.95432212228442
 30
0.0
 10
108.6096926947442
 20
-57.95785334515681
 30
0.0
 10
108.6061614718719
 20
-57.97548792767193
 30
0.0
 10
108.5991205579739
 20
-57.98961281916145
 30
0.0
 10
108.5920581122291
 20
-58.00018495593182
 30
0.0
 10
108.5920581122291
 20
-58.00018495593182
 30
0.0
 10
108.5920581122291
 20
-58.00371617880419
 30
0.0
 10
108.5920581122291
 20
-58.00371617880419
 30
0.0
 10
108.5849956664844
 20
-58.01781953844693
 30
0.0
 10
108.5779547525864
 20
-58.02841320706408
 30
0.0
 10
108.574423529714
 20
-58.03898534383444
 30
0.0
 10
108.574423529714
 20
-58.04251656670682
 30
0.0
 10
108.5708923068416
 20
-58.04251656670682
 30
0.0
 10
108.5708923068416
 20
-58.0460477895792
 30
0.0
 10
108.5461952785818
 20
-58.0883794003542
 30
0.0
 10
108.5109261135515
 20
-58.17304262190422
 30
0.0
 10
108.4932699991896
 20
-58.23303034704114
 30
0.0
 10
108.4932699991896
 20
-58.23303034704114
 30
0.0
 10
108.4791666395469
 20
-58.28240287171412
 30
0.0
 10
108.4791666395469
 20
-58.28240287171412
 30
0.0
 10
108.4791666395469
 20
-58.28240287171412
 30
0.0
 10
108.4862290852916
 20
-58.56464231934321
 30
0.0
 10
108.4862290852916
 20
-58.56464231934321
 30
0.0
 10
108.5356016099646
 20
-58.75866579070313
 30
0.0
 10
108.6626179741364
 20
-59.18200343029998
 30
0.0
 10
108.6978871391667
 20
-59.24903206933488
 30
0.0
 10
108.7119904988094
 20
-59.27723878862036
 30
0.0
 10
108.7437499728141
 20
-59.31252948549739
 30
0.0
 10
108.7684470010739
 20
-59.3336952908849
 30
0.0
 10
108.7860815835891
 20
-59.34779865052764
 30
0.0
 10
108.7966752522062
 20
-59.36543323304276
 30
0.0
 10
108.8001849432318
 20
-59.40425515279216
 30
0.0
 10
108.8037161661042
 20
-59.4430555406948
 30
0.0
 10
108.8001849432318
 20
-59.49949051111254
 30
0.0
 10
108.7966752522062
 20
-59.5947474012797
 30
0.0
 10
108.7225841674265
 20
-60.60721790070107
 30
0.0
 10
108.6696588880344
 20
-61.55265976108753
 30
0.0
 10
108.6731901109068
 20
-61.76784903783495
 30
0.0
 10
108.6731901109068
 20
-61.76784903783495
 30
0.0
 10
108.6731901109068
 20
-62.02539145720415
 30
0.0
 10
108.6731901109068
 20
-62.02539145720415
 30
0.0
 10
108.6731901109068
 20
-62.02539145720415
 30
0.0
 10
108.5497265014541
 20
-62.20882125994693
 30
0.0
 10
108.5497265014541
 20
-62.20882125994693
 30
0.0
 10
108.5250294731942
 20
-62.24764317969634
 30
0.0
 10
108.5038636678067
 20
-62.28291234472658
 30
0.0
 10
108.4826978624192
 20
-62.31467181873123
 30
0.0
 10
108.4403662516442
 20
-62.40637595417922
 30
0.0
 10
108.3733376126093
 20
-62.51573620398912
 30
0.0
 10
108.2921840820849
 20
-62.62158676277342
 30
0.0
 10
108.2428115574119
 20
-62.75211281797083
 30
0.0
 10
108.1052230564698
 20
-62.86147306778072
 30
0.0
 10
108.1052230564698
 20
-62.86147306778072
 30
0.0
 10
108.091119696827
 20
-62.87557642742346
 30
0.0
 10
108.0805260282099
 20
-62.89321100993859
 30
0.0
 10
108.0664226685671
 20
-62.90733590142812
 30
0.0
 10
108.0664226685671
 20
-62.90733590142812
 30
0.0
 10
108.091119696827
 20
-62.9143768153261
 30
0.0
 10
108.091119696827
 20
-62.9143768153261
 30
0.0
 10
108.091119696827
 20
-62.9143768153261
 30
0.0
 10
108.091119696827
 20
-62.91790803819847
 30
0.0
 10
108.091119696827
 20
-62.91790803819847
 30
0.0
 10
108.091119696827
 20
-62.91790803819847
 30
0.0
 10
108.0840572510822
 20
-63.30597651276509
 30
0.0
 10
108.0840572510822
 20
-63.30597651276509
 30
0.0
 10
108.0628914456948
 20
-64.33608159470157
 30
0.0
 10
108.0205598349198
 20
-65.40147737351508
 30
0.0
 10
107.9993940295322
 20
-65.5531692341
 30
0.0
 10
107.9464687501401
 20
-65.88124998352968
 30
0.0
 10
107.9006059164927
 20
-65.99414145621198
 30
0.0
 10
107.7559765016526
 20
-66.14583331679688
 30
0.0
 10
107.5972221953229
 20
-66.3151597598969
 30
0.0
 10
107.1562499732109
 20
-66.61501225819434
 30
0.0
 10
106.9974956668813
 20
-66.66087509184173
 30
0.0
 10
106.7611405847463
 20
-66.731434953749
 30
0.0
 10
105.7980641418447
 20
-66.7526007591365
 30
0.0
 10
103.0111110853583
 20
-66.73849739949377
 30
0.0
 10
101.4906397247901
 20
-66.731434953749
 30
0.0
 10
100.2206483378463
 20
-66.72086281697864
 30
0.0
 10
100.1853576409693
 20
-66.71026914836151
 30
0.0
 10
100.1465572530666
 20
-66.70320670261673
 30
0.0
 10
100.1006944194192
 20
-66.65736540081613
 30
0.0
 10
100.072466168287
 20
-66.60090889855159
 30
0.0
 10
100.023093643614
 20
-66.50565200838444
 30
0.0
 10
100.023093643614
 20
-66.67499998333124
 30
0.0
 10
100.0019063063797
 20
-77.31829950730888
 30
0.0
 10
99.99486539248175
 20
-79.68191492419845
 30
0.0
 10
99.99133416960937
 20
-81.526935811324
 30
0.0
 10
99.987802946737
 20
-82.98037853285734
 30
0.0
 10
99.98427172386461
 20
-87.45359817013964
 30
0.0
 10
99.99486539248175
 20
-88.10978120084582
 30
0.0
 10
100.0195624207416
 20
-88.27557642107347
 30
0.0
 10
100.0477691400271
 20
-88.4449028641735
 30
0.0
 10
100.0583628086442
 20
-88.6389478673802
 30
0.0
 10
100.0548315857719
 20
-88.8188464472506
 30
0.0
 10
100.0618940315166
 20
-89.00229778184014
 30
0.0
 10
100.0513003628995
 20
-89.17515544781256
 30
0.0
 10
100.0195624207416
 20
-89.35154433665735
 30
0.0
 10
99.99133416960937
 20
-89.51029864298702
 30
0.0
 10
99.96310591847711
 20
-89.60555553315417
 30
0.0
 10
99.9207743077021
 20
-89.65494958967395
 30
0.0
 10
99.88197391979948
 20
-89.70432211434692
 30
0.0
 10
99.85021444579484
 20
-89.79957900451408
 30
0.0
 10
99.81847650363697
 20
-89.97949911623125
 30
0.0
 10
99.79377947537708
 20
-90.12412853107141
 30
0.0
 10
99.7267508363422
 20
-90.41694011547084
 30
0.0
 10
99.67031586592444
 20
-90.63566061509066
 30
0.0
 10
99.61385936365992
 20
-90.85438111471045
 30
0.0
 10
99.58212142150204
 20
-91.00607297529537
 30
0.0
 10
99.57152775288491
 20
-91.1260268937224
 30
0.0
 10
99.58212142150204
 20
-91.20009644665527
 30
0.0
 10
99.59975600401717
 20
-91.26008417179219
 30
0.0
 10
99.63502516904741
 20
-91.32005036508232
 30
0.0
 10
99.67735677982242
 20
-91.39061022698959
 30
0.0
 10
99.71264747669945
 20
-91.51054261356986
 30
0.0
 10
99.7267508363422
 20
-91.61990286337974
 30
0.0
 10
99.74438541885731
 20
-91.73279433606202
 30
0.0
 10
99.82904864040733
 20
-91.99737766932923
 30
0.0
 10
99.94900255883436
 20
-92.31841750486093
 30
0.0
 10
100.0583628086442
 20
-92.60416664351563
 30
0.0
 10
100.2029922234844
 20
-93.04160764275522
 30
0.0
 10
100.2735520853917
 20
-93.29208761637968
 30
0.0
 10
100.3652777526864
 20
-93.6378029483245
 30
0.0
 10
100.4146718092062
 20
-93.76479778064952
 30
0.0
 10
100.464065865726
 20
-93.81772306004167
 30
0.0
 10
100.4993350307562
 20
-93.85299222507191
 30
0.0
 10
100.5310729729141
 20
-93.8988550587193
 30
0.0
 10
100.5310729729141
 20
-93.91295841836203
 30
0.0
 10
100.5310729729141
 20
-93.92708330985156
 30
0.0
 10
100.5663636697911
 20
-93.98704950314169
 30
0.0
 10
100.6122265034385
 20
-94.04348447355944
 30
0.0
 10
100.6862960563714
 20
-94.1387413637266
 30
0.0
 10
100.6898272792438
 20
-94.15286625521613
 30
0.0
 10
100.675723919601
 20
-94.2939644471839
 30
0.0
 10
100.675723919601
 20
-94.29749567005627
 30
0.0
 10
100.6721926967286
 20
-94.29749567005627
 30
0.0
 10
100.6721926967286
 20
-94.29749567005627
 30
0.0
 10
100.6862960563714
 20
-94.33276483508652
 30
0.0
 10
100.6827863653458
 20
-94.37509644586153
 30
0.0
 10
100.675723919601
 20
-94.44918753064118
 30
0.0
 10
100.6510268913411
 20
-94.66084558451621
 30
0.0
 10
100.555770001174
 20
-94.97129175143079
 30
0.0
 10
100.3970372266911
 20
-95.36993236276776
 30
0.0
 10
100.2312204746167
 20
-95.78973877949223
 30
0.0
 10
99.74085419598493
 20
-97.18321530773545
 30
0.0
 10
99.64208761479218
 20
-97.51129605716515
 30
0.0
 10
99.55742439324216
 20
-97.80057641869221
 30
0.0
 10
99.47980208559012
 20
-98.02989058692917
 30
0.0
 10
99.43747047481512
 20
-98.10749136273443
 30
0.0
 10
99.39867008691249
 20
-98.18511367038645
 30
0.0
 10
99.27518494561306
 20
-98.24154864080419
 30
0.0
 10
98.81304691811358
 20
-98.39677172426149
 30
0.0
 10
98.58375428172344
 20
-98.47439403191351
 30
0.0
 10
98.38619958749113
 20
-98.55552603059116
 30
0.0
 10
98.3509088906141
 20
-98.58726397274903
 30
0.0
 10
98.32270217132862
 20
-98.61902344675367
 30
0.0
 10
98.12514747709633
 20
-98.95416664192813
 30
0.0
 10
97.91346789137451
 20
-99.33515113890321
 30
0.0
 10
97.70180983749947
 20
-99.71262594485267
 30
0.0
 10
97.46545475536455
 20
-100.1253914476791
 30
0.0
 10
97.3913636705849
 20
-100.2488550571318
 30
0.0
 10
97.3913636705849
 20
-100.2488550571318
 30
0.0
 10
97.26787852928547
 20
-100.4464097513641
 30
0.0
 10
97.26787852928547
 20
-100.4464097513641
 30
0.0
 10
97.26787852928547
 20
-100.4464097513641
 30
0.0
 10
97.32786625442237
 20
-100.8238845573135
 30
0.0
 10
97.32786625442237
 20
-100.8238845573135
 30
0.0
 10
97.37019786519738
 20
-101.0990400273511
 30
0.0
 10
97.43016405848752
 20
-101.5188464440756
 30
0.0
 10
97.45839230961978
 20
-101.7552230580573
 30
0.0
 10
97.55364919978696
 20
-102.4925165555943
 30
0.0
 10
97.63831242133695
 20
-103.0957743069083
 30
0.0
 10
97.75824480791721
 20
-103.8365990273177
 30
0.0
 10
97.82174222407974
 20
-104.2317084157823
 30
0.0
 10
97.87466750347187
 20
-104.6515148325068
 30
0.0
 10
97.87819872634425
 20
-104.7749999738062
 30
0.0
 10
97.87819872634425
 20
-104.7749999738062
 30
0.0
 10
97.88523964024223
 20
-104.993720473426
 30
0.0
 10
97.88523964024223
 20
-104.993720473426
 30
0.0
 10
97.88523964024223
 20
-104.993720473426
 30
0.0
 10
97.88172994921664
 20
-105.0042926101964
 30
0.0
 10
97.88172994921664
 20
-105.0042926101964
 30
0.0
 10
97.88172994921664
 20
-105.0042926101964
 30
0.0
 10
97.88523964024223
 20
-105.1489435568833
 30
0.0
 10
97.88523964024223
 20
-105.1489435568833
 30
0.0
 10
97.88523964024223
 20
-105.1489435568833
 30
0.0
 10
97.58185591907242
 20
-105.798042609998
 30
0.0
 10
97.58185591907242
 20
-105.798042609998
 30
0.0
 10
97.04211711576768
 20
-106.9481016103615
 30
0.0
 10
96.98212939063077
 20
-107.0362960547839
 30
0.0
 10
96.51999136313129
 20
-107.2867760284083
 30
0.0
 10
95.95908675443906
 20
-107.5936909724505
 30
0.0
 10
95.3805260313849
 20
-107.8194739178151
 30
0.0
 10
94.97482297430318
 20
-107.8829713339776
 30
0.0
 10
93.5919401146771
 20
-108.1052230564698
 30
0.0
 10
93.11922995040726
 20
-108.1581268040151
 30
0.0
 10
92.35368666989119
 20
-108.175782918377
 30
0.0
 10
91.21775256101718
 20
-108.2004584147901
 30
0.0
 10
90.31464231140573
 20
-108.1087542793422
 30
0.0
 10
89.3797725877896
 20
-107.8794401111052
 30
0.0
 10
89.00936022758491
 20
-107.7877144438104
 30
0.0
 10
88.78357728222033
 20
-107.7136233590308
 30
0.0
 10
88.11684364659058
 20
-107.4596336943807
 30
0.0
 10
87.79580381105885
 20
-107.3396797759537
 30
0.0
 10
87.43245389659891
 20
-107.2126849436287
 30
0.0
 10
87.3089687552995
 20
-107.1774157785984
 30
0.0
 10
87.18903636871925
 20
-107.1421250817214
 30
0.0
 10
87.03381328526196
 20
-107.0821588884313
 30
0.0
 10
86.96325342335468
 20
-107.046889723401
 30
0.0
 10
86.87505897893229
 20
-107.004558112626
 30
0.0
 10
86.7833333116375
 20
-106.9833923072385
 30
0.0
 10
86.70573253583226
 20
-106.9869019982641
 30
0.0
 10
86.68103550757235
 20
-106.9727986386214
 30
0.0
 10
86.63870389679734
 20
-106.9798610843661
 30
0.0
 10
86.5893098402776
 20
-107.0010268897536
 30
0.0
 10
86.57871617166044
 20
-107.053930637299
 30
0.0
 10
86.49052172723804
 20
-107.1209592763339
 30
0.0
 10
86.25769786797551
 20
-107.2761823597912
 30
0.0
 10
85.80613197724639
 20
-107.5795876128078
 30
0.0
 10
85.31225600758904
 20
-107.7806519980657
 30
0.0
 10
84.75486108992241
 20
-107.8900122478756
 30
0.0
 10
84.74779864417763
 20
-107.8935434707479
 30
0.0
 10
84.74426742130525
 20
-107.8935434707479
 30
0.0
 10
84.74075773027966
 20
-107.8935434707479
 30
0.0
 10
84.4056145351052
 20
-107.9605721097828
 30
0.0
 10
84.04930553454324
 20
-107.9923315837875
 30
0.0
 10
83.664768282849
 20
-107.9923315837875
 30
0.0
 10
83.4037161724542
 20
-107.9923315837875
 30
0.0
 10
83.13209192528903
 20
-107.9746970012724
 30
0.0
 10
82.8569149234047
 20
-107.9464687501401
 30
0.0
 10
82.8569149234047
 20
-107.9464687501401
 30
0.0
 10
82.89218408843494
 20
-107.9817379151704
 30
0.0
 10
82.89218408843494
 20
-107.9817379151704
 30
0.0
 10
82.89218408843494
 20
-107.9817379151704
 30
0.0
 10
82.88514317453696
 20
-107.9817379151704
 30
0.0
 10
82.88514317453696
 20
-107.9817379151704
 30
0.0
 10
82.88514317453696
 20
-107.9817379151704
 30
0.0
 10
82.88514317453696
 20
-108.2322178887948
 30
0.0
 10
82.88514317453696
 20
-108.2322178887948
 30
0.0
 10
82.88514317453696
 20
-108.5250294731942
 30
0.0
 10
82.86750859202184
 20
-108.5602986382245
 30
0.0
 10
82.58526914439276
 20
-108.8672135822667
 30
0.0
 10
82.31364489722757
 20
-109.1600251666661
 30
0.0
 10
82.33834192548746
 20
-109.1529627209214
 30
0.0
 10
81.42816923013125
 20
-109.1670876124109
 30
0.0
 10
81.00483159053437
 20
-109.1705973034365
 30
0.0
 10
77.51232297866879
 20
-109.149431498049
 30
0.0
 10
73.65999567521564
 20
-109.1212247787635
 30
0.0
 10
63.83161195642708
 20
-109.0436024711115
 30
0.0
 10
49.69227259771148
 20
-108.937773444174
 30
0.0
 10
48.39052173676305
 20
-108.9342422213016
 30
0.0
 10
48.39052173676305
 20
-108.9342422213016
 30
0.0
 10
47.30045046153644
 20
-108.9271797755568
 30
0.0
 10
47.30045046153644
 20
-108.9271797755568
 30
0.0
 10
47.30045046153644
 20
-108.9271797755568
 30
0.0
 10
47.28281587902131
 20
-109.0083333060812
 30
0.0
 10
47.28281587902131
 20
-109.0083333060812
 30
0.0
 10
47.27222221040416
 20
-109.0541961397286
 30
0.0
 10
47.23695304537392
 20
-109.1353281384062
 30
0.0
 10
47.20519357136928
 20
-109.1952943316964
 30
0.0
 10
47.12406157269164
 20
-109.3258203868938
 30
0.0
 10
46.77128379500206
 20
-109.6891918332005
 30
0.0
 10
46.71482729273752
 20
-109.6962542789453
 30
0.0
 10
46.69366148735003
 20
-109.6997639699709
 30
0.0
 10
46.54903207250987
 20
-109.7032951928433
 30
0.0
 10
46.40087143479735
 20
-109.7032951928433
 30
0.0
 10
46.24915804236566
 20
-109.7068264157156
 30
0.0
 10
45.90344271042083
 20
-109.7209297753584
 30
0.0
 10
45.63179693140889
 20
-109.7385858897203
 30
0.0
 10
45.34957901562658
 20
-109.7562204722354
 30
0.0
 10
43.91377087660837
 20
-109.7809175004953
 30
0.0
 10
42.24867010119998
 20
-109.795020860138
 30
0.0
 10
40.66117010159685
 20
-109.8091242197808
 30
0.0
 10
38.95724740643908
 20
-109.8302900251683
 30
0.0
 10
38.46337143678173
 20
-109.8479461395302
 30
0.0
 10
36.02566493511251
 20
-109.922015692463
 30
0.0
 10
33.38336282531301
 20
-109.9820034176
 30
0.0
 10
32.03574913071719
 20
-109.9961067772427
 30
0.0
 10
32.03574913071719
 20
-109.9961067772427
 30
0.0
 10
30.53997479840885
 20
-110.0066789140131
 30
0.0
 10
30.53997479840885
 20
-110.0066789140131
 30
0.0
 10
30.53997479840885
 20
-110.0066789140131
 30
0.0
 10
30.40591752033906
 20
-109.9008498870756
 30
0.0
 10
30.40591752033906
 20
-109.9008498870756
 30
0.0
 10
30.33182643555941
 20
-109.8444149166578
 30
0.0
 10
30.26479779652452
 20
-109.7773862776229
 30
0.0
 10
30.25422565975415
 20
-109.752689249363
 30
0.0
 10
30.24716321400939
 20
-109.7315234439755
 30
0.0
 10
30.24010076826463
 20
-109.5727691376459
 30
0.0
 10
30.24010076826463
 20
-109.3999114716734
 30
0.0
 10
30.24010076826463
 20
-109.3999114716734
 30
0.0
 10
30.24010076826463
 20
-109.0859340818865
 30
0.0
 10
30.24010076826463
 20
-109.0859340818865
 30
0.0
 10
30.24010076826463
 20
-109.0859340818865
 30
0.0
 10
29.43930985456509
 20
-109.1035686644016
 30
0.0
 10
29.43930985456509
 20
-109.1035686644016
 30
0.0
 10
29.43930985456509
 20
-109.1035686644016
 30
0.0
 10
28.63496618614638
 20
-109.1212247787635
 30
0.0
 10
28.63496618614638
 20
-109.1212247787635
 30
0.0
 10
28.63496618614638
 20
-109.1212247787635
 30
0.0
 10
28.50797135382136
 20
-109.0189054428516
 30
0.0
 10
28.50797135382136
 20
-109.0189054428516
 30
0.0
 10
28.32452001923181
 20
-108.8742760280114
 30
0.0
 10
28.24338802055417
 20
-108.7825503607167
 30
0.0
 10
28.19752518690679
 20
-108.666127665162
 30
0.0
 10
28.15872479900416
 20
-108.5779332207396
 30
0.0
 10
28.1516623532594
 20
-108.3063089735744
 30
0.0
 10
28.13049654787189
 20
-106.4930260286067
 30
0.0
 10
28.05993668596462
 20
-100.6157361944641
 30
0.0
 10
28.01407385231723
 20
-96.26247047560887
 30
0.0
 10
28.01760507518961
 20
-95.59571530813233
 30
0.0
 10
28.01760507518961
 20
-95.59571530813233
 30
0.0
 10
28.01760507518961
 20
-95.34876655738026
 30
0.0
 10
28.01760507518961
 20
-95.34876655738026
 30
0.0
 10
28.01760507518961
 20
-95.34523533450787
 30
0.0
 10
28.021136298062
 20
-95.33819442060989
 30
0.0
 10
28.021136298062
 20
-95.33113197486514
 30
0.0
 10
28.01760507518961
 20
-95.28526914121774
 30
0.0
 10
28.01760507518961
 20
-95.23587508469798
 30
0.0
 10
28.01407385231723
 20
-95.18297133715261
 30
0.0
 10
28.01407385231723
 20
-95.18297133715261
 30
0.0
 10
27.99643926980211
 20
-94.88662852988078
 30
0.0
 10
27.99643926980211
 20
-94.88662852988078
 30
0.0
 10
27.99643926980211
 20
-94.88662852988078
 30
0.0
 10
27.78478121592707
 20
-94.81606866797351
 30
0.0
 10
27.78478121592707
 20
-94.81606866797351
 30
0.0
 10
27.66835852037241
 20
-94.78079950294326
 30
0.0
 10
27.46727260326773
 20
-94.69966750426562
 30
0.0
 10
27.33674654807033
 20
-94.6396797791287
 30
0.0
 10
27.20975171574531
 20
-94.57618236296621
 30
0.0
 10
27.0580598551604
 20
-94.51974739254845
 30
0.0
 10
26.99809366187027
 20
-94.50915372393131
 30
0.0
 10
26.76524827076095
 20
-94.4668221131563
 30
0.0
 10
26.25018496386931
 20
-94.17403206060363
 30
0.0
 10
25.96443582521462
 20
-93.92002086410681
 30
0.0
 10
25.80570305073174
 20
-93.77890114029225
 30
0.0
 10
25.67517699553433
 20
-93.51431780702506
 30
0.0
 10
25.62578293901456
 20
-93.22505897734478
 30
0.0
 10
25.62578293901456
 20
-93.22505897734478
 30
0.0
 10
25.58698255111194
 20
-93.01337939162296
 30
0.0
 10
25.58698255111194
 20
-93.01337939162296
 30
0.0
 10
25.58698255111194
 20
-93.01337939162296
 30
0.0
 10
23.12104779831045
 20
-89.90893925432398
 30
0.0
 10
23.12104779831045
 20
-89.90893925432398
 30
0.0
 10
21.76286196694427
 20
-88.20148533629382
 30
0.0
 10
19.26165804911254
 20
-85.05471358821983
 30
0.0
 10
17.56128810867391
 20
-82.92041233956721
 30
0.0
 10
16.36183505179062
 20
-81.40700342474373
 30
0.0
 10
15.31407385549223
 20
-80.08408675840781
 30
0.0
 10
14.79903208044738
 20
-79.42439403667602
 30
0.0
 10
14.79903208044738
 20
-79.42439403667602
 30
0.0
 10
14.7073064131526
 20
-79.31854347789172
 30
0.0
 10
14.56618668933805
 20
-79.15981070340883
 30
0.0
 10
14.42508849737029
 20
-78.99752517420679
 30
0.0
 10
14.23457471703597
 20
-78.77527345171461
 30
0.0
 10
14.04055124567606
 20
-78.54595928347766
 30
0.0
 10
13.76186455276613
 20
-78.21434731117559
 30
0.0
 10
13.77243668953649
 20
-77.84040372809849
 30
0.0
 10
13.80066494066876
 20
-77.65697392535573
 30
0.0
 10
13.80066494066876
 20
-77.65697392535573
 30
0.0
 10
13.79713371779638
 20
-77.47705381363855
 30
0.0
 10
13.79713371779638
 20
-77.47705381363855
 30
0.0
 10
13.79713371779638
 20
-77.47705381363855
 30
0.0
 10
13.79713371779638
 20
-77.32183073018126
 30
0.0
 10
13.79713371779638
 20
-77.32183073018126
 30
0.0
 10
13.79360249492399
 20
-77.02548792290944
 30
0.0
 10
13.83946532857138
 20
-73.03910334138649
 30
0.0
 10
13.89592183083591
 20
-68.4565234542943
 30
0.0
 10
13.89592183083591
 20
-68.4565234542943
 30
0.0
 10
13.99821963490105
 20
-60.28266837414374
 30
0.0
 10
13.99821963490105
 20
-60.28266837414374
 30
0.0
 10
13.99821963490105
 20
-60.28266837414374
 30
0.0
 10
13.90296274473389
 20
-60.20857728936409
 30
0.0
 10
13.90296274473389
 20
-60.20857728936409
 30
0.0
 10
13.58194444104896
 20
-59.94752517896928
 30
0.0
 10
13.42319013471929
 20
-59.76054262150735
 30
0.0
 10
12.98221791260731
 20
-59.11497479126509
 30
0.0
 10
12.33662855051827
 20
-58.16953293087863
 30
0.0
 10
10.88671705185731
 20
-55.84824912476406
 30
0.0
 10
10.79148169353694
 20
-55.60130037401201
 30
0.0
 10
10.74912855091515
 20
-55.4919401242021
 30
0.0
 10
10.73502519127241
 20
-55.41080812552447
 30
0.0
 10
10.73855641414479
 20
-54.95217978905059
 30
0.0
 10
10.73855641414479
 20
-54.76521876343543
 30
0.0
 10
10.74208763701717
 20
-54.50063543016824
 30
0.0
 10
10.74561885988955
 20
-54.10552604170366
 30
0.0
 10
10.74561885988955
 20
-54.01733159728126
 30
0.0
 10
10.74912855091515
 20
-53.93619959860362
 30
0.0
 10
10.74912855091515
 20
-53.85857729095159
 30
0.0
 10
10.74561885988955
 20
-53.32587940154483
 30
0.0
 10
10.71032816301252
 20
-52.90254176194798
 30
0.0
 10
10.59039577643226
 20
-51.72780726517135
 30
0.0
 10
10.4739730808776
 20
-50.57421704193544
 30
0.0
 10
10.37167527681246
 20
-49.38182643079691
 30
0.0
 10
10.33285335706305
 20
-48.62687681889797
 30
0.0
 10
10.28348083239007
 20
-47.74140115180163
 30
0.0
 10
10.1458923314479
 20
-46.59136368328488
 30
0.0
 10
10.03300085876562
 20
-46.11510076429587
 30
0.0
 10
9.909537249312981
 20
-45.59299654350627
 30
0.0
 10
9.831914941660945
 20
-44.98973879219223
 30
0.0
 10
9.842508610278088
 20
-44.62992010060466
 30
0.0
 10
9.842508610278088
 20
-44.62992010060466
 30
0.0
 10
9.842508610278088
 20
-44.62992010060466
 30
0.0
 10
9.842508610278088
 20
-44.6263888777323
 30
0.0
 10
9.842508610278088
 20
-44.6263888777323
 30
0.0
 10
9.842508610278088
 20
-44.47469701714738
 30
0.0
 10
9.842508610278088
 20
-44.47469701714738
 30
0.0
 10
9.849549524176067
 20
-44.29830812830259
 30
0.0
 10
9.990669247990615
 20
-39.51464232410572
 30
0.0
 10
10.15646446821826
 20
-33.8455008528125
 30
0.0
 10
10.32228122029269
 20
-28.17635938151928
 30
0.0
 10
10.46691063513284
 20
-23.44208763384217
 30
0.0
 10
10.4739730808776
 20
-23.31860249254274
 30
0.0
 10
10.48454521764796
 20
-23.19867010596249
 30
0.0
 10
10.49160766339272
 20
-22.9375964637209
 30
0.0
 10
10.4951388862651
 20
-22.74357299236098
 30
0.0
 10
10.50220133200986
 20
-22.40138888328854
 30
0.0
 10
10.50220133200986
 20
-22.38726399179902
 30
0.0
 10
10.57273966207036
 20
-22.29555985635102
 30
0.0
 10
10.61509280469214
 20
-22.24263457695887
 30
0.0
 10
10.70679694014014
 20
-22.14384646391934
 30
0.0
 10
10.77735680204741
 20
-22.07681782488444
 30
0.0
 10
10.84791666395469
 20
-22.00627949482395
 30
0.0
 10
11.21479780128701
 20
-21.64643927138961
 30
0.0
 10
11.5887413843641
 20
-21.27249568831252
 30
0.0
 10
11.96268496744118
 20
-20.89855210523543
 30
0.0
 10
12.41071963529793
 20
-20.47521446563858
 30
0.0
 10
12.58357730127034
 20
-20.33411627367081
 30
0.0
 10
12.88698255428693
 20
-20.08716752291875
 30
0.0
 10
13.47964663698382
 20
-19.64266407793439
 30
0.0
 10
13.61017269218122
 20
-19.56857299315473
 30
0.0
 10
13.66307643972659
 20
-19.54036627386925
 30
0.0
 10
13.88532816221877
 20
-19.53330382812449
 30
0.0
 10
14.80607299434536
 20
-19.52624138237973
 30
0.0
 10
15.42696532817451
 20
-19.52624138237973
 30
0.0
 10
15.97378810907079
 20
-19.51566924560937
 30
0.0
 10
16.0161197198458
 20
-19.5086067998646
 30
0.0
 10
16.08314835888069
 20
-19.49450344022186
 30
0.0
 10
16.15721791181356
 20
-19.42394357831459
 30
0.0
 10
16.39710421682086
 20
-19.12760077104275
 30
0.0
 10
16.77104779989795
 20
-18.66546274354327
 30
0.0
 10
16.98272738561977
 20
-18.38677605063334
 30
0.0
 10
17.03212144213954
 20
-18.27741580082344
 30
0.0
 10
17.05328724752704
 20
-18.23155296717605
 30
0.0
 10
17.0850251896849
 20
-18.07986110659114
 30
0.0
 10
17.09561885830205
 20
-17.93521015990422
 30
0.0
 10
17.10972221794479
 20
-17.79411196793645
 30
0.0
 10
17.13441924620467
 20
-17.64592979837714
 30
0.0
 10
17.1520538287198
 20
-17.6106606333469
 30
0.0
 10
17.16968841123492
 20
-17.56832902257189
 30
0.0
 10
17.32138027181983
 20
-17.44486541311925
 30
0.0
 10
17.51893496605212
 20
-17.30727691217708
 30
0.0
 10
18.1327863859833
 20
-16.87687682683547
 30
0.0
 10
18.95121188219796
 20
-16.22777777372083
 30
0.0
 10
20.42935163199119
 20
-15.00362768857765
 30
0.0
 10
20.96558074427032
 20
-14.55912424359329
 30
0.0
 10
21.47711282828958
 20
-14.14638027261358
 30
0.0
 10
21.56530727271197
 20
-14.08641407932345
 30
0.0
 10
21.65350171713437
 20
-14.02644788603332
 30
0.0
 10
21.734633715812
 20
-13.95235680125366
 30
0.0
 10
21.74522738442915
 20
-13.92059732724902
 30
0.0
 10
21.76992441268903
 20
-13.84299655144376
 30
0.0
 10
21.87222221675417
 20
-13.80772738641352
 30
0.0
 10
22.39432643754378
 20
-13.7054080505016
 30
0.0
 10
23.19867010596249
 20
-13.55018496704431
 30
0.0
 10
24.15117441209372
 20
-13.44435594010679
 30
0.0
 10
25.9468012426995
 20
-13.31382988490939
 30
0.0
 10
26.44069874420363
 20
-13.27856071987914
 30
0.0
 10
27.08275688342029
 20
-13.22916666335937
 30
0.0
 10
27.37554693597296
 20
-13.20800085797187
 30
0.0
 10
28.46917096591873
 20
-13.12684732744745
 30
0.0
 10
28.66319443727865
 20
-13.11980641354947
 30
0.0
 10
28.85721790863856
 20
-13.1586068014521
 30
0.0
 10
29.44988199133545
 20
-13.27149827413438
 30
0.0
 10
30.73046704689638
 20
-13.30676743916463
 30
0.0
 10
32.81539577087602
 20
-13.27149827413438
 30
0.0
 10
34.4134679072495
 20
-13.23973880012973
 30
0.0
 10
37.64492440872028
 20
-13.267967051262
 30
0.0
 10
39.68749999007812
 20
-13.32440202167975
 30
0.0
 10
40.13906588080724
 20
-13.33852691316927
 30
0.0
 10
42.22750429581248
 20
-13.34909904993963
 30
0.0
 10
44.33004607046046
 20
-13.34909904993963
 30
0.0
 10
46.43614059982759
 20
-13.34909904993963
 30
0.0
 10
48.55633848883748
 20
-13.36322394142916
 30
0.0
 10
49.04317354459685
 20
-13.3773273010719
 30
0.0
 10
50.99402345865992
 20
-13.43729349436203
 30
0.0
 10
53.54109021013903
 20
-13.53961283027395
 30
0.0
 10
55.18502518015991
 20
-13.62427605182396
 30
0.0
 10
55.85531157050883
 20
-13.65954521685421
 30
0.0
 10
56.77605640263542
 20
-13.70187682762922
 30
0.0
 10
57.22760076151775
 20
-13.71600171911874
 30
0.0
 10
57.67916665224688
 20
-13.73010507876148
 30
0.0
 10
58.30359020894841
 20
-13.76186455276613
 30
0.0
 10
58.61754606688858
 20
-13.78654004917923
 30
0.0
 10
59.1361405966526
 20
-13.82536196892864
 30
0.0
 10
59.40072392991979
 20
-13.82536196892864
 30
0.0
 10
61.35157384398286
 20
-13.79713371779638
 30
0.0
 10
63.16485678895054
 20
-13.77243668953649
 30
0.0
 10
64.05386367891925
 20
-13.77596791240887
 30
0.0
 10
66.88314834618068
 20
-13.81123707743912
 30
0.0
 10
70.34036626116925
 20
-13.85356868821413
 30
0.0
 10
71.83614059347759
 20
-13.84652777431615
 30
0.0
 10
74.54547134231198
 20
-13.76537424379173
 30
0.0
 10
75.70259278842027
 20
-13.73010507876148
 30
0.0
 10
77.41708762034843
 20
-13.75127088414899
 30
0.0
 10
78.08384278782496
 20
-13.80772738641352
 30
0.0
 10
78.35546703499012
 20
-13.82889319180102
 30
0.0
 10
78.83523964500473
 20
-13.85356868821413
 30
0.0
 10
79.15274825766407
 20
-13.85709991108651
 30
0.0
 10
79.59018925690367
 20
-13.86416235683127
 30
0.0
 10
79.75953723185049
 20
-13.87473449360163
 30
0.0
 10
79.87240717268598
 20
-13.91002519047866
 30
0.0
 10
80.01352689650053
 20
-13.95235680125366
 30
0.0
 10
80.03116147901565
 20
-13.96646016089641
 30
0.0
 10
80.18991578534532
 20
-14.17813974661823
 30
0.0
 10
80.4791961468724
 20
-14.57324913508282
 30
0.0
 10
80.56385936842241
 20
-14.72140977279534
 30
0.0
 10
81.02952861879428
 20
-15.71977691257396
 30
0.0
 10
81.10008848070155
 20
-15.87146877315887
 30
0.0
 10
81.26235247805681
 20
-16.16428035755832
 30
0.0
 10
81.38936884222863
 20
-16.37240718856098
 30
0.0
 10
81.6539521754958
 20
-16.80984818780057
 30
0.0
 10
81.75271875668856
 20
-17.0215277735224
 30
0.0
 10
81.8303410643406
 20
-17.34607730007971
 30
0.0
 10
81.8303410643406
 20
-17.34607730007971
 30
0.0
 10
81.88677603475834
 20
-17.58243238221463
 30
0.0
 10
81.88677603475834
 20
-17.58243238221463
 30
0.0
 10
81.88677603475834
 20
-17.58243238221463
 30
0.0
 10
81.98907383882348
 20
-17.58596360508702
 30
0.0
 10
81.98907383882348
 20
-17.58596360508702
 30
0.0
 10
82.04553034108801
 20
-17.5894948279594
 30
0.0
 10
84.04224308879847
 20
-17.67062682663703
 30
0.0
 10
86.41996186533077
 20
-17.76235249393181
 30
0.0
 10
88.9670286168099
 20
-17.86467182984373
 30
0.0
 10
90.76971789316043
 20
-17.94580382852136
 30
0.0
 10
90.8014773671651
 20
-17.9599071881641
 30
0.0
 10
90.82617439542497
 20
-17.97403207965363
 30
0.0
 10
91.11545475695205
 20
-18.28094702369582
 30
0.0
 10
91.44000428350937
 20
-18.64076571528338
 30
0.0
 10
91.76455381006666
 20
-19.00413716159011
 30
0.0
 10
92.04677172584899
 20
-19.30398965988754
 30
0.0
 10
92.07146875410888
 20
-19.31458332850469
 30
0.0
 10
92.09263455949637
 20
-19.32162424240267
 30
0.0
 10
92.22316061469378
 20
-19.34985249353493
 30
0.0
 10
92.36074911563594
 20
-19.37454952179482
 30
0.0
 10
92.36074911563594
 20
-19.37454952179482
 30
0.0
 10
92.61122908926038
 20
-19.4204123554422
 30
0.0
 10
92.61122908926038
 20
-19.4204123554422
 30
0.0
 10
92.61122908926038
 20
-19.4204123554422
 30
0.0
 10
93.53903636713175
 20
-18.71485680006304
 30
0.0
 10
93.53903636713175
 20
-18.71485680006304
 30
0.0
 10
94.05054691930422
 20
-18.32680985734321
 30
0.0
 10
94.49505036428858
 20
-17.99166666216875
 30
0.0
 10
94.53034106116559
 20
-17.97050085678124
 30
0.0
 10
94.58324480871096
 20
-17.93521015990422
 30
0.0
 10
94.8337247823354
 20
-17.93521015990422
 30
0.0
 10
97.07385505792556
 20
-17.97050085678124
 30
0.0
 10
97.77587939043234
 20
-17.98107299355161
 30
0.0
 10
98.42499997539377
 20
-17.99519788504113
 30
0.0
 10
98.90124136253598
 20
-18.00577002181149
 30
0.0
 10
98.894200448638
 20
-17.97754177067923
 30
0.0
 10
98.88713800289323
 20
-17.94580382852136
 30
0.0
 10
98.87656586612287
 20
-17.91404435451671
 30
0.0
 10
98.85537852888859
 20
-17.85760938409897
 30
0.0
 10
98.84833761499061
 20
-17.76588371680419
 30
0.0
 10
98.851868837863
 20
-17.63535766160678
 30
0.0
 10
98.85890975176097
 20
-17.42016838485937
 30
0.0
 10
98.89773167151039
 20
-17.09559732645527
 30
0.0
 10
98.97180122444325
 20
-16.62641838505781
 30
0.0
 10
99.01413283521826
 20
-16.34771016030109
 30
0.0
 10
99.06352689173804
 20
-16.03726399338652
 30
0.0
 10
99.07763025138077
 20
-15.93849741219376
 30
0.0
 10
99.08822391999791
 20
-15.83619960812862
 30
0.0
 10
99.1129209482578
 20
-15.72330813544634
 30
0.0
 10
99.12702430790055
 20
-15.68448621569693
 30
0.0
 10
99.19052172406304
 20
-15.52926313223965
 30
0.0
 10
99.64561883766457
 20
-15.17648535455006
 30
0.0
 10
99.9666371413495
 20
-15.03891838545468
 30
0.0
 10
100.0548315857719
 20
-15.00009646570527
 30
0.0
 10
100.0901007508021
 20
-14.98246188319015
 30
0.0
 10
100.1042256422916
 20
-14.9471927181599
 30
0.0
 10
100.107756865164
 20
-14.90132988451251
 30
0.0
 10
100.1112880880364
 20
-14.85193582799274
 30
0.0
 10
100.1218602248068
 20
-14.79196963470261
 30
0.0
 10
100.1253914476791
 20
-14.71787854992296
 30
0.0
 10
100.1324538934239
 20
-14.68614060776509
 30
0.0
 10
100.1394948073219
 20
-14.68260938489271
 30
0.0
 10
100.1641918355818
 20
-14.56971791221043
 30
0.0
 10
100.1994825324588
 20
-14.49915805030316
 30
0.0
 10
100.234751697489
 20
-14.45329521665577
 30
0.0
 10
100.2982491136515
 20
-14.31570671571361
 30
0.0
 10
100.4675755567516
 20
-14.11815202148131
 30
0.0
 10
100.6580893370859
 20
-13.97352260664117
 30
0.0
 10
101.3248229727157
 20
-13.47258419123906
 30
0.0
 10
102.2667551420765
 20
-13.20800085797187
 30
0.0
 10
103.6425755559578
 20
-13.14097221893698
 30
0.0
 10
104.6233081132213
 20
-13.09157816241721
 30
0.0
 10
105.7451388624526
 20
-13.22916666335937
 30
0.0
 10
106.3907282245416
 20
-13.47611541411144
 30
0.0
 10
106.7329123336141
 20
-13.61015116033444
 30
0.0
 10
107.004558112626
 20
-13.81123707743912
 30
0.0
 10
107.5090277509005
 20
-14.31219702468801
 30
0.0
 10
107.9570624187572
 20
-14.75316924679999
 30
0.0
 10
107.9676345555276
 20
-14.76727260644273
 30
0.0
 10
108.1087542793422
 20
-15.04949052222504
 30
0.0
 10
108.2604461399271
 20
-15.34583332949687
 30
0.0
 10
108.3451093614771
 20
-15.56455382911667
 30
0.0
 10
108.5073948906791
 20
-16.07608591313592
 30
0.0
 10
108.6026302489995
 20
-16.365366274663
 30
0.0
 10
108.6308585001318
 20
-16.53822394063541
 30
0.0
 10
108.6096926947442
 20
-16.6934470240927
 30
0.0
 10
108.6061614718719
 20
-16.74635077163807
 30
0.0
 10
108.5920581122291
 20
-16.79574482815783
 30
0.0
 10
108.574423529714
 20
-16.84867010754998
 30
0.0
 10
108.5426640557094
 20
-16.9333333291
 30
0.0
 10
108.5214982503219
 20
-17.02856868742037
 30
0.0
 10
108.5214982503219
 20
-17.05679693855264
 30
0.0
 10
108.5250294731942
 20
-17.09208763542967
 30
0.0
 10
108.5849956664844
 20
-17.25082040991255
 30
0.0
 10
108.659086751264
 20
-17.41663716198698
 30
0.0
 10
108.8107786118489
 20
-17.75178035716145
 30
0.0
 10
108.8566414454963
 20
-17.87877518948647
 30
0.0
 10
108.8495789997516
 20
-18.00577002181149
 30
0.0
 10
108.8460477768792
 20
-18.05163285545888
 30
0.0
 10
108.8390068629812
 20
-18.09396446623389
 30
0.0
 10
108.8248819714917
 20
-18.14688974562604
 30
0.0
 10
108.7896128064614
 20
-18.28094702369582
 30
0.0
 10
108.7719782239463
 20
-18.40087941027608
 30
0.0
 10
108.7649157782015
 20
-18.51377088295836
 30
0.0
 10
108.7649157782015
 20
-18.53846791121824
 30
0.0
 10
108.7684470010739
 20
-18.56316493947813
 30
0.0
 10
108.7684470010739
 20
-18.5913931906104
 30
0.0
 10
108.7684470010739
 20
-18.61959990989588
 30
0.0
 10
108.7649157782015
 20
-18.64782816102815
 30
0.0
 10
108.7684470010739
 20
-18.67605641216041
 30
0.0
 10
108.7719782239463
 20
-18.72896015970578
 30
0.0
 10
108.7825503607167
 20
-18.78188543909793
 30
0.0
 10
108.7931440293338
 20
-18.83481071849008
 30
0.0
 10
108.8425380858536
 20
-19.06057213200786
 30
0.0
 10
108.8637038912411
 20
-19.29694874598957
 30
0.0
 10
108.8495789997516
 20
-19.45921274334483
 30
0.0
 10
108.8460477768792
 20
-19.5086067998646
 30
0.0
 10
108.8425380858536
 20
-19.55093841063961
 30
0.0
 10
108.8319444172364
 20
-19.58620757566986
 30
0.0
 10
108.8213507486193
 20
-19.62149827254688
 30
0.0
 10
108.8143098347213
 20
-19.64266407793439
 30
0.0
 10
108.8072473889766
 20
-19.66029866044951
 30
0.0
 10
108.8001849432318
 20
-19.75555555061666
 30
0.0
 10
108.7790191378443
 20
-19.84374999503906
 30
0.0
 10
108.7543436414312
 20
-19.91781954797193
 30
0.0
 10
108.7543436414312
 20
-19.91781954797193
 30
0.0
 10
108.7508124185588
 20
-20.09773965968911
 30
0.0
 10
108.7508124185588
 20
-20.09773965968911
 30
0.0
 10
108.7508124185588
 20
-20.12949913369376
 30
0.0
 10
108.7508124185588
 20
-20.16829952159638
 30
0.0
 10
108.7543436414312
 20
-20.21063113237139
 30
0.0
 10
108.7578533324568
 20
-20.33411627367081
 30
0.0
 10
108.7719782239463
 20
-20.48931782528132
 30
0.0
 10
108.7896128064614
 20
-20.59516838406562
 30
0.0
 10
108.8107786118489
 20
-20.732735353161
 30
0.0
 10
108.8248819714917
 20
-20.90912424200579
 30
0.0
 10
108.8284131943641
 20
-21.15607299275786
 30
0.0
 10
108.8319444172364
 20
-21.24073621430787
 30
0.0
 10
108.8319444172364
 20
-21.32893065873027
 30
0.0
 10
108.8319444172364
 20
-21.43124999464219
 30
0.0
 10
108.8319444172364
 20
-21.53001657583494
 30
0.0
 10
108.8319444172364
 20
-21.63233591174686
 30
0.0
 10
108.8354756401088
 20
-21.74169616155676
 30
0.0
 10
108.8390068629812
 20
-22.09800516211873
 30
0.0
 10
108.8495789997516
 20
-22.49662424160892
 30
0.0
 10
108.8637038912411
 20
-22.84236110540052
 30
0.0
 10
108.8672135822667
 20
-22.86705813366041
 30
0.0
 10
108.8672135822667
 20
-22.89175516192029
 30
0.0
 10
108.8672135822667
 20
-22.91643065833339
 30
0.0
 10
108.8672135822667
 20
-22.91643065833339
 30
0.0
 10
108.8672135822667
 20
-22.92702432695054
 30
0.0
 10
108.8672135822667
 20
-22.92702432695054
 30
0.0
 10
108.8813384737562
 20
-23.22687682524797
 30
0.0
 10
108.8989730562713
 20
-23.47382557600004
 30
0.0
 10
108.9130764159141
 20
-23.59377949442708
 30
0.0
 10
108.9166076387865
 20
-23.61494529981458
 30
0.0
 10
108.9166076387865
 20
-23.62904865945732
 30
0.0
 10
108.9201388616588
 20
-23.64315201910006
 30
0.0
 10
108.9201388616588
 20
-23.64315201910006
 30
0.0
 10
108.937773444174
 20
-23.73840890926722
 30
0.0
 10
108.937773444174
 20
-23.73840890926722
 30
0.0
 10
108.9624704724338
 20
-23.79486541153175
 30
0.0
 10
108.9836362778213
 20
-23.85483160482188
 30
0.0
 10
108.9977396374641
 20
-23.91479779811201
 30
0.0
 10
109.0436024711115
 20
-23.98182643714691
 30
0.0
 10
109.0824243908609
 20
-24.0700208815693
 30
0.0
 10
109.1106311101464
 20
-24.16527777173646
 30
0.0
 10
109.1106311101464
 20
-24.16527777173646
 30
0.0
 10
109.1106311101464
 20
-24.16880899460884
 30
0.0
 10
109.1141623330187
 20
-24.17231868563444
 30
0.0
 10
109.1247560016359
 20
-24.21114060538385
 30
0.0
 10
109.1353281384062
 20
-24.24994099328648
 30
0.0
 10
109.142390584151
 20
-24.29227260406148
 30
0.0
 10
109.1459218070234
 20
-24.31696963232137
 30
0.0
 10
109.1494530298958
 20
-24.34166666058125
 30
0.0
 10
109.1529627209214
 20
-24.36636368884114
 30
0.0
 10
109.1564939437938
 20
-24.39457040812662
 30
0.0
 10
109.1635563895385
 20
-24.41926743638651
 30
0.0
 10
109.1635563895385
 20
-24.44749568751877
 30
0.0
 10
109.1635563895385
 20
-24.44749568751877
 30
0.0
 10
109.1776597491813
 20
-24.66621618713857
 30
0.0
 10
109.1776597491813
 20
-24.66621618713857
 30
0.0
 10
109.1776597491813
 20
-24.66621618713857
 30
0.0
 10
109.3717047523879
 20
-24.90610249214587
 30
0.0
 10
109.3717047523879
 20
-24.90610249214587
 30
0.0
 10
109.4775337793255
 20
-25.04015977021566
 30
0.0
 10
109.6186319712932
 20
-25.25888026983546
 30
0.0
 10
109.6962542789453
 20
-25.40704090754798
 30
0.0
 10
109.8056145287552
 20
-25.62929263004016
 30
0.0
 10
109.8303115570151
 20
-25.69985249194744
 30
0.0
 10
109.8408836937854
 20
-25.85154435253234
 30
0.0
  0
ENDSEC
  0
SECTION
  2
OBJECTS
  0
DICTIONARY
  5
C
330
0
100
AcDbDictionary
281
     1
  3
ACAD_COLOR
350
63
  3
ACAD_DETAILVIEWSTYLE
350
6A
  3
ACAD_GROUP
350
D
  3
ACAD_LAYOUT
350
62
  3
ACAD_MATERIAL
350
10
  3
ACAD_MLEADERSTYLE
350
66
  3
ACAD_MLINESTYLE
350
5F
  3
ACAD_PLOTSETTINGS
350
61
  3
ACAD_PLOTSTYLENAME
350
E
  3
ACAD_SCALELIST
350
42
  3
ACAD_SECTIONVIEWSTYLE
350
68
  3
ACAD_TABLESTYLE
350
64
  3
ACAD_VISUALSTYLE
350
29
  3
ACDB_RECOMPOSE_DATA
350
8E
  3
AcDbVariableDictionary
350
86
  0
DICTIONARY
  5
63
102
{ACAD_REACTORS
330
C
102
}
330
C
100
AcDbDictionary
281
     1
  0
DICTIONARY
  5
6A
102
{ACAD_REACTORS
330
C
102
}
330
C
100
AcDbDictionary
281
     1
  3
Imperial24
350
6B
  0
DICTIONARY
  5
D
102
{ACAD_REACTORS
330
C
102
}
330
C
100
AcDbDictionary
281
     1
  0
DICTIONARY
  5
62
102
{ACAD_REACTORS
330
C
102
}
330
C
100
AcDbDictionary
281
     1
  3
Layout1
350
6F
  3
Layout2
350
77
  3
Model
350
73
  0
DICTIONARY
  5
10
102
{ACAD_REACTORS
330
C
102
}
330
C
100
AcDbDictionary
281
     1
  3
ByBlock
350
19
  3
ByLayer
350
11
  3
Global
350
21
  0
DICTIONARY
  5
66
102
{ACAD_REACTORS
330
C
102
}
330
C
100
AcDbDictionary
281
     1
  3
Standard
350
67
  0
DICTIONARY
  5
5F
102
{ACAD_REACTORS
330
C
102
}
330
C
100
AcDbDictionary
281
     1
  3
Standard
350
60
  0
DICTIONARY
  5
61
102
{ACAD_REACTORS
330
C
102
}
330
C
100
AcDbDictionary
281
     1
  0
ACDBDICTIONARYWDFLT
  5
E
102
{ACAD_REACTORS
330
C
102
}
330
C
100
AcDbDictionary
281
     1
  3
Normal
350
F
100
AcDbDictionaryWithDefault
340
F
  0
DICTIONARY
  5
42
102
{ACAD_REACTORS
330
C
102
}
330
C
100
AcDbDictionary
281
     1
  3
A0
350
43
  3
A1
350
44
  3
A2
350
45
  3
A3
350
46
  3
A4
350
47
  3
A5
350
48
  3
A6
350
49
  3
A7
350
4A
  3
A8
350
4B
  3
A9
350
4C
  3
B0
350
4D
  3
B1
350
4E
  3
B2
350
4F
  3
B3
350
50
  3
B4
350
51
  3
B5
350
52
  3
B6
350
53
  0
DICTIONARY
  5
68
102
{ACAD_REACTORS
330
C
102
}
330
C
100
AcDbDictionary
281
     1
  3
Imperial24
350
69
  0
DICTIONARY
  5
64
102
{ACAD_REACTORS
330
C
102
}
330
C
100
AcDbDictionary
281
     1
  3
Standard
350
65
  0
DICTIONARY
  5
29
102
{ACAD_REACTORS
330
C
102
}
330
C
100
AcDbDictionary
281
     1
  3
2dWireframe
350
2F
  3
Basic
350
2E
  3
Brighten
350
35
  3
ColorChange
350
39
  3
Conceptual
350
32
  3
Dim
350
34
  3
EdgeColorOff
350
41
  3
Facepattern
350
38
  3
Flat
350
2A
  3
FlatWithEdges
350
2B
  3
Gouraud
350
2C
  3
GouraudWithEdges
350
2D
  3
Hidden
350
31
  3
JitterOff
350
3F
  3
Linepattern
350
37
  3
OverhangOff
350
40
  3
Realistic
350
33
  3
Shaded
350
3E
  3
Shaded with edges
350
3D
  3
Shades of Gray
350
3A
  3
Sketchy
350
3B
  3
Thicken
350
36
  3
Wireframe
350
30
  3
X-Ray
350
3C
  0
XRECORD
  5
8E
102
{ACAD_REACTORS
330
C
102
}
330
C
100
AcDbXrecord
280
     1
 90
        1
330
65
  0
DICTIONARY
  5
86
102
{ACAD_REACTORS
330
C
102
}
330
C
100
AcDbDictionary
281
     1
  3
CANNOSCALE
350
8B
  3
CMLEADERSTYLE
350
88
  3
CTABLESTYLE
350
87
  3
CVIEWDETAILSTYLE
350
89
  3
CVIEWSECTIONSTYLE
350
8A
  0
ACDBDETAILVIEWSTYLE
  5
6B
102
{ACAD_XDICTIONARY
360
91
102
}
102
{ACAD_REACTORS
330
6A
102
}
330
6A
100
AcDbModelDocViewStyle
 70
     0
  3
Imperial24
290
     0
100
AcDbDetailViewStyle
 70
     0
 71
     0
 90
        3
 71
     1
340
55
 62
   256
 40
0.24
340
0
 62
   256
 40
0.24
300

 40
0.36
280
     3
 71
     2
340
5D
 90
       25
 62
   256
 71
     3
340
55
 62
   256
 40
0.24
 90
        1
 40
0.75
 90
        1
300
%<\AcVar ViewType \f "%tc1">% %<\AcVar ViewDetailId>%\PSCALE %<\AcVar ViewScale \f "%sn">%
 71
     4
340
5D
 90
       25
 62
   256
340
5D
 90
       25
 62
   256
280
     0
  0
LAYOUT
  5
6F
102
{ACAD_REACTORS
330
62
102
}
330
62
100
AcDbPlotSettings
  1

  2

  4

  6

 40
0.0
 41
0.0
 42
0.0
 43
0.0
 44
0.0
 45
0.0
 46
0.0
 47
0.0
 48
0.0
 49
0.0
140
0.0
141
0.0
142
1.0
143
1.0
 70
   688
 72
     0
 73
     0
 74
     5
  7

 75
    16
147
1.0
 76
     0
 77
     2
 78
   300
148
0.0
149
0.0
100
AcDbLayout
  1
Layout1
 70
     1
 71
     1
 10
0.0
 20
0.0
 11
12.0
 21
9.0
 12
0.0
 22
0.0
 32
0.0
 14
0.0
 24
0.0
 34
0.0
 15
0.0
 25
0.0
 35
0.0
146
0.0
 13
0.0
 23
0.0
 33
0.0
 16
1.0
 26
0.0
 36
0.0
 17
0.0
 27
1.0
 37
0.0
 76
     0
330
6C
  0
LAYOUT
  5
77
102
{ACAD_REACTORS
330
62
102
}
330
62
100
AcDbPlotSettings
  1

  2

  4

  6

 40
0.0
 41
0.0
 42
0.0
 43
0.0
 44
0.0
 45
0.0
 46
0.0
 47
0.0
 48
0.0
 49
0.0
140
0.0
141
0.0
142
1.0
143
1.0
 70
   688
 72
     0
 73
     0
 74
     5
  7

 75
    16
147
1.0
 76
     0
 77
     2
 78
   300
148
0.0
149
0.0
100
AcDbLayout
  1
Layout2
 70
     1
 71
     2
 10
0.0
 20
0.0
 11
12.0
 21
9.0
 12
0.0
 22
0.0
 32
0.0
 14
0.0
 24
0.0
 34
0.0
 15
0.0
 25
0.0
 35
0.0
146
0.0
 13
0.0
 23
0.0
 33
0.0
 16
1.0
 26
0.0
 36
0.0
 17
0.0
 27
1.0
 37
0.0
 76
     0
330
74
  0
LAYOUT
  5
73
102
{ACAD_REACTORS
330
62
102
}
330
62
100
AcDbPlotSettings
  1

  2

  4

  6

 40
0.0
 41
0.0
 42
0.0
 43
0.0
 44
0.0
 45
0.0
 46
0.0
 47
0.0
 48
0.0
 49
0.0
140
0.0
141
0.0
142
1.0
143
1.0
 70
  1712
 72
     0
 73
     0
 74
     0
  7

 75
     0
147
1.0
 76
     0
 77
     2
 78
   300
148
0.0
149
0.0
100
AcDbLayout
  1
Model
 70
     1
 71
     0
 10
0.0
 20
0.0
 11
12.0
 21
9.0
 12
0.0
 22
0.0
 32
0.0
 14
0.0
 24
0.0
 34
0.0
 15
0.0
 25
0.0
 35
0.0
146
0.0
 13
0.0
 23
0.0
 33
0.0
 16
1.0
 26
0.0
 36
0.0
 17
0.0
 27
1.0
 37
0.0
 76
     0
330
70
  0
MATERIAL
  5
19
102
{ACAD_XDICTIONARY
360
1A
102
}
102
{ACAD_REACTORS
330
10
102
}
330
10
100
AcDbMaterial
  1
ByBlock
 72
     0
 43
0.0208333333333333
 43
0.0
 43
0.0
 43
0.0
 43
0.0
 43
0.0208333333333333
 43
0.0
 43
0.0
 43
0.0
 43
0.0
 43
1.0
 43
0.0
 43
0.0
 43
0.0
 43
0.0
 43
1.0
 77
     0
 47
0.0208333333333333
 47
0.0
 47
0.0
 47
0.0
 47
0.0
 47
0.0208333333333333
 47
0.0
 47
0.0
 47
0.0
 47
0.0
 47
1.0
 47
0.0
 47
0.0
 47
0.0
 47
0.0
 47
1.0
171
     0
 49
0.0208333333333333
 49
0.0
 49
0.0
 49
0.0
 49
0.0
 49
0.0208333333333333
 49
0.0
 49
0.0
 49
0.0
 49
0.0
 49
1.0
 49
0.0
 49
0.0
 49
0.0
 49
0.0
 49
1.0
175
     0
142
0.0208333333333333
142
0.0
142
0.0
142
0.0
142
0.0
142
0.0208333333333333
142
0.0
142
0.0
142
0.0
142
0.0
142
1.0
142
0.0
142
0.0
142
0.0
142
0.0
142
1.0
179
     0
144
0.0208333333333333
144
0.0
144
0.0
144
0.0
144
0.0
144
0.0208333333333333
144
0.0
144
0.0
144
0.0
144
0.0
144
1.0
144
0.0
144
0.0
144
0.0
144
0.0
144
1.0
147
0.0208333333333333
147
0.0
147
0.0
147
0.0
147
0.0
147
0.0208333333333333
147
0.0
147
0.0
147
0.0
147
0.0
147
1.0
147
0.0
147
0.0
147
0.0
147
0.0
147
1.0
  0
MATERIAL
  5
11
102
{ACAD_XDICTIONARY
360
12
102
}
102
{ACAD_REACTORS
330
10
102
}
330
10
100
AcDbMaterial
  1
ByLayer
 72
     0
 43
0.0208333333333333
 43
0.0
 43
0.0
 43
0.0
 43
0.0
 43
0.0208333333333333
 43
0.0
 43
0.0
 43
0.0
 43
0.0
 43
1.0
 43
0.0
 43
0.0
 43
0.0
 43
0.0
 43
1.0
 77
     0
 47
0.0208333333333333
 47
0.0
 47
0.0
 47
0.0
 47
0.0
 47
0.0208333333333333
 47
0.0
 47
0.0
 47
0.0
 47
0.0
 47
1.0
 47
0.0
 47
0.0
 47
0.0
 47
0.0
 47
1.0
171
     0
 49
0.0208333333333333
 49
0.0
 49
0.0
 49
0.0
 49
0.0
 49
0.0208333333333333
 49
0.0
 49
0.0
 49
0.0
 49
0.0
 49
1.0
 49
0.0
 49
0.0
 49
0.0
 49
0.0
 49
1.0
175
     0
142
0.0208333333333333
142
0.0
142
0.0
142
0.0
142
0.0
142
0.0208333333333333
142
0.0
142
0.0
142
0.0
142
0.0
142
1.0
142
0.0
142
0.0
142
0.0
142
0.0
142
1.0
179
     0
144
0.0208333333333333
144
0.0
144
0.0
144
0.0
144
0.0
144
0.0208333333333333
144
0.0
144
0.0
144
0.0
144
0.0
144
1.0
144
0.0
144
0.0
144
0.0
144
0.0
144
1.0
147
0.0208333333333333
147
0.0
147
0.0
147
0.0
147
0.0
147
0.0208333333333333
147
0.0
147
0.0
147
0.0
147
0.0
147
1.0
147
0.0
147
0.0
147
0.0
147
0.0
147
1.0
  0
MATERIAL
  5
21
102
{ACAD_XDICTIONARY
360
22
102
}
102
{ACAD_REACTORS
330
10
102
}
330
10
100
AcDbMaterial
  1
Global
 72
     0
 43
0.0208333333333333
 43
0.0
 43
0.0
 43
0.0
 43
0.0
 43
0.0208333333333333
 43
0.0
 43
0.0
 43
0.0
 43
0.0
 43
1.0
 43
0.0
 43
0.0
 43
0.0
 43
0.0
 43
1.0
 77
     0
 47
0.0208333333333333
 47
0.0
 47
0.0
 47
0.0
 47
0.0
 47
0.0208333333333333
 47
0.0
 47
0.0
 47
0.0
 47
0.0
 47
1.0
 47
0.0
 47
0.0
 47
0.0
 47
0.0
 47
1.0
171
     0
 49
0.0208333333333333
 49
0.0
 49
0.0
 49
0.0
 49
0.0
 49
0.0208333333333333
 49
0.0
 49
0.0
 49
0.0
 49
0.0
 49
1.0
 49
0.0
 49
0.0
 49
0.0
 49
0.0
 49
1.0
175
     0
142
0.0208333333333333
142
0.0
142
0.0
142
0.0
142
0.0
142
0.0208333333333333
142
0.0
142
0.0
142
0.0
142
0.0
142
1.0
142
0.0
142
0.0
142
0.0
142
0.0
142
1.0
179
     0
144
0.0208333333333333
144
0.0
144
0.0
144
0.0
144
0.0
144
0.0208333333333333
144
0.0
144
0.0
144
0.0
144
0.0
144
1.0
144
0.0
144
0.0
144
0.0
144
0.0
144
1.0
147
0.0208333333333333
147
0.0
147
0.0
147
0.0
147
0.0
147
0.0208333333333333
147
0.0
147
0.0
147
0.0
147
0.0
147
1.0
147
0.0
147
0.0
147
0.0
147
0.0
147
1.0
  0
MLEADERSTYLE
  5
67
102
{ACAD_REACTORS
330
66
102
}
330
66
100
AcDbMLeaderStyle
179
     2
170
     2
171
     1
172
     0
 90
        2
 40
0.0
 41
0.0
173
     1
 91
-1056964608
340
5B
 92
       -2
290
     1
 42
0.09
291
     1
 43
0.36
  3
Standard
 44
0.18
300

342
55
174
     1
178
     6
175
     1
176
     0
 93
-1056964608
 45
0.18
292
     0
297
     0
 46
0.18
 94
-1056964608
 47
1.0
 49
1.0
140
1.0
293
     1
141
0.0
294
     1
177
     0
142
1.0
295
     0
296
     0
143
0.125
271
     0
272
     9
273
     9
298
     1
  0
MLINESTYLE
  5
60
102
{ACAD_REACTORS
330
5F
102
}
330
5F
100
AcDbMlineStyle
  2
STANDARD
 70
     0
  3

 62
   256
 51
90.0
 52
90.0
 71
     2
 49
0.5
 62
   256
  6
BYLAYER
 49
-0.5
 62
   256
  6
BYLAYER
  0
ACDBPLACEHOLDER
  5
F
102
{ACAD_REACTORS
330
E
102
}
330
E
  0
SCALE
  5
43
102
{ACAD_REACTORS
330
42
102
}
330
42
100
AcDbScale
 70
     0
300
1:1
140
1.0
141
1.0
290
     1
  0
SCALE
  5
44
102
{ACAD_REACTORS
330
42
102
}
330
42
100
AcDbScale
 70
     0
300
1/128" = 1'-0"
140
0.0078125
141
12.0
290
     0
  0
SCALE
  5
45
102
{ACAD_REACTORS
330
42
102
}
330
42
100
AcDbScale
 70
     0
300
1/64" = 1'-0"
140
0.015625
141
12.0
290
     0
  0
SCALE
  5
46
102
{ACAD_REACTORS
330
42
102
}
330
42
100
AcDbScale
 70
     0
300
1/32" = 1'-0"
140
0.03125
141
12.0
290
     0
  0
SCALE
  5
47
102
{ACAD_REACTORS
330
42
102
}
330
42
100
AcDbScale
 70
     0
300
1/16" = 1'-0"
140
0.0625
141
12.0
290
     0
  0
SCALE
  5
48
102
{ACAD_REACTORS
330
42
102
}
330
42
100
AcDbScale
 70
     0
300
3/32" = 1'-0"
140
0.09375
141
12.0
290
     0
  0
SCALE
  5
49
102
{ACAD_REACTORS
330
42
102
}
330
42
100
AcDbScale
 70
     0
300
1/8" = 1'-0"
140
0.125
141
12.0
290
     0
  0
SCALE
  5
4A
102
{ACAD_REACTORS
330
42
102
}
330
42
100
AcDbScale
 70
     0
300
3/16" = 1'-0"
140
0.1875
141
12.0
290
     0
  0
SCALE
  5
4B
102
{ACAD_REACTORS
330
42
102
}
330
42
100
AcDbScale
 70
     0
300
1/4" = 1'-0"
140
0.25
141
12.0
290
     0
  0
SCALE
  5
4C
102
{ACAD_REACTORS
330
42
102
}
330
42
100
AcDbScale
 70
     0
300
3/8" = 1'-0"
140
0.375
141
12.0
290
     0
  0
SCALE
  5
4D
102
{ACAD_REACTORS
330
42
102
}
330
42
100
AcDbScale
 70
     0
300
1/2" = 1'-0"
140
0.5
141
12.0
290
     0
  0
SCALE
  5
4E
102
{ACAD_REACTORS
330
42
102
}
330
42
100
AcDbScale
 70
     0
300
3/4" = 1'-0"
140
0.75
141
12.0
290
     0
  0
SCALE
  5
4F
102
{ACAD_REACTORS
330
42
102
}
330
42
100
AcDbScale
 70
     0
300
1" = 1'-0"
140
1.0
141
12.0
290
     0
  0
SCALE
  5
50
102
{ACAD_REACTORS
330
42
102
}
330
42
100
AcDbScale
 70
     0
300
1-1/2" = 1'-0"
140
1.5
141
12.0
290
     0
  0
SCALE
  5
51
102
{ACAD_REACTORS
330
42
102
}
330
42
100
AcDbScale
 70
     0
300
3" = 1'-0"
140
3.0
141
12.0
290
     0
  0
SCALE
  5
52
102
{ACAD_REACTORS
330
42
102
}
330
42
100
AcDbScale
 70
     0
300
6" = 1'-0"
140
6.0
141
12.0
290
     0
  0
SCALE
  5
53
102
{ACAD_REACTORS
330
42
102
}
330
42
100
AcDbScale
 70
     0
300
1'-0" = 1'-0"
140
12.0
141
12.0
290
     0
  0
ACDBSECTIONVIEWSTYLE
  5
69
102
{ACAD_XDICTIONARY
360
8F
102
}
102
{ACAD_REACTORS
330
68
102
}
330
68
100
AcDbModelDocViewStyle
 70
     0
  3
Imperial24
290
     0
100
AcDbSectionViewStyle
 70
     0
 71
     0
 90
       78
 71
     1
340
55
 62
   256
 40
0.24
340
0
340
0
 62
   256
 40
0.24
300
I, O, Q, S, X, Z
 40
0.48
 90
        3
 40
0.18
 90
        1
 71
     2
340
5D
 90
       25
 62
   256
340
5D
 90
       50
 62
   256
 40
0.24
 40
0.0
 40
0.24
 71
     3
340
55
 62
   256
 40
0.24
 90
        1
 40
0.75
 90
        1
300
%<\AcVar ViewType \f "%tc1">% %<\AcVar ViewSectionStartId>%-%<\AcVar ViewSectionEndId>%\PSCALE %<\AcVar ViewScale \f "%sn">%
 71
     4
 62
   256
 62
   257
300
ANSI31
 40
1.0
 90
        0
290
     0
290
     0
 90
        6
 40
0.0
 40
1.570796326794896
 40
0.2617993877991494
 40
1.308996938995747
 40
-0.2617993877991494
 40
1.832595714594046
  0
TABLESTYLE
  5
65
102
{ACAD_XDICTIONARY
360
8C
102
}
102
{ACAD_REACTORS
330
64
102
}
330
64
100
AcDbTableStyle
280
     0
  3
Standard
 70
     0
 71
     0
 40
0.06
 41
0.06
280
     0
281
     0
  7
Standard
140
0.18
170
     2
 62
     0
 63
     7
283
     0
 90
      512
 91
        0
  1

274
    -2
284
     1
 64
     0
275
    -2
285
     1
 65
     0
276
    -2
286
     1
 66
     0
277
    -2
287
     1
 67
     0
278
    -2
288
     1
 68
     0
279
    -2
289
     1
 69
     0
  7
Standard
140
0.25
170
     5
 62
     0
 63
     7
283
     0
 90
      512
 91
        0
  1

274
    -2
284
     1
 64
     0
275
    -2
285
     1
 65
     0
276
    -2
286
     1
 66
     0
277
    -2
287
     1
 67
     0
278
    -2
288
     1
 68
     0
279
    -2
289
     1
 69
     0
  7
Standard
140
0.18
170
     5
 62
     0
 63
     7
283
     0
 90
      512
 91
        0
  1

274
    -2
284
     1
 64
     0
275
    -2
285
     1
 65
     0
276
    -2
286
     1
 66
     0
277
    -2
287
     1
 67
     0
278
    -2
288
     1
 68
     0
279
    -2
289
     1
 69
     0
  0
VISUALSTYLE
  5
2F
102
{ACAD_REACTORS
330
29
102
}
330
29
100
AcDbVisualStyle
  2
2dWireframe
 70
     4
177
     3
291
     0
 70
    58
 90
        0
176
     1
 90
        2
176
     1
 90
        0
176
     1
 90
        0
176
     1
 40
0.6
176
     1
 40
30.0
176
     1
 62
     7
420
 16777215
176
     1
 90
        1
176
     1
 90
        4
176
     1
 62
     7
176
     1
 62
   257
176
     1
 90
        1
176
     1
 90
        1
176
     1
 40
1.0
176
     1
 90
        0
176
     1
 62
   257
176
     1
 40
1.0
176
     1
 90
        1
176
     1
 90
        6
176
     1
 90
        2
176
     1
 62
     7
176
     1
 90
        5
176
     1
 90
        0
176
     1
 90
        0
176
     1
290
     0
176
     1
 90
        1
176
     1
 40
0.0
176
     1
 90
        0
176
     1
290
     1
176
     1
290
     1
176
     1
290
     0
176
     1
290
     0
176
     1
290
     0
176
     1
290
     0
176
     1
290
     0
176
     1
290
     0
176
     1
290
     0
176
     1
 90
       50
176
     1
 40
0.0
176
     1
 40
1.0
176
     1
 90
        0
176
     1
 62
    18
420
        0
176
     1
 90
       50
176
     1
 90
        3
176
     1
 62
     5
420
      255
176
     1
290
     0
176
     1
 90
       50
176
     1
 90
       50
176
     1
 90
       50
176
     1
290
     0
176
     1
 90
       50
176
     1
 62
   256
176
     0
 40
1.0
176
     0
 90
        2
176
     1
  1
strokes_ogs.tif
176
     1
290
     0
176
     1
 40
1.0
176
     1
 40
1.0
176
     1
1001
ACAD
1000
AcDbSavedByObjectVersion
1070
     0
  0
VISUALSTYLE
  5
2E
102
{ACAD_REACTORS
330
29
102
}
330
29
100
AcDbVisualStyle
  2
Basic
 70
     7
177
     3
291
     1
 70
    58
 90
        1
176
     1
 90
        0
176
     1
 90
        1
176
     1
 90
        0
176
     1
 40
0.6
176
     1
 40
30.0
176
     1
 62
     7
420
 16777215
176
     1
 90
        0
176
     1
 90
        4
176
     1
 62
     7
176
     1
 62
   257
176
     1
 90
        1
176
     1
 90
        1
176
     1
 40
1.0
176
     1
 90
        8
176
     1
 62
     7
176
     1
 40
1.0
176
     1
 90
        1
176
     1
 90
        6
176
     1
 90
        2
176
     1
 62
     7
176
     1
 90
        5
176
     1
 90
        0
176
     1
 90
        0
176
     1
290
     0
176
     1
 90
        1
176
     1
 40
0.0
176
     1
 90
        0
176
     1
290
     0
176
     1
290
     1
176
     1
290
     1
176
     1
290
     0
176
     1
290
     0
176
     1
290
     0
176
     1
290
     0
176
     1
290
     0
176
     1
290
     0
176
     1
 90
       50
176
     1
 40
0.0
176
     1
 40
1.0
176
     1
 90
        0
176
     1
 62
    18
420
        0
176
     1
 90
       50
176
     1
 90
        3
176
     1
 62
     5
420
      255
176
     1
290
     0
176
     1
 90
       50
176
     1
 90
       50
176
     1
 90
       50
176
     1
290
     0
176
     1
 90
       50
176
     1
 62
   256
176
     0
 40
1.0
176
     0
 90
        2
176
     1
  1
strokes_ogs.tif
176
     1
290
     0
176
     1
 40
1.0
176
     1
 40
1.0
176
     1
1001
ACAD
1000
AcDbSavedByObjectVersion
1070
     0
  0
VISUALSTYLE
  5
35
102
{ACAD_REACTORS
330
29
102
}
330
29
100
AcDbVisualStyle
  2
Brighten
 70
    12
177
     3
291
     1
 70
    58
 90
        2
176
     1
 90
        2
176
     1
 90
        0
176
     1
 90
        0
176
     1
 40
0.6
176
     1
 40
30.0
176
     1
 62
     7
420
 16777215
176
     1
 90
        1
176
     1
 90
        4
176
     1
 62
     7
176
     1
 62
   257
176
     1
 90
        1
176
     1
 90
        1
176
     1
 40
1.0
176
     1
 90
        8
176
     1
 62
     7
176
     1
 40
1.0
176
     1
 90
        1
176
     1
 90
        6
176
     1
 90
        2
176
     1
 62
     7
176
     1
 90
        5
176
     1
 90
        0
176
     1
 90
        0
176
     1
290
     0
176
     1
 90
        1
176
     1
 40
50.0
176
     1
 90
        0
176
     1
290
     0
176
     1
290
     1
176
     1
290
     1
176
     1
290
     0
176
     1
290
     0
176
     1
290
     0
176
     1
290
     0
176
     1
290
     0
176
     1
290
     0
176
     1
 90
       50
176
     1
 40
0.0
176
     1
 40
1.0
176
     1
 90
        0
176
     1
 62
    18
420
        0
176
     1
 90
       50
176
     1
 90
        3
176
     1
 62
     5
420
      255
176
     1
290
     0
176
     1
 90
       50
176
     1
 90
       50
176
     1
 90
       50
176
     1
290
     0
176
     1
 90
       50
176
     1
 62
   256
176
     0
 40
1.0
176
     0
 90
        2
176
     1
  1
strokes_ogs.tif
176
     1
290
     0
176
     1
 40
1.0
176
     1
 40
1.0
176
     1
1001
ACAD
1000
AcDbSavedByObjectVersion
1070
     0
  0
VISUALSTYLE
  5
39
102
{ACAD_REACTORS
330
29
102
}
330
29
100
AcDbVisualStyle
  2
ColorChange
 70
    16
177
     3
291
     1
 70
    58
 90
        2
176
     1
 90
        2
176
     1
 90
        3
176
     1
 90
        0
176
     1
 40
0.6
176
     1
 40
30.0
176
     1
 62
     8
420
  8421504
176
     1
 90
        1
176
     1
 90
        4
176
     1
 62
     7
176
     1
 62
   257
176
     1
 90
        1
176
     1
 90
        1
176
     1
 40
1.0
176
     1
 90
        8
176
     1
 62
     8
420
  8421504
176
     1
 40
1.0
176
     1
 90
        1
176
     1
 90
        6
176
     1
 90
        2
176
     1
 62
     7
176
     1
 90
        5
176
     1
 90
        0
176
     1
 90
        0
176
     1
290
     0
176
     1
 90
        1
176
     1
 40
0.0
176
     1
 90
        0
176
     1
290
     0
176
     1
290
     1
176
     1
290
     1
176
     1
290
     0
176
     1
290
     0
176
     1
290
     0
176
     1
290
     0
176
     1
290
     0
176
     1
290
     0
176
     1
 90
       50
176
     1
 40
0.0
176
     1
 40
1.0
176
     1
 90
        0
176
     1
 62
    18
420
        0
176
     1
 90
       50
176
     1
 90
        3
176
     1
 62
     5
420
      255
176
     1
290
     0
176
     1
 90
       50
176
     1
 90
       50
176
     1
 90
       50
176
     1
290
     0
176
     1
 90
       50
176
     1
 62
   256
176
     0
 40
1.0
176
     0
 90
        2
176
     1
  1
strokes_ogs.tif
176
     1
290
     0
176
     1
 40
1.0
176
     1
 40
1.0
176
     1
1001
ACAD
1000
AcDbSavedByObjectVersion
1070
     0
  0
VISUALSTYLE
  5
32
102
{ACAD_REACTORS
330
29
102
}
330
29
100
AcDbVisualStyle
  2
Conceptual
 70
     9
177
     3
291
     0
 70
    58
 90
        3
176
     1
 90
        2
176
     1
 90
        0
176
     1
 90
        0
176
     1
 40
0.6
176
     1
 40
30.0
176
     1
 62
     7
420
 16777215
176
     1
 90
        2
176
     1
 90
        2
176
     1
 62
     7
176
     1
 62
   257
176
     1
 90
        1
176
     1
 90
        1
176
     1
 40
179.0
176
     1
 90
        8
176
     1
 62
     7
176
     1
 40
1.0
176
     1
 90
        1
176
     1
 90
        6
176
     1
 90
        2
176
     1
 62
     7
176
     1
 90
        3
176
     1
 90
        0
176
     1
 90
        0
176
     1
290
     0
176
     1
 90
        1
176
     1
 40
0.0
176
     1
 90
        0
176
     1
290
     0
176
     1
290
     1
176
     1
290
     1
176
     1
290
     0
176
     1
290
     0
176
     1
290
     0
176
     1
290
     0
176
     1
290
     0
176
     1
290
     0
176
     1
 90
       50
176
     1
 40
0.0
176
     1
 40
1.0
176
     1
 90
        0
176
     1
 62
    18
420
        0
176
     1
 90
       50
176
     1
 90
        3
176
     1
 62
     5
420
      255
176
     1
290
     0
176
     1
 90
       50
176
     1
 90
       50
176
     1
 90
       50
176
     1
290
     0
176
     1
 90
       50
176
     1
 62
   256
176
     0
 40
1.0
176
     0
 90
        2
176
     1
  1
strokes_ogs.tif
176
     1
290
     0
176
     1
 40
1.0
176
     1
 40
1.0
176
     1
1001
ACAD
1000
AcDbSavedByObjectVersion
1070
     0
  0
VISUALSTYLE
  5
34
102
{ACAD_REACTORS
330
29
102
}
330
29
100
AcDbVisualStyle
  2
Dim
 70
    11
177
     3
291
     1
 70
    58
 90
        2
176
     1
 90
        2
176
     1
 90
        0
176
     1
 90
        0
176
     1
 40
0.6
176
     1
 40
30.0
176
     1
 62
     7
420
 16777215
176
     1
 90
        1
176
     1
 90
        4
176
     1
 62
     7
176
     1
 62
   257
176
     1
 90
        1
176
     1
 90
        1
176
     1
 40
1.0
176
     1
 90
        8
176
     1
 62
     7
176
     1
 40
1.0
176
     1
 90
        1
176
     1
 90
        6
176
     1
 90
        2
176
     1
 62
     7
176
     1
 90
        5
176
     1
 90
        0
176
     1
 90
        0
176
     1
290
     0
176
     1
 90
        1
176
     1
 40
-50.0
176
     1
 90
        0
176
     1
290
     0
176
     1
290
     1
176
     1
290
     1
176
     1
290
     0
176
     1
290
     0
176
     1
290
     0
176
     1
290
     0
176
     1
290
     0
176
     1
290
     0
176
     1
 90
       50
176
     1
 40
0.0
176
     1
 40
1.0
176
     1
 90
        0
176
     1
 62
    18
420
        0
176
     1
 90
       50
176
     1
 90
        3
176
     1
 62
     5
420
      255
176
     1
290
     0
176
     1
 90
       50
176
     1
 90
       50
176
     1
 90
       50
176
     1
290
     0
176
     1
 90
       50
176
     1
 62
   256
176
     0
 40
1.0
176
     0
 90
        2
176
     1
  1
strokes_ogs.tif
176
     1
290
     0
176
     1
 40
1.0
176
     1
 40
1.0
176
     1
1001
ACAD
1000
AcDbSavedByObjectVersion
1070
     0
  0
VISUALSTYLE
  5
41
102
{ACAD_REACTORS
330
29
102
}
330
29
100
AcDbVisualStyle
  2
EdgeColorOff
 70
    22
177
     3
291
     1
 70
    58
 90
        2
176
     0
 90
        2
176
     0
 90
        0
176
     0
 90
        0
176
     0
 40
0.6
176
     0
 40
30.0
176
     0
 62
     7
420
 16777215
176
     0
 90
        1
176
     0
 90
        4
176
     0
 62
     7
176
     0
 62
   257
176
     0
 90
        1
176
     0
 90
        1
176
     0
 40
1.0
176
     0
 90
        8
176
     2
 62
     7
176
     0
 40
1.0
176
     0
 90
        1
176
     0
 90
        6
176
     0
 90
        2
176
     0
 62
     7
176
     0
 90
        5
176
     0
 90
        0
176
     0
 90
        0
176
     0
290
     0
176
     0
 90
        1
176
     0
 40
0.0
176
     0
 90
        0
176
     0
290
     0
176
     0
290
     1
176
     0
290
     1
176
     0
290
     0
176
     0
290
     0
176
     0
290
     0
176
     0
290
     0
176
     0
290
     0
176
     0
290
     0
176
     0
 90
       50
176
     0
 40
0.0
176
     0
 40
1.0
176
     0
 90
        0
176
     0
 62
    18
420
        0
176
     0
 90
       50
176
     0
 90
        3
176
     0
 62
     5
420
      255
176
     0
290
     0
176
     0
 90
       50
176
     0
 90
       50
176
     0
 90
       50
176
     0
290
     0
176
     0
 90
       50
176
     0
 62
   256
176
     0
 40
1.0
176
     0
 90
        2
176
     0
  1
strokes_ogs.tif
176
     0
290
     0
176
     0
 40
1.0
176
     0
 40
1.0
176
     0
1001
ACAD
1000
AcDbSavedByObjectVersion
1070
     0
  0
VISUALSTYLE
  5
38
102
{ACAD_REACTORS
330
29
102
}
330
29
100
AcDbVisualStyle
  2
Facepattern
 70
    15
177
     3
291
     1
 70
    58
 90
        2
176
     1
 90
        2
176
     1
 90
        0
176
     1
 90
        0
176
     1
 40
0.6
176
     1
 40
30.0
176
     1
 62
     7
420
 16777215
176
     1
 90
        1
176
     1
 90
        4
176
     1
 62
     7
176
     1
 62
   257
176
     1
 90
        1
176
     1
 90
        1
176
     1
 40
1.0
176
     1
 90
        8
176
     1
 62
     7
176
     1
 40
1.0
176
     1
 90
        1
176
     1
 90
        6
176
     1
 90
        2
176
     1
 62
     7
176
     1
 90
        5
176
     1
 90
        0
176
     1
 90
        0
176
     1
290
     0
176
     1
 90
        1
176
     1
 40
0.0
176
     1
 90
        0
176
     1
290
     0
176
     1
290
     1
176
     1
290
     1
176
     1
290
     0
176
     1
290
     0
176
     1
290
     0
176
     1
290
     0
176
     1
290
     0
176
     1
290
     0
176
     1
 90
       50
176
     1
 40
0.0
176
     1
 40
1.0
176
     1
 90
        0
176
     1
 62
    18
420
        0
176
     1
 90
       50
176
     1
 90
        3
176
     1
 62
     5
420
      255
176
     1
290
     0
176
     1
 90
       50
176
     1
 90
       50
176
     1
 90
       50
176
     1
290
     0
176
     1
 90
       50
176
     1
 62
   256
176
     0
 40
1.0
176
     0
 90
        2
176
     1
  1
strokes_ogs.tif
176
     1
290
     0
176
     1
 40
1.0
176
     1
 40
1.0
176
     1
1001
ACAD
1000
AcDbSavedByObjectVersion
1070
     0
  0
VISUALSTYLE
  5
2A
102
{ACAD_REACTORS
330
29
102
}
330
29
100
AcDbVisualStyle
  2
Flat
 70
     0
177
     3
291
     1
 70
    58
 90
        2
176
     1
 90
        1
176
     1
 90
        1
176
     1
 90
        2
176
     1
 40
0.6
176
     1
 40
30.0
176
     1
 62
     7
420
 16777215
176
     1
 90
        0
176
     1
 90
        0
176
     1
 62
     7
176
     1
 62
   257
176
     1
 90
        1
176
     1
 90
        1
176
     1
 40
1.0
176
     1
 90
        8
176
     1
 62
     7
176
     1
 40
1.0
176
     1
 90
        1
176
     1
 90
        6
176
     1
 90
        2
176
     1
 62
     7
176
     1
 90
        5
176
     1
 90
        0
176
     1
 90
        0
176
     1
290
     0
176
     1
 90
       13
176
     1
 40
0.0
176
     1
 90
        0
176
     1
290
     0
176
     1
290
     1
176
     1
290
     1
176
     1
290
     0
176
     1
290
     0
176
     1
290
     0
176
     1
290
     0
176
     1
290
     0
176
     1
290
     0
176
     1
 90
       50
176
     1
 40
0.0
176
     1
 40
1.0
176
     1
 90
        0
176
     1
 62
    18
420
        0
176
     1
 90
       50
176
     1
 90
        3
176
     1
 62
     5
420
      255
176
     1
290
     0
176
     1
 90
       50
176
     1
 90
       50
176
     1
 90
       50
176
     1
290
     0
176
     1
 90
       50
176
     1
 62
   256
176
     0
 40
1.0
176
     0
 90
        2
176
     1
  1
strokes_ogs.tif
176
     1
290
     0
176
     1
 40
1.0
176
     1
 40
1.0
176
     1
1001
ACAD
1000
AcDbSavedByObjectVersion
1070
     0
  0
VISUALSTYLE
  5
2B
102
{ACAD_REACTORS
330
29
102
}
330
29
100
AcDbVisualStyle
  2
FlatWithEdges
 70
     1
177
     3
291
     1
 70
    58
 90
        2
176
     1
 90
        1
176
     1
 90
        1
176
     1
 90
        2
176
     1
 40
0.6
176
     1
 40
30.0
176
     1
 62
     7
420
 16777215
176
     1
 90
        1
176
     1
 90
        0
176
     1
 62
     7
176
     1
 62
   257
176
     1
 90
        1
176
     1
 90
        1
176
     1
 40
1.0
176
     1
 90
        0
176
     1
 62
   257
176
     1
 40
1.0
176
     1
 90
        1
176
     1
 90
        6
176
     1
 90
        2
176
     1
 62
     7
176
     1
 90
        5
176
     1
 90
        0
176
     1
 90
        0
176
     1
290
     0
176
     1
 90
       13
176
     1
 40
0.0
176
     1
 90
        0
176
     1
290
     0
176
     1
290
     1
176
     1
290
     1
176
     1
290
     0
176
     1
290
     0
176
     1
290
     0
176
     1
290
     0
176
     1
290
     0
176
     1
290
     0
176
     1
 90
       50
176
     1
 40
0.0
176
     1
 40
1.0
176
     1
 90
        0
176
     1
 62
    18
420
        0
176
     1
 90
       50
176
     1
 90
        3
176
     1
 62
     5
420
      255
176
     1
290
     0
176
     1
 90
       50
176
     1
 90
       50
176
     1
 90
       50
176
     1
290
     0
176
     1
 90
       50
176
     1
 62
   256
176
     0
 40
1.0
176
     0
 90
        2
176
     1
  1
strokes_ogs.tif
176
     1
290
     0
176
     1
 40
1.0
176
     1
 40
1.0
176
     1
1001
ACAD
1000
AcDbSavedByObjectVersion
1070
     0
  0
VISUALSTYLE
  5
2C
102
{ACAD_REACTORS
330
29
102
}
330
29
100
AcDbVisualStyle
  2
Gouraud
 70
     2
177
     3
291
     1
 70
    58
 90
        2
176
     1
 90
        2
176
     1
 90
        1
176
     1
 90
        2
176
     1
 40
0.6
176
     1
 40
30.0
176
     1
 62
     7
420
 16777215
176
     1
 90
        0
176
     1
 90
        0
176
     1
 62
     7
176
     1
 62
   257
176
     1
 90
        1
176
     1
 90
        1
176
     1
 40
1.0
176
     1
 90
        0
176
     1
 62
     7
176
     1
 40
1.0
176
     1
 90
        1
176
     1
 90
        6
176
     1
 90
        2
176
     1
 62
     7
176
     1
 90
        5
176
     1
 90
        0
176
     1
 90
        0
176
     1
290
     0
176
     1
 90
       13
176
     1
 40
0.0
176
     1
 90
        0
176
     1
290
     0
176
     1
290
     1
176
     1
290
     1
176
     1
290
     0
176
     1
290
     0
176
     1
290
     0
176
     1
290
     0
176
     1
290
     0
176
     1
290
     0
176
     1
 90
       50
176
     1
 40
0.0
176
     1
 40
1.0
176
     1
 90
        0
176
     1
 62
    18
420
        0
176
     1
 90
       50
176
     1
 90
        3
176
     1
 62
     5
420
      255
176
     1
290
     0
176
     1
 90
       50
176
     1
 90
       50
176
     1
 90
       50
176
     1
290
     0
176
     1
 90
       50
176
     1
 62
   256
176
     0
 40
1.0
176
     0
 90
        2
176
     1
  1
strokes_ogs.tif
176
     1
290
     0
176
     1
 40
1.0
176
     1
 40
1.0
176
     1
1001
ACAD
1000
AcDbSavedByObjectVersion
1070
     0
  0
VISUALSTYLE
  5
2D
102
{ACAD_REACTORS
330
29
102
}
330
29
100
AcDbVisualStyle
  2
GouraudWithEdges
 70
     3
177
     3
291
     1
 70
    58
 90
        2
176
     1
 90
        2
176
     1
 90
        1
176
     1
 90
        2
176
     1
 40
0.6
176
     1
 40
30.0
176
     1
 62
     7
420
 16777215
176
     1
 90
        1
176
     1
 90
        0
176
     1
 62
     7
176
     1
 62
   257
176
     1
 90
        1
176
     1
 90
        1
176
     1
 40
1.0
176
     1
 90
        0
176
     1
 62
   257
176
     1
 40
1.0
176
     1
 90
        1
176
     1
 90
        6
176
     1
 90
        2
176
     1
 62
     7
176
     1
 90
        5
176
     1
 90
        0
176
     1
 90
        0
176
     1
290
     0
176
     1
 90
       13
176
     1
 40
0.0
176
     1
 90
        0
176
     1
290
     0
176
     1
290
     1
176
     1
290
     1
176
     1
290
     0
176
     1
290
     0
176
     1
290
     0
176
     1
290
     0
176
     1
290
     0
176
     1
290
     0
176
     1
 90
       50
176
     1
 40
0.0
176
     1
 40
1.0
176
     1
 90
        0
176
     1
 62
    18
420
        0
176
     1
 90
       50
176
     1
 90
        3
176
     1
 62
     5
420
      255
176
     1
290
     0
176
     1
 90
       50
176
     1
 90
       50
176
     1
 90
       50
176
     1
290
     0
176
     1
 90
       50
176
     1
 62
   256
176
     0
 40
1.0
176
     0
 90
        2
176
     1
  1
strokes_ogs.tif
176
     1
290
     0
176
     1
 40
1.0
176
     1
 40
1.0
176
     1
1001
ACAD
1000
AcDbSavedByObjectVersion
1070
     0
  0
VISUALSTYLE
  5
31
102
{ACAD_REACTORS
330
29
102
}
330
29
100
AcDbVisualStyle
  2
Hidden
 70
     6
177
     3
291
     0
 70
    58
 90
        1
176
     1
 90
        2
176
     1
 90
        2
176
     1
 90
        0
176
     1
 40
0.6
176
     1
 40
30.0
176
     1
 62
     7
420
 16777215
176
     1
 90
        2
176
     1
 90
        2
176
     1
 62
     7
176
     1
 62
   257
176
     1
 90
        2
176
     1
 90
        1
176
     1
 40
40.0
176
     1
 90
        0
176
     1
 62
   257
176
     1
 40
1.0
176
     1
 90
        1
176
     1
 90
        6
176
     1
 90
        2
176
     1
 62
     7
176
     1
 90
        3
176
     1
 90
        0
176
     1
 90
        0
176
     1
290
     0
176
     1
 90
        1
176
     1
 40
0.0
176
     1
 90
        0
176
     1
290
     0
176
     1
290
     1
176
     1
290
     1
176
     1
290
     0
176
     1
290
     0
176
     1
290
     0
176
     1
290
     0
176
     1
290
     0
176
     1
290
     0
176
     1
 90
       50
176
     1
 40
0.0
176
     1
 40
1.0
176
     1
 90
        0
176
     1
 62
    18
420
        0
176
     1
 90
       50
176
     1
 90
        3
176
     1
 62
     5
420
      255
176
     1
290
     0
176
     1
 90
       50
176
     1
 90
       50
176
     1
 90
       50
176
     1
290
     0
176
     1
 90
       50
176
     1
 62
   256
176
     0
 40
1.0
176
     0
 90
        2
176
     1
  1
strokes_ogs.tif
176
     1
290
     0
176
     1
 40
1.0
176
     1
 40
1.0
176
     1
1001
ACAD
1000
AcDbSavedByObjectVersion
1070
     0
  0
VISUALSTYLE
  5
3F
102
{ACAD_REACTORS
330
29
102
}
330
29
100
AcDbVisualStyle
  2
JitterOff
 70
    20
177
     3
291
     1
 70
    58
 90
        2
176
     0
 90
        2
176
     0
 90
        0
176
     0
 90
        0
176
     0
 40
0.6
176
     0
 40
30.0
176
     0
 62
     7
420
 16777215
176
     0
 90
        1
176
     0
 90
        4
176
     0
 62
     7
176
     0
 62
   257
176
     0
 90
        1
176
     0
 90
        1
176
     0
 40
1.0
176
     0
 90
       10
176
     2
 62
     7
176
     0
 40
1.0
176
     0
 90
        1
176
     0
 90
        6
176
     0
 90
        2
176
     0
 62
     7
176
     0
 90
        5
176
     0
 90
        0
176
     0
 90
        0
176
     0
290
     0
176
     0
 90
        1
176
     0
 40
0.0
176
     0
 90
        0
176
     0
290
     0
176
     0
290
     1
176
     0
290
     1
176
     0
290
     0
176
     0
290
     0
176
     0
290
     0
176
     0
290
     0
176
     0
290
     0
176
     0
290
     0
176
     0
 90
       50
176
     0
 40
0.0
176
     0
 40
1.0
176
     0
 90
        0
176
     0
 62
    18
420
        0
176
     0
 90
       50
176
     0
 90
        3
176
     0
 62
     5
420
      255
176
     0
290
     0
176
     0
 90
       50
176
     0
 90
       50
176
     0
 90
       50
176
     0
290
     0
176
     0
 90
       50
176
     0
 62
   256
176
     0
 40
1.0
176
     0
 90
        2
176
     0
  1
strokes_ogs.tif
176
     0
290
     0
176
     0
 40
1.0
176
     0
 40
1.0
176
     0
1001
ACAD
1000
AcDbSavedByObjectVersion
1070
     0
  0
VISUALSTYLE
  5
37
102
{ACAD_REACTORS
330
29
102
}
330
29
100
AcDbVisualStyle
  2
Linepattern
 70
    14
177
     3
291
     1
 70
    58
 90
        2
176
     1
 90
        2
176
     1
 90
        0
176
     1
 90
        0
176
     1
 40
0.6
176
     1
 40
30.0
176
     1
 62
     7
420
 16777215
176
     1
 90
        1
176
     1
 90
        4
176
     1
 62
     7
176
     1
 62
   257
176
     1
 90
        7
176
     1
 90
        7
176
     1
 40
1.0
176
     1
 90
        8
176
     1
 62
     7
176
     1
 40
1.0
176
     1
 90
        1
176
     1
 90
        6
176
     1
 90
        2
176
     1
 62
     7
176
     1
 90
        5
176
     1
 90
        0
176
     1
 90
        0
176
     1
290
     0
176
     1
 90
        1
176
     1
 40
0.0
176
     1
 90
        0
176
     1
290
     0
176
     1
290
     1
176
     1
290
     1
176
     1
290
     0
176
     1
290
     0
176
     1
290
     0
176
     1
290
     0
176
     1
290
     0
176
     1
290
     0
176
     1
 90
       50
176
     1
 40
0.0
176
     1
 40
1.0
176
     1
 90
        0
176
     1
 62
    18
420
        0
176
     1
 90
       50
176
     1
 90
        3
176
     1
 62
     5
420
      255
176
     1
290
     0
176
     1
 90
       50
176
     1
 90
       50
176
     1
 90
       50
176
     1
290
     0
176
     1
 90
       50
176
     1
 62
   256
176
     0
 40
1.0
176
     0
 90
        2
176
     1
  1
strokes_ogs.tif
176
     1
290
     0
176
     1
 40
1.0
176
     1
 40
1.0
176
     1
1001
ACAD
1000
AcDbSavedByObjectVersion
1070
     0
  0
VISUALSTYLE
  5
40
102
{ACAD_REACTORS
330
29
102
}
330
29
100
AcDbVisualStyle
  2
OverhangOff
 70
    21
177
     3
291
     1
 70
    58
 90
        2
176
     0
 90
        2
176
     0
 90
        0
176
     0
 90
        0
176
     0
 40
0.6
176
     0
 40
30.0
176
     0
 62
     7
420
 16777215
176
     0
 90
        1
176
     0
 90
        4
176
     0
 62
     7
176
     0
 62
   257
176
     0
 90
        1
176
     0
 90
        1
176
     0
 40
1.0
176
     0
 90
        9
176
     2
 62
     7
176
     0
 40
1.0
176
     0
 90
        1
176
     0
 90
        6
176
     0
 90
        2
176
     0
 62
     7
176
     0
 90
        5
176
     0
 90
        0
176
     0
 90
        0
176
     0
290
     0
176
     0
 90
        1
176
     0
 40
0.0
176
     0
 90
        0
176
     0
290
     0
176
     0
290
     1
176
     0
290
     1
176
     0
290
     0
176
     0
290
     0
176
     0
290
     0
176
     0
290
     0
176
     0
290
     0
176
     0
290
     0
176
     0
 90
       50
176
     0
 40
0.0
176
     0
 40
1.0
176
     0
 90
        0
176
     0
 62
    18
420
        0
176
     0
 90
       50
176
     0
 90
        3
176
     0
 62
     5
420
      255
176
     0
290
     0
176
     0
 90
       50
176
     0
 90
       50
176
     0
 90
       50
176
     0
290
     0
176
     0
 90
       50
176
     0
 62
   256
176
     0
 40
1.0
176
     0
 90
        2
176
     0
  1
strokes_ogs.tif
176
     0
290
     0
176
     0
 40
1.0
176
     0
 40
1.0
176
     0
1001
ACAD
1000
AcDbSavedByObjectVersion
1070
     0
  0
VISUALSTYLE
  5
33
102
{ACAD_REACTORS
330
29
102
}
330
29
100
AcDbVisualStyle
  2
Realistic
 70
     8
177
     3
291
     0
 70
    58
 90
        2
176
     1
 90
        3
176
     1
 90
        0
176
     1
 90
        2
176
     1
 40
0.6
176
     1
 40
30.0
176
     1
 62
     7
420
 16777215
176
     1
 90
        0
176
     1
 90
        0
176
     1
 62
     7
176
     1
 62
   257
176
     1
 90
        1
176
     1
 90
        1
176
     1
 40
1.0
176
     1
 90
        8
176
     1
 62
   257
176
     1
 40
1.0
176
     1
 90
        1
176
     1
 90
        6
176
     1
 90
        2
176
     1
 62
     7
176
     1
 90
        3
176
     1
 90
        0
176
     1
 90
        0
176
     1
290
     0
176
     1
 90
       13
176
     1
 40
0.0
176
     1
 90
        0
176
     1
290
     0
176
     1
290
     1
176
     1
290
     1
176
     1
290
     0
176
     1
290
     0
176
     1
290
     0
176
     1
290
     0
176
     1
290
     0
176
     1
290
     0
176
     1
 90
       50
176
     1
 40
0.0
176
     1
 40
1.0
176
     1
 90
        0
176
     1
 62
    18
420
        0
176
     1
 90
       50
176
     1
 90
        3
176
     1
 62
     5
420
      255
176
     1
290
     0
176
     1
 90
       50
176
     1
 90
       50
176
     1
 90
       50
176
     1
290
     0
176
     1
 90
       50
176
     1
 62
   256
176
     0
 40
1.0
176
     0
 90
        2
176
     1
  1
strokes_ogs.tif
176
     1
290
     0
176
     1
 40
1.0
176
     1
 40
1.0
176
     1
1001
ACAD
1000
AcDbSavedByObjectVersion
1070
     0
  0
VISUALSTYLE
  5
3E
102
{ACAD_REACTORS
330
29
102
}
330
29
100
AcDbVisualStyle
  2
Shaded
 70
    27
177
     3
291
     0
 70
    58
 90
        2
176
     1
 90
        2
176
     1
 90
        1
176
     1
 90
        2
176
     1
 40
0.6
176
     1
 40
30.0
176
     1
 62
     7
420
 16777215
176
     1
 90
        0
176
     1
 90
        4
176
     1
 62
     7
176
     1
 62
   257
176
     1
 90
        1
176
     1
 90
        1
176
     1
 40
1.0
176
     1
 90
        8
176
     1
 62
   257
176
     1
 40
1.0
176
     1
 90
        1
176
     1
 90
        6
176
     1
 90
        2
176
     1
 62
     8
420
  7895160
176
     1
 90
        3
176
     1
 90
        0
176
     1
 90
        0
176
     1
290
     0
176
     1
 90
        5
176
     1
 40
0.0
176
     1
 90
        0
176
     1
290
     0
176
     1
290
     1
176
     1
290
     1
176
     1
290
     0
176
     1
290
     0
176
     1
290
     0
176
     1
290
     0
176
     1
290
     0
176
     1
290
     0
176
     1
 90
       50
176
     1
 40
0.0
176
     1
 40
1.0
176
     1
 90
        0
176
     1
 62
    18
420
        0
176
     1
 90
       50
176
     1
 90
        3
176
     1
 62
     5
420
      255
176
     1
290
     0
176
     1
 90
       50
176
     1
 90
       50
176
     1
 90
       50
176
     1
290
     0
176
     1
 90
       50
176
     1
 62
   256
176
     0
 40
1.0
176
     0
 90
        2
176
     1
  1
strokes_ogs.tif
176
     1
290
     0
176
     1
 40
1.0
176
     1
 40
1.0
176
     1
1001
ACAD
1000
AcDbSavedByObjectVersion
1070
     0
  0
VISUALSTYLE
  5
3D
102
{ACAD_REACTORS
330
29
102
}
330
29
100
AcDbVisualStyle
  2
Shaded with edges
 70
    26
177
     3
291
     0
 70
    58
 90
        2
176
     1
 90
        2
176
     1
 90
        1
176
     1
 90
        2
176
     1
 40
0.6
176
     1
 40
30.0
176
     1
 62
     7
420
 16777215
176
     1
 90
        1
176
     1
 90
        2
176
     1
 62
     7
176
     1
 62
   257
176
     1
 90
        2
176
     1
 90
        1
176
     1
 40
1.0
176
     1
 90
        8
176
     1
 62
   257
176
     1
 40
1.0
176
     1
 90
        1
176
     1
 90
        6
176
     1
 90
        2
176
     1
 62
     7
176
     1
 90
        3
176
     1
 90
        0
176
     1
 90
        0
176
     1
290
     0
176
     1
 90
        5
176
     1
 40
0.0
176
     1
 90
        0
176
     1
290
     0
176
     1
290
     1
176
     1
290
     1
176
     1
290
     0
176
     1
290
     0
176
     1
290
     0
176
     1
290
     0
176
     1
290
     0
176
     1
290
     0
176
     1
 90
       50
176
     1
 40
0.0
176
     1
 40
1.0
176
     1
 90
        0
176
     1
 62
    18
420
        0
176
     1
 90
       50
176
     1
 90
        3
176
     1
 62
     5
420
      255
176
     1
290
     0
176
     1
 90
       50
176
     1
 90
       50
176
     1
 90
       50
176
     1
290
     0
176
     1
 90
       50
176
     1
 62
   256
176
     0
 40
1.0
176
     0
 90
        2
176
     1
  1
strokes_ogs.tif
176
     1
290
     0
176
     1
 40
1.0
176
     1
 40
1.0
176
     1
1001
ACAD
1000
AcDbSavedByObjectVersion
1070
     0
  0
VISUALSTYLE
  5
3A
102
{ACAD_REACTORS
330
29
102
}
330
29
100
AcDbVisualStyle
  2
Shades of Gray
 70
    23
177
     3
291
     0
 70
    58
 90
        2
176
     1
 90
        2
176
     1
 90
        3
176
     1
 90
        0
176
     1
 40
0.6
176
     1
 40
30.0
176
     1
 62
     7
420
 16777215
176
     1
 90
        2
176
     1
 90
        2
176
     1
 62
     7
176
     1
 62
     7
176
     1
 90
        1
176
     1
 90
        1
176
     1
 40
40.0
176
     1
 90
        8
176
     1
 62
     7
176
     1
 40
1.0
176
     1
 90
        1
176
     1
 90
        6
176
     1
 90
        2
176
     1
 62
     7
176
     1
 90
        3
176
     1
 90
        0
176
     1
 90
        0
176
     1
290
     0
176
     1
 90
        1
176
     1
 40
0.0
176
     1
 90
        0
176
     1
290
     0
176
     1
290
     1
176
     1
290
     1
176
     1
290
     0
176
     1
290
     0
176
     1
290
     0
176
     1
290
     0
176
     1
290
     0
176
     1
290
     0
176
     1
 90
       50
176
     1
 40
0.0
176
     1
 40
1.0
176
     1
 90
        0
176
     1
 62
    18
420
        0
176
     1
 90
       50
176
     1
 90
        3
176
     1
 62
     5
420
      255
176
     1
290
     0
176
     1
 90
       50
176
     1
 90
       50
176
     1
 90
       50
176
     1
290
     0
176
     1
 90
       50
176
     1
 62
   256
176
     0
 40
1.0
176
     0
 90
        2
176
     1
  1
strokes_ogs.tif
176
     1
290
     0
176
     1
 40
1.0
176
     1
 40
1.0
176
     1
1001
ACAD
1000
AcDbSavedByObjectVersion
1070
     0
  0
VISUALSTYLE
  5
3B
102
{ACAD_REACTORS
330
29
102
}
330
29
100
AcDbVisualStyle
  2
Sketchy
 70
    24
177
     3
291
     0
 70
    58
 90
        1
176
     1
 90
        2
176
     1
 90
        2
176
     1
 90
        0
176
     1
 40
0.6
176
     1
 40
30.0
176
     1
 62
     7
420
 16777215
176
     1
 90
        2
176
     1
 90
        2
176
     1
 62
     7
176
     1
 62
     7
176
     1
 90
        1
176
     1
 90
        1
176
     1
 40
40.0
176
     1
 90
       11
176
     1
 62
     7
176
     1
 40
1.0
176
     1
 90
        1
176
     1
 90
        6
176
     1
 90
        2
176
     1
 62
     7
176
     1
 90
        6
176
     1
 90
        0
176
     1
 90
        0
176
     1
290
     0
176
     1
 90
        1
176
     1
 40
0.0
176
     1
 90
        0
176
     1
290
     0
176
     1
290
     1
176
     1
290
     1
176
     1
290
     0
176
     1
290
     0
176
     1
290
     0
176
     1
290
     0
176
     1
290
     0
176
     1
290
     0
176
     1
 90
       50
176
     1
 40
0.0
176
     1
 40
1.0
176
     1
 90
        0
176
     1
 62
    18
420
        0
176
     1
 90
       50
176
     1
 90
        3
176
     1
 62
     5
420
      255
176
     1
290
     0
176
     1
 90
       50
176
     1
 90
       50
176
     1
 90
       50
176
     1
290
     0
176
     1
 90
       50
176
     1
 62
   256
176
     0
 40
1.0
176
     0
 90
        2
176
     1
  1
strokes_ogs.tif
176
     1
290
     0
176
     1
 40
1.0
176
     1
 40
1.0
176
     1
1001
ACAD
1000
AcDbSavedByObjectVersion
1070
     0
  0
VISUALSTYLE
  5
36
102
{ACAD_REACTORS
330
29
102
}
330
29
100
AcDbVisualStyle
  2
Thicken
 70
    13
177
     3
291
     1
 70
    58
 90
        2
176
     1
 90
        2
176
     1
 90
        0
176
     1
 90
        0
176
     1
 40
0.6
176
     1
 40
30.0
176
     1
 62
     7
420
 16777215
176
     1
 90
        1
176
     1
 90
        4
176
     1
 62
     7
176
     1
 62
   257
176
     1
 90
        1
176
     1
 90
        1
176
     1
 40
1.0
176
     1
 90
       12
176
     1
 62
     7
176
     1
 40
1.0
176
     1
 90
        1
176
     1
 90
        6
176
     1
 90
        2
176
     1
 62
     7
176
     1
 90
        5
176
     1
 90
        0
176
     1
 90
        0
176
     1
290
     0
176
     1
 90
        1
176
     1
 40
0.0
176
     1
 90
        0
176
     1
290
     0
176
     1
290
     1
176
     1
290
     1
176
     1
290
     0
176
     1
290
     0
176
     1
290
     0
176
     1
290
     0
176
     1
290
     0
176
     1
290
     0
176
     1
 90
       50
176
     1
 40
0.0
176
     1
 40
1.0
176
     1
 90
        0
176
     1
 62
    18
420
        0
176
     1
 90
       50
176
     1
 90
        3
176
     1
 62
     5
420
      255
176
     1
290
     0
176
     1
 90
       50
176
     1
 90
       50
176
     1
 90
       50
176
     1
290
     0
176
     1
 90
       50
176
     1
 62
   256
176
     0
 40
1.0
176
     0
 90
        2
176
     1
  1
strokes_ogs.tif
176
     1
290
     0
176
     1
 40
1.0
176
     1
 40
1.0
176
     1
1001
ACAD
1000
AcDbSavedByObjectVersion
1070
     0
  0
VISUALSTYLE
  5
30
102
{ACAD_REACTORS
330
29
102
}
330
29
100
AcDbVisualStyle
  2
Wireframe
 70
     5
177
     3
291
     0
 70
    58
 90
        0
176
     1
 90
        2
176
     1
 90
        0
176
     1
 90
        0
176
     1
 40
0.6
176
     1
 40
30.0
176
     1
 62
     7
420
 16777215
176
     1
 90
        1
176
     1
 90
        4
176
     1
 62
     7
176
     1
 62
   257
176
     1
 90
        1
176
     1
 90
        1
176
     1
 40
1.0
176
     1
 90
        0
176
     1
 62
   257
176
     1
 40
1.0
176
     1
 90
        1
176
     1
 90
        6
176
     1
 90
        2
176
     1
 62
     7
176
     1
 90
        3
176
     1
 90
        0
176
     1
 90
        0
176
     1
290
     0
176
     1
 90
        1
176
     1
 40
0.0
176
     1
 90
        0
176
     1
290
     0
176
     1
290
     1
176
     1
290
     1
176
     1
290
     0
176
     1
290
     0
176
     1
290
     0
176
     1
290
     0
176
     1
290
     0
176
     1
290
     0
176
     1
 90
       50
176
     1
 40
0.0
176
     1
 40
1.0
176
     1
 90
        0
176
     1
 62
    18
420
        0
176
     1
 90
       50
176
     1
 90
        3
176
     1
 62
     5
420
      255
176
     1
290
     0
176
     1
 90
       50
176
     1
 90
       50
176
     1
 90
       50
176
     1
290
     0
176
     1
 90
       50
176
     1
 62
   256
176
     0
 40
1.0
176
     0
 90
        2
176
     1
  1
strokes_ogs.tif
176
     1
290
     0
176
     1
 40
1.0
176
     1
 40
1.0
176
     1
1001
ACAD
1000
AcDbSavedByObjectVersion
1070
     0
  0
VISUALSTYLE
  5
3C
102
{ACAD_REACTORS
330
29
102
}
330
29
100
AcDbVisualStyle
  2
X-Ray
 70
    25
177
     3
291
     0
 70
    58
 90
        2
176
     1
 90
        2
176
     1
 90
        1
176
     1
 90
        1
176
     1
 40
0.5
176
     1
 40
30.0
176
     1
 62
     7
420
 16777215
176
     1
 90
        1
176
     1
 90
        0
176
     1
 62
     7
176
     1
 62
   257
176
     1
 90
        1
176
     1
 90
        1
176
     1
 40
1.0
176
     1
 90
        8
176
     1
 62
     7
176
     1
 40
1.0
176
     1
 90
        1
176
     1
 90
        6
176
     1
 90
        2
176
     1
 62
     7
176
     1
 90
        3
176
     1
 90
        0
176
     1
 90
        0
176
     1
290
     0
176
     1
 90
       13
176
     1
 40
0.0
176
     1
 90
        0
176
     1
290
     0
176
     1
290
     1
176
     1
290
     1
176
     1
290
     0
176
     1
290
     0
176
     1
290
     0
176
     1
290
     0
176
     1
290
     0
176
     1
290
     0
176
     1
 90
       50
176
     1
 40
0.0
176
     1
 40
1.0
176
     1
 90
        0
176
     1
 62
    18
420
        0
176
     1
 90
       50
176
     1
 90
        3
176
     1
 62
     5
420
      255
176
     1
290
     0
176
     1
 90
       50
176
     1
 90
       50
176
     1
 90
       50
176
     1
290
     0
176
     1
 90
       50
176
     1
 62
   256
176
     0
 40
1.0
176
     0
 90
        2
176
     1
  1
strokes_ogs.tif
176
     1
290
     0
176
     1
 40
1.0
176
     1
 40
1.0
176
     1
1001
ACAD
1000
AcDbSavedByObjectVersion
1070
     0
  0
DICTIONARYVAR
  5
8B
102
{ACAD_REACTORS
330
86
102
}
330
86
100
DictionaryVariables
280
     0
  1
1:1
  0
DICTIONARYVAR
  5
88
102
{ACAD_REACTORS
330
86
102
}
330
86
100
DictionaryVariables
280
     0
  1
STANDARD
  0
DICTIONARYVAR
  5
87
102
{ACAD_REACTORS
330
86
102
}
330
86
100
DictionaryVariables
280
     0
  1
STANDARD
  0
DICTIONARYVAR
  5
89
102
{ACAD_REACTORS
330
86
102
}
330
86
100
DictionaryVariables
280
     0
  1
Imperial24
  0
DICTIONARYVAR
  5
8A
102
{ACAD_REACTORS
330
86
102
}
330
86
100
DictionaryVariables
280
     0
  1
Imperial24
  0
DICTIONARY
  5
91
330
6B
100
AcDbDictionary
280
     1
281
     1
  3
ACAD_XREC_ROUNDTRIP
360
92
  0
DICTIONARY
  5
1A
330
19
100
AcDbDictionary
280
     1
281
     1
  3
BUMPTILE
360
1C
  3
DIFFUSETILE
360
1B
  3
OPACITYTILE
360
1F
  3
REFLECTIONTILE
360
1E
  3
REFRACTIONTILE
360
20
  3
SPECULARTILE
360
1D
  0
DICTIONARY
  5
12
330
11
100
AcDbDictionary
280
     1
281
     1
  3
BUMPTILE
360
14
  3
DIFFUSETILE
360
13
  3
OPACITYTILE
360
17
  3
REFLECTIONTILE
360
16
  3
REFRACTIONTILE
360
18
  3
SPECULARTILE
360
15
  0
DICTIONARY
  5
22
330
21
100
AcDbDictionary
280
     1
281
     1
  3
BUMPTILE
360
24
  3
DIFFUSETILE
360
23
  3
OPACITYTILE
360
27
  3
REFLECTIONTILE
360
26
  3
REFRACTIONTILE
360
28
  3
SPECULARTILE
360
25
  0
DICTIONARY
  5
8F
330
69
100
AcDbDictionary
280
     1
281
     1
  3
ACAD_XREC_ROUNDTRIP
360
90
  0
DICTIONARY
  5
8C
330
65
100
AcDbDictionary
280
     1
281
     1
  3
ACAD_ROUNDTRIP_2008_TABLESTYLE_CELLSTYLEMAP
360
8D
  0
XRECORD
  5
92
102
{ACAD_REACTORS
330
91
102
}
330
91
100
AcDbXrecord
280
     1
102
DISPLAYNAME
  1
Imperial24
102
FLAGS
 90
        0
  0
XRECORD
  5
1C
102
{ACAD_REACTORS
330
1A
102
}
330
1A
100
AcDbXrecord
280
     1
270
     1
271
     1
  0
XRECORD
  5
1B
102
{ACAD_REACTORS
330
1A
102
}
330
1A
100
AcDbXrecord
280
     1
270
     1
271
     1
  0
XRECORD
  5
1F
102
{ACAD_REACTORS
330
1A
102
}
330
1A
100
AcDbXrecord
280
     1
270
     1
271
     1
  0
XRECORD
  5
1E
102
{ACAD_REACTORS
330
1A
102
}
330
1A
100
AcDbXrecord
280
     1
270
     1
271
     1
  0
XRECORD
  5
20
102
{ACAD_REACTORS
330
1A
102
}
330
1A
100
AcDbXrecord
280
     1
270
     1
271
     1
  0
XRECORD
  5
1D
102
{ACAD_REACTORS
330
1A
102
}
330
1A
100
AcDbXrecord
280
     1
270
     1
271
     1
  0
XRECORD
  5
14
102
{ACAD_REACTORS
330
12
102
}
330
12
100
AcDbXrecord
280
     1
270
     1
271
     1
  0
XRECORD
  5
13
102
{ACAD_REACTORS
330
12
102
}
330
12
100
AcDbXrecord
280
     1
270
     1
271
     1
  0
XRECORD
  5
17
102
{ACAD_REACTORS
330
12
102
}
330
12
100
AcDbXrecord
280
     1
270
     1
271
     1
  0
XRECORD
  5
16
102
{ACAD_REACTORS
330
12
102
}
330
12
100
AcDbXrecord
280
     1
270
     1
271
     1
  0
XRECORD
  5
18
102
{ACAD_REACTORS
330
12
102
}
330
12
100
AcDbXrecord
280
     1
270
     1
271
     1
  0
XRECORD
  5
15
102
{ACAD_REACTORS
330
12
102
}
330
12
100
AcDbXrecord
280
     1
270
     1
271
     1
  0
XRECORD
  5
24
102
{ACAD_REACTORS
330
22
102
}
330
22
100
AcDbXrecord
280
     1
270
     1
271
     1
  0
XRECORD
  5
23
102
{ACAD_REACTORS
330
22
102
}
330
22
100
AcDbXrecord
280
     1
270
     1
271
     1
  0
XRECORD
  5
27
102
{ACAD_REACTORS
330
22
102
}
330
22
100
AcDbXrecord
280
     1
270
     1
271
     1
  0
XRECORD
  5
26
102
{ACAD_REACTORS
330
22
102
}
330
22
100
AcDbXrecord
280
     1
270
     1
271
     1
  0
XRECORD
  5
28
102
{ACAD_REACTORS
330
22
102
}
330
22
100
AcDbXrecord
280
     1
270
     1
271
     1
  0
XRECORD
  5
25
102
{ACAD_REACTORS
330
22
102
}
330
22
100
AcDbXrecord
280
     1
270
     1
271
     1
  0
XRECORD
  5
90
102
{ACAD_REACTORS
330
8F
102
}
330
8F
100
AcDbXrecord
280
     1
102
DISPLAYNAME
  1
Imperial24
102
FLAGS
 90
        0
  0
CELLSTYLEMAP
  5
8D
102
{ACAD_REACTORS
330
8C
102
}
330
8C
100
AcDbCellStyleMap
 90
        3
300
CELLSTYLE
  1
TABLEFORMAT_BEGIN
 90
        5
170
     1
 91
        0
 92
    32768
 62
   257
 93
        1
300
CONTENTFORMAT
  1
CONTENTFORMAT_BEGIN
 90
        0
 91
        0
 92
      512
 93
        0
300

 40
0.0
140
1.0
 94
        5
 62
     0
340
55
144
0.25
309
CONTENTFORMAT_END
171
     0
 94
        0
309
TABLEFORMAT_END
  1
CELLSTYLE_BEGIN
 90
        1
 91
        1
300
_TITLE
309
CELLSTYLE_END
300
CELLSTYLE
  1
TABLEFORMAT_BEGIN
 90
        5
170
     1
 91
        0
 92
        0
 62
   257
 93
        1
300
CONTENTFORMAT
  1
CONTENTFORMAT_BEGIN
 90
        0
 91
        0
 92
      512
 93
        0
300

 40
0.0
140
1.0
 94
        5
 62
     0
340
55
144
0.18
309
CONTENTFORMAT_END
171
     0
 94
        0
309
TABLEFORMAT_END
  1
CELLSTYLE_BEGIN
 90
        2
 91
        1
300
_HEADER
309
CELLSTYLE_END
300
CELLSTYLE
  1
TABLEFORMAT_BEGIN
 90
        5
170
     1
 91
        0
 92
        0
 62
   257
 93
        1
300
CONTENTFORMAT
  1
CONTENTFORMAT_BEGIN
 90
        0
 91
        0
 92
      512
 93
        0
300

 40
0.0
140
1.0
 94
        2
 62
     0
340
55
144
0.18
309
CONTENTFORMAT_END
171
     0
 94
        0
309
TABLEFORMAT_END
  1
CELLSTYLE_BEGIN
 90
        3
 91
        2
300
_DATA
309
CELLSTYLE_END
  0
ENDSEC
  0
EOF
